<svg width="27" height="39" viewBox="0 0 27 39" fill="none" xmlns="http://www.w3.org/2000/svg">
<path d="M12.3252 7.9662C6.02754 8.47567 2.10588 13.4174 2.82061 18.4296C3.31054 21.8653 4.45373 22.5695 5.17225 25.7696C5.92148 29.1064 4.87834 31.8602 6.15213 34.437C7.69516 37.5585 11.2108 38.8963 15.3628 38.3413C19.9777 37.7244 23.9855 34.7592 22.9077 31.8602C21.5141 28.1121 13.3118 32.1314 12.3252 29.1273C10.6648 24.0709 24.888 18.4296 22.9077 10.9334C21.938 7.26299 17.008 7.58737 12.3252 7.9662Z" fill="white" stroke="#F8F8F5" stroke-opacity="0.972549"/>
<circle cx="23.576" cy="3.42399" r="3.42391" fill="white"/>
<circle cx="15.0652" cy="3.32622" r="2.54348" fill="white"/>
<circle cx="9.39127" cy="4.6958" r="2.15217" fill="white"/>
<circle cx="4.5" cy="7.63048" r="1.76087" fill="white"/>
<circle cx="1.36957" cy="10.761" r="1.36957" fill="white"/>
</svg>
