<svg width="166" height="39" viewBox="0 0 166 39" fill="none" xmlns="http://www.w3.org/2000/svg">
<path d="M31.68 16.8H33.28V26.608H39.344V28H31.68V16.8ZM40.956 19.52H42.492V28H40.956V19.52ZM41.724 17.888C41.4253 17.888 41.1747 17.792 40.972 17.6C40.78 17.408 40.684 17.1733 40.684 16.896C40.684 16.6187 40.78 16.384 40.972 16.192C41.1747 15.9893 41.4253 15.888 41.724 15.888C42.0227 15.888 42.268 15.984 42.46 16.176C42.6627 16.3573 42.764 16.5867 42.764 16.864C42.764 17.152 42.6627 17.3973 42.46 17.6C42.268 17.792 42.0227 17.888 41.724 17.888ZM49.8888 27.504C49.6648 27.696 49.3874 27.8453 49.0568 27.952C48.7261 28.048 48.3848 28.096 48.0328 28.096C47.1794 28.096 46.5181 27.8667 46.0488 27.408C45.5794 26.9493 45.3448 26.2933 45.3448 25.44V17.664H46.8808V19.52H49.3128V20.784H46.8808V25.376C46.8808 25.8347 46.9928 26.1867 47.2168 26.432C47.4514 26.6773 47.7821 26.8 48.2088 26.8C48.6781 26.8 49.0781 26.6667 49.4088 26.4L49.8888 27.504ZM56.2013 27.504C55.9773 27.696 55.6999 27.8453 55.3693 27.952C55.0386 28.048 54.6973 28.096 54.3453 28.096C53.4919 28.096 52.8306 27.8667 52.3613 27.408C51.8919 26.9493 51.6573 26.2933 51.6573 25.44V17.664H53.1933V19.52H55.6253V20.784H53.1933V25.376C53.1933 25.8347 53.3053 26.1867 53.5293 26.432C53.7639 26.6773 54.0946 26.8 54.5213 26.8C54.9906 26.8 55.3906 26.6667 55.7213 26.4L56.2013 27.504ZM60.6258 28.096C59.8044 28.096 59.1698 27.872 58.7218 27.424C58.2738 26.9653 58.0498 26.3253 58.0498 25.504V16.128H59.5858V25.376C59.5858 25.8347 59.6924 26.1867 59.9058 26.432C60.1298 26.6773 60.4604 26.8 60.8978 26.8C61.1644 26.8 61.4151 26.7467 61.6498 26.64L61.7298 27.904C61.3778 28.032 61.0098 28.096 60.6258 28.096ZM66.8581 26.752C67.8715 26.752 68.6875 26.4107 69.3061 25.728L70.1381 26.72C69.7648 27.168 69.2901 27.5093 68.7141 27.744C68.1488 27.9787 67.5141 28.096 66.8101 28.096C65.9141 28.096 65.1195 27.9147 64.4261 27.552C63.7328 27.1787 63.1941 26.6613 62.8101 26C62.4368 25.3387 62.2501 24.592 62.2501 23.76C62.2501 22.9387 62.4315 22.1973 62.7941 21.536C63.1675 20.8747 63.6741 20.3627 64.3141 20C64.9648 19.6267 65.6955 19.44 66.5061 19.44C67.2741 19.44 67.9728 19.616 68.6021 19.968C69.2315 20.3093 69.7328 20.7947 70.1061 21.424C70.4795 22.0533 70.6715 22.7787 70.6821 23.6L63.9461 24.912C64.1595 25.4987 64.5168 25.952 65.0181 26.272C65.5301 26.592 66.1435 26.752 66.8581 26.752ZM66.5061 20.736C65.9728 20.736 65.4928 20.8587 65.0661 21.104C64.6501 21.3493 64.3248 21.696 64.0901 22.144C63.8555 22.5813 63.7381 23.0933 63.7381 23.68V23.84L69.1621 22.816C69.0235 22.1973 68.7141 21.696 68.2341 21.312C67.7541 20.928 67.1781 20.736 66.5061 20.736ZM82.0399 16.608C83.0745 16.608 83.9759 16.8107 84.7439 17.216C85.5119 17.6213 86.1092 18.2187 86.5359 19.008C86.9625 19.7973 87.1759 20.752 87.1759 21.872V28H84.5839V25.312H79.4639V28H76.9039V21.872C76.9039 20.752 77.1172 19.7973 77.5439 19.008C77.9705 18.2187 78.5679 17.6213 79.3359 17.216C80.1039 16.8107 81.0052 16.608 82.0399 16.608ZM84.5839 23.232V21.632C84.5839 20.704 84.3545 20.0053 83.8959 19.536C83.4372 19.056 82.8132 18.816 82.0239 18.816C81.2239 18.816 80.5945 19.056 80.1359 19.536C79.6879 20.0053 79.4639 20.704 79.4639 21.632V23.232H84.5839ZM98.2303 19.392V28H95.8623V26.976C95.5316 27.3493 95.1369 27.6373 94.6783 27.84C94.2196 28.032 93.7236 28.128 93.1903 28.128C92.0596 28.128 91.1636 27.8027 90.5023 27.152C89.8409 26.5013 89.5103 25.536 89.5103 24.256V19.392H92.0063V23.888C92.0063 25.2747 92.5876 25.968 93.7503 25.968C94.3476 25.968 94.8276 25.776 95.1903 25.392C95.5529 24.9973 95.7343 24.416 95.7343 23.648V19.392H98.2303ZM105.727 27.584C105.481 27.7653 105.177 27.904 104.815 28C104.463 28.0853 104.095 28.128 103.711 28.128C102.676 28.128 101.881 27.8667 101.327 27.344C100.772 26.8213 100.495 26.0533 100.495 25.04V17.488H102.991V19.584H105.119V21.504H102.991V25.008C102.991 25.3707 103.081 25.6533 103.263 25.856C103.444 26.048 103.705 26.144 104.047 26.144C104.431 26.144 104.772 26.0373 105.071 25.824L105.727 27.584ZM110.967 28.128C110.06 28.128 109.244 27.9413 108.519 27.568C107.804 27.184 107.244 26.656 106.839 25.984C106.433 25.312 106.231 24.5493 106.231 23.696C106.231 22.8427 106.433 22.08 106.839 21.408C107.244 20.736 107.804 20.2133 108.519 19.84C109.244 19.456 110.06 19.264 110.967 19.264C111.873 19.264 112.684 19.456 113.399 19.84C114.113 20.2133 114.673 20.736 115.079 21.408C115.484 22.08 115.687 22.8427 115.687 23.696C115.687 24.5493 115.484 25.312 115.079 25.984C114.673 26.656 114.113 27.184 113.399 27.568C112.684 27.9413 111.873 28.128 110.967 28.128ZM110.967 26.08C111.607 26.08 112.129 25.8667 112.535 25.44C112.951 25.0027 113.159 24.4213 113.159 23.696C113.159 22.9707 112.951 22.3947 112.535 21.968C112.129 21.5307 111.607 21.312 110.967 21.312C110.327 21.312 109.799 21.5307 109.383 21.968C108.967 22.3947 108.759 22.9707 108.759 23.696C108.759 24.4213 108.967 25.0027 109.383 25.44C109.799 25.8667 110.327 26.08 110.967 26.08ZM122.587 19.264C123.654 19.264 124.512 19.584 125.163 20.224C125.824 20.864 126.155 21.8133 126.155 23.072V28H123.659V23.456C123.659 22.7733 123.51 22.2667 123.211 21.936C122.912 21.5947 122.48 21.424 121.915 21.424C121.286 21.424 120.784 21.6213 120.411 22.016C120.038 22.4 119.851 22.976 119.851 23.744V28H117.355V19.392H119.739V20.4C120.07 20.0373 120.48 19.76 120.971 19.568C121.462 19.3653 122 19.264 122.587 19.264ZM132.607 28.128C131.701 28.128 130.885 27.9413 130.159 27.568C129.445 27.184 128.885 26.656 128.479 25.984C128.074 25.312 127.871 24.5493 127.871 23.696C127.871 22.8427 128.074 22.08 128.479 21.408C128.885 20.736 129.445 20.2133 130.159 19.84C130.885 19.456 131.701 19.264 132.607 19.264C133.514 19.264 134.325 19.456 135.039 19.84C135.754 20.2133 136.314 20.736 136.719 21.408C137.125 22.08 137.327 22.8427 137.327 23.696C137.327 24.5493 137.125 25.312 136.719 25.984C136.314 26.656 135.754 27.184 135.039 27.568C134.325 27.9413 133.514 28.128 132.607 28.128ZM132.607 26.08C133.247 26.08 133.77 25.8667 134.175 25.44C134.591 25.0027 134.799 24.4213 134.799 23.696C134.799 22.9707 134.591 22.3947 134.175 21.968C133.77 21.5307 133.247 21.312 132.607 21.312C131.967 21.312 131.439 21.5307 131.023 21.968C130.607 22.3947 130.399 22.9707 130.399 23.696C130.399 24.4213 130.607 25.0027 131.023 25.44C131.439 25.8667 131.967 26.08 132.607 26.08ZM150.02 19.264C151.097 19.264 151.95 19.584 152.58 20.224C153.22 20.8533 153.54 21.8027 153.54 23.072V28H151.044V23.456C151.044 22.7733 150.9 22.2667 150.612 21.936C150.334 21.5947 149.934 21.424 149.412 21.424C148.825 21.424 148.361 21.616 148.02 22C147.678 22.3733 147.508 22.9333 147.508 23.68V28H145.012V23.456C145.012 22.1013 144.468 21.424 143.38 21.424C142.804 21.424 142.345 21.616 142.004 22C141.662 22.3733 141.492 22.9333 141.492 23.68V28H138.996V19.392H141.38V20.384C141.7 20.0213 142.089 19.744 142.548 19.552C143.017 19.36 143.529 19.264 144.084 19.264C144.692 19.264 145.241 19.3867 145.732 19.632C146.222 19.8667 146.617 20.2133 146.916 20.672C147.268 20.224 147.71 19.8773 148.244 19.632C148.788 19.3867 149.38 19.264 150.02 19.264ZM164.449 19.392V26.56C164.449 28.1387 164.049 29.312 163.249 30.08C162.449 30.848 161.286 31.232 159.761 31.232C158.95 31.232 158.182 31.1307 157.457 30.928C156.742 30.7253 156.14 30.432 155.649 30.048L156.641 28.256C157.004 28.5547 157.446 28.7893 157.969 28.96C158.492 29.1307 159.02 29.216 159.553 29.216C160.385 29.216 160.993 29.024 161.377 28.64C161.761 28.256 161.953 27.6693 161.953 26.88V26.592C161.633 26.912 161.254 27.1573 160.817 27.328C160.38 27.4987 159.91 27.584 159.409 27.584C158.278 27.584 157.382 27.264 156.721 26.624C156.06 25.9733 155.729 25.0027 155.729 23.712V19.392H158.225V23.344C158.225 24.7413 158.806 25.44 159.969 25.44C160.566 25.44 161.046 25.248 161.409 24.864C161.772 24.4693 161.953 23.888 161.953 23.12V19.392H164.449Z" fill="#8A38F5"/>
<path d="M12.3252 7.9662C6.02754 8.47567 2.10588 13.4174 2.82061 18.4296C3.31054 21.8653 4.45373 22.5695 5.17225 25.7696C5.92148 29.1064 4.87834 31.8602 6.15213 34.437C7.69516 37.5585 11.2108 38.8963 15.3628 38.3413C19.9777 37.7244 23.9855 34.7592 22.9077 31.8602C21.5141 28.1121 13.3118 32.1314 12.3252 29.1273C10.6648 24.0709 24.888 18.4296 22.9077 10.9334C21.938 7.26299 17.008 7.58737 12.3252 7.9662Z" fill="#8A38F5" stroke="#F8F8F5" stroke-opacity="0.972549"/>
<circle cx="23.576" cy="3.42399" r="3.42391" fill="#8A38F5"/>
<circle cx="15.0652" cy="3.32622" r="2.54348" fill="#8A38F5"/>
<circle cx="9.39127" cy="4.6958" r="2.15217" fill="#8A38F5"/>
<circle cx="4.5" cy="7.63048" r="1.76087" fill="#8A38F5"/>
<circle cx="1.36957" cy="10.761" r="1.36957" fill="#8A38F5"/>
</svg>
