<svg width="226" height="226" viewBox="0 0 226 226" fill="none" xmlns="http://www.w3.org/2000/svg">
<circle cx="113" cy="113" r="112" stroke="black" stroke-opacity="0.25" stroke-width="2"/>
<path d="M114.622 1.01174C136.067 1.3223 156.973 7.78407 174.853 19.629C192.734 31.4739 206.837 48.2038 215.487 67.83" stroke="#FF4346" stroke-width="2"/>
<path d="M52.6239 86.168C51.6812 86.168 50.8506 85.958 50.1319 85.538C49.4226 85.1087 48.8672 84.516 48.4659 83.76C48.0739 82.9947 47.8779 82.108 47.8779 81.1C47.8779 80.1013 48.0739 79.224 48.4659 78.468C48.8672 77.7027 49.4226 77.1053 50.1319 76.676C50.8506 76.2467 51.6812 76.032 52.6239 76.032C53.5852 76.032 54.4206 76.2467 55.1299 76.676C55.8392 77.1053 56.3899 77.7027 56.7819 78.468C57.1832 79.224 57.3839 80.1013 57.3839 81.1C57.3839 82.108 57.1832 82.9947 56.7819 83.76C56.3899 84.516 55.8392 85.1087 55.1299 85.538C54.4206 85.958 53.5852 86.168 52.6239 86.168ZM52.6239 85.132C53.3332 85.132 53.9539 84.9733 54.4859 84.656C55.0272 84.3293 55.4426 83.8673 55.7319 83.27C56.0306 82.6633 56.1799 81.94 56.1799 81.1C56.1799 80.26 56.0306 79.5413 55.7319 78.944C55.4426 78.3373 55.0272 77.8753 54.4859 77.558C53.9539 77.2407 53.3332 77.082 52.6239 77.082C51.9239 77.082 51.3032 77.2407 50.7619 77.558C50.2299 77.8753 49.8146 78.3373 49.5159 78.944C49.2266 79.5413 49.0819 80.26 49.0819 81.1C49.0819 81.94 49.2266 82.6633 49.5159 83.27C49.8146 83.8673 50.2299 84.3293 50.7619 84.656C51.3032 84.9733 51.9239 85.132 52.6239 85.132ZM61.3097 86.168C60.7684 86.168 60.2924 86.0607 59.8817 85.846C59.4804 85.6313 59.1677 85.3 58.9437 84.852C58.729 84.404 58.6217 83.844 58.6217 83.172V78.944H59.7977V83.046C59.7977 83.746 59.9517 84.2733 60.2597 84.628C60.5677 84.9827 61.0017 85.16 61.5617 85.16C61.9537 85.16 62.3084 85.0667 62.6257 84.88C62.943 84.684 63.1904 84.4087 63.3677 84.054C63.5544 83.69 63.6477 83.2467 63.6477 82.724V78.944H64.8237V86H63.7597L63.6897 84.768C63.475 85.2067 63.1577 85.552 62.7377 85.804C62.3177 86.0467 61.8417 86.168 61.3097 86.168ZM69.2651 86C68.8451 86 68.4811 85.9347 68.1731 85.804C67.8651 85.6733 67.6271 85.454 67.4591 85.146C67.3004 84.8287 67.2211 84.404 67.2211 83.872V79.938H65.9891V78.944H67.2211L67.3751 77.236H68.3971V78.944H70.4411V79.938H68.3971V83.872C68.3971 84.3107 68.4858 84.6093 68.6631 84.768C68.8404 84.9173 69.1531 84.992 69.6011 84.992H70.3571V86H69.2651ZM78.2843 86.168C77.6309 86.168 77.0429 86.0187 76.5203 85.72C75.9976 85.412 75.5869 84.9827 75.2883 84.432C74.9896 83.872 74.8403 83.2233 74.8403 82.486C74.8403 81.73 74.9896 81.0767 75.2883 80.526C75.5963 79.966 76.0116 79.5367 76.5343 79.238C77.0663 78.93 77.6589 78.776 78.3123 78.776C78.9843 78.776 79.5769 78.93 80.0903 79.238C80.6129 79.5367 81.0236 79.966 81.3223 80.526C81.6303 81.0767 81.7843 81.7253 81.7843 82.472C81.7843 83.2187 81.6303 83.872 81.3223 84.432C81.0143 84.9827 80.5989 85.412 80.0763 85.72C79.5536 86.0187 78.9563 86.168 78.2843 86.168ZM78.2983 85.16C78.6996 85.16 79.0729 85.062 79.4183 84.866C79.7636 84.6607 80.0436 84.3573 80.2583 83.956C80.4729 83.5547 80.5803 83.06 80.5803 82.472C80.5803 81.8747 80.4729 81.38 80.2583 80.988C80.0529 80.5867 79.7776 80.288 79.4323 80.092C79.0963 79.8867 78.7229 79.784 78.3123 79.784C77.9203 79.784 77.5469 79.8867 77.1923 80.092C76.8469 80.288 76.5669 80.5867 76.3523 80.988C76.1469 81.38 76.0443 81.8747 76.0443 82.472C76.0443 83.06 76.1469 83.5547 76.3523 83.956C76.5669 84.3573 76.8423 84.6607 77.1783 84.866C77.5236 85.062 77.8969 85.16 78.2983 85.16ZM83.5451 86V77.852C83.5451 77.404 83.6198 77.04 83.7691 76.76C83.9184 76.4707 84.1378 76.2607 84.4271 76.13C84.7258 75.99 85.0898 75.92 85.5191 75.92H86.3171V76.928H85.7011C85.3558 76.928 85.1038 76.998 84.9451 77.138C84.7958 77.278 84.7211 77.5253 84.7211 77.88V86H83.5451ZM82.4671 79.938V78.944H86.4991V79.938H82.4671ZM92.2177 86V77.516L90.5377 77.936V77.096L92.6097 76.2H93.4077V86H92.2177ZM98.973 86.168C98.1143 86.168 97.3723 85.958 96.747 85.538C96.131 85.1087 95.6596 84.516 95.333 83.76C95.0063 82.9947 94.843 82.108 94.843 81.1C94.843 80.092 95.0063 79.21 95.333 78.454C95.6596 77.6887 96.131 77.096 96.747 76.676C97.3723 76.2467 98.1143 76.032 98.973 76.032C99.8316 76.032 100.564 76.2467 101.171 76.676C101.787 77.096 102.258 77.6887 102.585 78.454C102.912 79.21 103.075 80.092 103.075 81.1C103.075 82.108 102.912 82.9947 102.585 83.76C102.258 84.516 101.787 85.1087 101.171 85.538C100.564 85.958 99.8316 86.168 98.973 86.168ZM98.959 85.132C99.519 85.132 100.018 84.9733 100.457 84.656C100.896 84.3293 101.241 83.8673 101.493 83.27C101.745 82.6633 101.871 81.94 101.871 81.1C101.871 80.26 101.745 79.5413 101.493 78.944C101.241 78.3373 100.896 77.8753 100.457 77.558C100.018 77.2407 99.519 77.082 98.959 77.082C98.399 77.082 97.895 77.2407 97.447 77.558C97.0083 77.8753 96.663 78.3373 96.411 78.944C96.1683 79.5413 96.047 80.26 96.047 81.1C96.047 81.94 96.1683 82.6633 96.411 83.27C96.663 83.8673 97.0083 84.3293 97.447 84.656C97.895 84.9733 98.399 85.132 98.959 85.132ZM108.263 86.168C107.405 86.168 106.663 85.958 106.037 85.538C105.421 85.1087 104.95 84.516 104.623 83.76C104.297 82.9947 104.133 82.108 104.133 81.1C104.133 80.092 104.297 79.21 104.623 78.454C104.95 77.6887 105.421 77.096 106.037 76.676C106.663 76.2467 107.405 76.032 108.263 76.032C109.122 76.032 109.855 76.2467 110.461 76.676C111.077 77.096 111.549 77.6887 111.875 78.454C112.202 79.21 112.365 80.092 112.365 81.1C112.365 82.108 112.202 82.9947 111.875 83.76C111.549 84.516 111.077 85.1087 110.461 85.538C109.855 85.958 109.122 86.168 108.263 86.168ZM108.249 85.132C108.809 85.132 109.309 84.9733 109.747 84.656C110.186 84.3293 110.531 83.8673 110.783 83.27C111.035 82.6633 111.161 81.94 111.161 81.1C111.161 80.26 111.035 79.5413 110.783 78.944C110.531 78.3373 110.186 77.8753 109.747 77.558C109.309 77.2407 108.809 77.082 108.249 77.082C107.689 77.082 107.185 77.2407 106.737 77.558C106.299 77.8753 105.953 78.3373 105.701 78.944C105.459 79.5413 105.337 80.26 105.337 81.1C105.337 81.94 105.459 82.6633 105.701 83.27C105.953 83.8673 106.299 84.3293 106.737 84.656C107.185 84.9733 107.689 85.132 108.249 85.132ZM117.554 86.168C116.695 86.168 115.953 85.958 115.328 85.538C114.712 85.1087 114.24 84.516 113.914 83.76C113.587 82.9947 113.424 82.108 113.424 81.1C113.424 80.092 113.587 79.21 113.914 78.454C114.24 77.6887 114.712 77.096 115.328 76.676C115.953 76.2467 116.695 76.032 117.554 76.032C118.412 76.032 119.145 76.2467 119.752 76.676C120.368 77.096 120.839 77.6887 121.166 78.454C121.492 79.21 121.656 80.092 121.656 81.1C121.656 82.108 121.492 82.9947 121.166 83.76C120.839 84.516 120.368 85.1087 119.752 85.538C119.145 85.958 118.412 86.168 117.554 86.168ZM117.54 85.132C118.1 85.132 118.599 84.9733 119.038 84.656C119.476 84.3293 119.822 83.8673 120.074 83.27C120.326 82.6633 120.452 81.94 120.452 81.1C120.452 80.26 120.326 79.5413 120.074 78.944C119.822 78.3373 119.476 77.8753 119.038 77.558C118.599 77.2407 118.1 77.082 117.54 77.082C116.98 77.082 116.476 77.2407 116.028 77.558C115.589 77.8753 115.244 78.3373 114.992 78.944C114.749 79.5413 114.628 80.26 114.628 81.1C114.628 81.94 114.749 82.6633 114.992 83.27C115.244 83.8673 115.589 84.3293 116.028 84.656C116.476 84.9733 116.98 85.132 117.54 85.132ZM125.36 84.992V78.888H126.41V84.992H125.36ZM122.686 82.43V81.436H129.084V82.43H122.686ZM133.878 89.08V78.944H134.942L135.04 80.092C135.189 79.868 135.381 79.658 135.614 79.462C135.847 79.2567 136.127 79.0933 136.454 78.972C136.781 78.8413 137.154 78.776 137.574 78.776C138.265 78.776 138.862 78.9393 139.366 79.266C139.879 79.5927 140.276 80.036 140.556 80.596C140.845 81.1467 140.99 81.7767 140.99 82.486C140.99 83.1953 140.845 83.83 140.556 84.39C140.276 84.9407 139.879 85.3747 139.366 85.692C138.853 86.0093 138.251 86.168 137.56 86.168C136.991 86.168 136.487 86.0513 136.048 85.818C135.619 85.5847 135.287 85.258 135.054 84.838V89.08H133.878ZM137.434 85.146C137.891 85.146 138.297 85.034 138.652 84.81C139.007 84.586 139.282 84.278 139.478 83.886C139.683 83.4847 139.786 83.0133 139.786 82.472C139.786 81.94 139.683 81.4733 139.478 81.072C139.282 80.6707 139.007 80.358 138.652 80.134C138.297 79.91 137.891 79.798 137.434 79.798C136.967 79.798 136.557 79.91 136.202 80.134C135.847 80.358 135.572 80.6707 135.376 81.072C135.18 81.4733 135.082 81.94 135.082 82.472C135.082 83.0133 135.18 83.4847 135.376 83.886C135.572 84.278 135.847 84.586 136.202 84.81C136.557 85.034 136.967 85.146 137.434 85.146ZM145.456 86.168C144.793 86.168 144.205 86.014 143.692 85.706C143.188 85.398 142.791 84.9687 142.502 84.418C142.212 83.858 142.068 83.2093 142.068 82.472C142.068 81.7253 142.208 81.0767 142.488 80.526C142.777 79.9753 143.178 79.546 143.692 79.238C144.214 78.93 144.812 78.776 145.484 78.776C146.174 78.776 146.758 78.93 147.234 79.238C147.719 79.546 148.088 79.952 148.34 80.456C148.601 80.9507 148.732 81.4967 148.732 82.094C148.732 82.1873 148.732 82.2853 148.732 82.388C148.732 82.4907 148.727 82.6073 148.718 82.738H142.95V81.828H147.584C147.556 81.184 147.341 80.68 146.94 80.316C146.548 79.952 146.053 79.77 145.456 79.77C145.054 79.77 144.681 79.8633 144.336 80.05C144 80.2273 143.729 80.4933 143.524 80.848C143.318 81.1933 143.216 81.6273 143.216 82.15V82.542C143.216 83.1207 143.318 83.606 143.524 83.998C143.738 84.39 144.014 84.684 144.35 84.88C144.695 85.076 145.064 85.174 145.456 85.174C145.95 85.174 146.356 85.0667 146.674 84.852C147 84.628 147.234 84.3293 147.374 83.956H148.536C148.424 84.376 148.228 84.754 147.948 85.09C147.668 85.426 147.318 85.692 146.898 85.888C146.487 86.0747 146.006 86.168 145.456 86.168ZM153.189 86.168C152.535 86.168 151.947 86.0187 151.425 85.72C150.902 85.412 150.491 84.9827 150.193 84.432C149.894 83.872 149.745 83.2233 149.745 82.486C149.745 81.73 149.894 81.0767 150.193 80.526C150.501 79.966 150.916 79.5367 151.439 79.238C151.971 78.93 152.563 78.776 153.217 78.776C153.889 78.776 154.481 78.93 154.995 79.238C155.517 79.5367 155.928 79.966 156.227 80.526C156.535 81.0767 156.689 81.7253 156.689 82.472C156.689 83.2187 156.535 83.872 156.227 84.432C155.919 84.9827 155.503 85.412 154.981 85.72C154.458 86.0187 153.861 86.168 153.189 86.168ZM153.203 85.16C153.604 85.16 153.977 85.062 154.323 84.866C154.668 84.6607 154.948 84.3573 155.163 83.956C155.377 83.5547 155.485 83.06 155.485 82.472C155.485 81.8747 155.377 81.38 155.163 80.988C154.957 80.5867 154.682 80.288 154.337 80.092C154.001 79.8867 153.627 79.784 153.217 79.784C152.825 79.784 152.451 79.8867 152.097 80.092C151.751 80.288 151.471 80.5867 151.257 80.988C151.051 81.38 150.949 81.8747 150.949 82.472C150.949 83.06 151.051 83.5547 151.257 83.956C151.471 84.3573 151.747 84.6607 152.083 84.866C152.428 85.062 152.801 85.16 153.203 85.16ZM158.057 89.08V78.944H159.121L159.219 80.092C159.369 79.868 159.56 79.658 159.793 79.462C160.027 79.2567 160.307 79.0933 160.633 78.972C160.96 78.8413 161.333 78.776 161.753 78.776C162.444 78.776 163.041 78.9393 163.545 79.266C164.059 79.5927 164.455 80.036 164.735 80.596C165.025 81.1467 165.169 81.7767 165.169 82.486C165.169 83.1953 165.025 83.83 164.735 84.39C164.455 84.9407 164.059 85.3747 163.545 85.692C163.032 86.0093 162.43 86.168 161.739 86.168C161.17 86.168 160.666 86.0513 160.227 85.818C159.798 85.5847 159.467 85.258 159.233 84.838V89.08H158.057ZM161.613 85.146C162.071 85.146 162.477 85.034 162.831 84.81C163.186 84.586 163.461 84.278 163.657 83.886C163.863 83.4847 163.965 83.0133 163.965 82.472C163.965 81.94 163.863 81.4733 163.657 81.072C163.461 80.6707 163.186 80.358 162.831 80.134C162.477 79.91 162.071 79.798 161.613 79.798C161.147 79.798 160.736 79.91 160.381 80.134C160.027 80.358 159.751 80.6707 159.555 81.072C159.359 81.4733 159.261 81.94 159.261 82.472C159.261 83.0133 159.359 83.4847 159.555 83.886C159.751 84.278 160.027 84.586 160.381 84.81C160.736 85.034 161.147 85.146 161.613 85.146ZM166.541 86V75.92H167.717V86H166.541ZM172.472 86.168C171.81 86.168 171.222 86.014 170.708 85.706C170.204 85.398 169.808 84.9687 169.518 84.418C169.229 83.858 169.084 83.2093 169.084 82.472C169.084 81.7253 169.224 81.0767 169.504 80.526C169.794 79.9753 170.195 79.546 170.708 79.238C171.231 78.93 171.828 78.776 172.5 78.776C173.191 78.776 173.774 78.93 174.25 79.238C174.736 79.546 175.104 79.952 175.356 80.456C175.618 80.9507 175.748 81.4967 175.748 82.094C175.748 82.1873 175.748 82.2853 175.748 82.388C175.748 82.4907 175.744 82.6073 175.734 82.738H169.966V81.828H174.6C174.572 81.184 174.358 80.68 173.956 80.316C173.564 79.952 173.07 79.77 172.472 79.77C172.071 79.77 171.698 79.8633 171.352 80.05C171.016 80.2273 170.746 80.4933 170.54 80.848C170.335 81.1933 170.232 81.6273 170.232 82.15V82.542C170.232 83.1207 170.335 83.606 170.54 83.998C170.755 84.39 171.03 84.684 171.366 84.88C171.712 85.076 172.08 85.174 172.472 85.174C172.967 85.174 173.373 85.0667 173.69 84.852C174.017 84.628 174.25 84.3293 174.39 83.956H175.552C175.44 84.376 175.244 84.754 174.964 85.09C174.684 85.426 174.334 85.692 173.914 85.888C173.504 86.0747 173.023 86.168 172.472 86.168ZM38.19 104V96.944H39.366V104H38.19ZM38.778 95.446C38.5447 95.446 38.3487 95.3713 38.19 95.222C38.0407 95.0633 37.966 94.8673 37.966 94.634C37.966 94.4007 38.0407 94.214 38.19 94.074C38.3487 93.9247 38.5447 93.85 38.778 93.85C39.002 93.85 39.1933 93.9247 39.352 94.074C39.5107 94.214 39.59 94.4007 39.59 94.634C39.59 94.8673 39.5107 95.0633 39.352 95.222C39.1933 95.3713 39.002 95.446 38.778 95.446ZM41.1613 104V96.944H42.2253L42.2813 98.176C42.5053 97.7373 42.8226 97.3967 43.2333 97.154C43.6533 96.902 44.1293 96.776 44.6613 96.776C45.212 96.776 45.688 96.888 46.0893 97.112C46.4906 97.3267 46.8033 97.658 47.0273 98.106C47.2513 98.5447 47.3633 99.1047 47.3633 99.786V104H46.1873V99.912C46.1873 99.2027 46.0286 98.6707 45.7113 98.316C45.4033 97.9613 44.9646 97.784 44.3953 97.784C44.0033 97.784 43.6533 97.882 43.3453 98.078C43.0373 98.2647 42.79 98.54 42.6033 98.904C42.426 99.2587 42.3373 99.702 42.3373 100.234V104H41.1613ZM50.8136 104L48.1396 96.944H49.3716L51.4996 102.866L53.6416 96.944H54.8456L52.1716 104H50.8136ZM55.9984 104V96.944H57.1744V104H55.9984ZM56.5864 95.446C56.3531 95.446 56.1571 95.3713 55.9984 95.222C55.8491 95.0633 55.7744 94.8673 55.7744 94.634C55.7744 94.4007 55.8491 94.214 55.9984 94.074C56.1571 93.9247 56.3531 93.85 56.5864 93.85C56.8104 93.85 57.0018 93.9247 57.1604 94.074C57.3191 94.214 57.3984 94.4007 57.3984 94.634C57.3984 94.8673 57.3191 95.0633 57.1604 95.222C57.0018 95.3713 56.8104 95.446 56.5864 95.446ZM61.7417 104C61.3217 104 60.9577 103.935 60.6497 103.804C60.3417 103.673 60.1037 103.454 59.9357 103.146C59.7771 102.829 59.6977 102.404 59.6977 101.872V97.938H58.4657V96.944H59.6977L59.8517 95.236H60.8737V96.944H62.9177V97.938H60.8737V101.872C60.8737 102.311 60.9624 102.609 61.1397 102.768C61.3171 102.917 61.6297 102.992 62.0777 102.992H62.8337V104H61.7417ZM67.0747 104.168C66.4121 104.168 65.8241 104.014 65.3107 103.706C64.8067 103.398 64.4101 102.969 64.1207 102.418C63.8314 101.858 63.6867 101.209 63.6867 100.472C63.6867 99.7253 63.8267 99.0767 64.1067 98.526C64.3961 97.9753 64.7974 97.546 65.3107 97.238C65.8334 96.93 66.4307 96.776 67.1027 96.776C67.7934 96.776 68.3767 96.93 68.8527 97.238C69.3381 97.546 69.7067 97.952 69.9587 98.456C70.2201 98.9507 70.3507 99.4967 70.3507 100.094C70.3507 100.187 70.3507 100.285 70.3507 100.388C70.3507 100.491 70.3461 100.607 70.3367 100.738H64.5687V99.828H69.2027C69.1747 99.184 68.9601 98.68 68.5587 98.316C68.1667 97.952 67.6721 97.77 67.0747 97.77C66.6734 97.77 66.3001 97.8633 65.9547 98.05C65.6187 98.2273 65.3481 98.4933 65.1427 98.848C64.9374 99.1933 64.8347 99.6273 64.8347 100.15V100.542C64.8347 101.121 64.9374 101.606 65.1427 101.998C65.3574 102.39 65.6327 102.684 65.9687 102.88C66.3141 103.076 66.6827 103.174 67.0747 103.174C67.5694 103.174 67.9754 103.067 68.2927 102.852C68.6194 102.628 68.8527 102.329 68.9927 101.956H70.1547C70.0427 102.376 69.8467 102.754 69.5667 103.09C69.2867 103.426 68.9367 103.692 68.5167 103.888C68.1061 104.075 67.6254 104.168 67.0747 104.168ZM74.7658 104.168C74.0844 104.168 73.4871 104.009 72.9738 103.692C72.4604 103.365 72.0638 102.922 71.7838 102.362C71.5038 101.802 71.3638 101.167 71.3638 100.458C71.3638 99.7487 71.5038 99.1187 71.7838 98.568C72.0638 98.008 72.4604 97.5693 72.9738 97.252C73.4964 96.9347 74.0984 96.776 74.7798 96.776C75.3584 96.776 75.8624 96.8927 76.2918 97.126C76.7304 97.3593 77.0664 97.686 77.2998 98.106V93.92H78.4758V104H77.4118L77.3138 102.838C77.1644 103.071 76.9731 103.291 76.7398 103.496C76.5064 103.692 76.2264 103.855 75.8998 103.986C75.5731 104.107 75.1951 104.168 74.7658 104.168ZM74.9058 103.146C75.3724 103.146 75.7831 103.034 76.1378 102.81C76.4924 102.586 76.7678 102.278 76.9638 101.886C77.1598 101.485 77.2578 101.013 77.2578 100.472C77.2578 99.94 77.1598 99.4733 76.9638 99.072C76.7678 98.6707 76.4924 98.358 76.1378 98.134C75.7831 97.91 75.3724 97.798 74.9058 97.798C74.4484 97.798 74.0424 97.91 73.6878 98.134C73.3331 98.358 73.0578 98.6707 72.8618 99.072C72.6658 99.4733 72.5678 99.94 72.5678 100.472C72.5678 101.013 72.6658 101.485 72.8618 101.886C73.0578 102.278 73.3331 102.586 73.6878 102.81C74.0424 103.034 74.4484 103.146 74.9058 103.146ZM86.3659 104C85.9459 104 85.5819 103.935 85.2739 103.804C84.9659 103.673 84.7279 103.454 84.5599 103.146C84.4012 102.829 84.3219 102.404 84.3219 101.872V97.938H83.0899V96.944H84.3219L84.4759 95.236H85.4979V96.944H87.5419V97.938H85.4979V101.872C85.4979 102.311 85.5865 102.609 85.7639 102.768C85.9412 102.917 86.2539 102.992 86.7019 102.992H87.4579V104H86.3659ZM91.7549 104.168C91.1015 104.168 90.5135 104.019 89.9909 103.72C89.4682 103.412 89.0575 102.983 88.7589 102.432C88.4602 101.872 88.3109 101.223 88.3109 100.486C88.3109 99.73 88.4602 99.0767 88.7589 98.526C89.0669 97.966 89.4822 97.5367 90.0049 97.238C90.5369 96.93 91.1295 96.776 91.7829 96.776C92.4549 96.776 93.0475 96.93 93.5609 97.238C94.0835 97.5367 94.4942 97.966 94.7929 98.526C95.1009 99.0767 95.2549 99.7253 95.2549 100.472C95.2549 101.219 95.1009 101.872 94.7929 102.432C94.4849 102.983 94.0695 103.412 93.5469 103.72C93.0242 104.019 92.4269 104.168 91.7549 104.168ZM91.7689 103.16C92.1702 103.16 92.5435 103.062 92.8889 102.866C93.2342 102.661 93.5142 102.357 93.7289 101.956C93.9435 101.555 94.0509 101.06 94.0509 100.472C94.0509 99.8747 93.9435 99.38 93.7289 98.988C93.5235 98.5867 93.2482 98.288 92.9029 98.092C92.5669 97.8867 92.1935 97.784 91.7829 97.784C91.3909 97.784 91.0175 97.8867 90.6629 98.092C90.3175 98.288 90.0375 98.5867 89.8229 98.988C89.6175 99.38 89.5149 99.8747 89.5149 100.472C89.5149 101.06 89.6175 101.555 89.8229 101.956C90.0375 102.357 90.3129 102.661 90.6489 102.866C90.9942 103.062 91.3675 103.16 91.7689 103.16ZM103.156 104.168C102.494 104.168 101.906 104.014 101.392 103.706C100.888 103.398 100.492 102.969 100.202 102.418C99.9131 101.858 99.7685 101.209 99.7685 100.472C99.7685 99.7253 99.9085 99.0767 100.188 98.526C100.478 97.9753 100.879 97.546 101.392 97.238C101.915 96.93 102.512 96.776 103.184 96.776C103.875 96.776 104.458 96.93 104.934 97.238C105.42 97.546 105.788 97.952 106.04 98.456C106.302 98.9507 106.432 99.4967 106.432 100.094C106.432 100.187 106.432 100.285 106.432 100.388C106.432 100.491 106.428 100.607 106.418 100.738H100.65V99.828H105.284C105.256 99.184 105.042 98.68 104.64 98.316C104.248 97.952 103.754 97.77 103.156 97.77C102.755 97.77 102.382 97.8633 102.036 98.05C101.7 98.2273 101.43 98.4933 101.224 98.848C101.019 99.1933 100.916 99.6273 100.916 100.15V100.542C100.916 101.121 101.019 101.606 101.224 101.998C101.439 102.39 101.714 102.684 102.05 102.88C102.396 103.076 102.764 103.174 103.156 103.174C103.651 103.174 104.057 103.067 104.374 102.852C104.701 102.628 104.934 102.329 105.074 101.956H106.236C106.124 102.376 105.928 102.754 105.648 103.09C105.368 103.426 105.018 103.692 104.598 103.888C104.188 104.075 103.707 104.168 103.156 104.168ZM107.739 104V96.944H108.803L108.859 98.176C109.083 97.7373 109.401 97.3967 109.811 97.154C110.231 96.902 110.707 96.776 111.239 96.776C111.79 96.776 112.266 96.888 112.667 97.112C113.069 97.3267 113.381 97.658 113.605 98.106C113.829 98.5447 113.941 99.1047 113.941 99.786V104H112.765V99.912C112.765 99.2027 112.607 98.6707 112.289 98.316C111.981 97.9613 111.543 97.784 110.973 97.784C110.581 97.784 110.231 97.882 109.923 98.078C109.615 98.2647 109.368 98.54 109.181 98.904C109.004 99.2587 108.915 99.702 108.915 100.234V104H107.739ZM115.499 104V96.944H116.563L116.647 98.288C116.805 97.9707 117.006 97.7 117.249 97.476C117.501 97.252 117.799 97.0793 118.145 96.958C118.499 96.8367 118.901 96.776 119.349 96.776V98.008H118.915C118.616 98.008 118.331 98.05 118.061 98.134C117.79 98.2087 117.547 98.3347 117.333 98.512C117.127 98.6893 116.964 98.932 116.843 99.24C116.731 99.5387 116.675 99.912 116.675 100.36V104H115.499ZM123.29 104.168C122.637 104.168 122.049 104.019 121.526 103.72C121.004 103.412 120.593 102.983 120.294 102.432C119.996 101.872 119.846 101.223 119.846 100.486C119.846 99.73 119.996 99.0767 120.294 98.526C120.602 97.966 121.018 97.5367 121.54 97.238C122.072 96.93 122.665 96.776 123.318 96.776C123.99 96.776 124.583 96.93 125.096 97.238C125.619 97.5367 126.03 97.966 126.328 98.526C126.636 99.0767 126.79 99.7253 126.79 100.472C126.79 101.219 126.636 101.872 126.328 102.432C126.02 102.983 125.605 103.412 125.082 103.72C124.56 104.019 123.962 104.168 123.29 104.168ZM123.304 103.16C123.706 103.16 124.079 103.062 124.424 102.866C124.77 102.661 125.05 102.357 125.264 101.956C125.479 101.555 125.586 101.06 125.586 100.472C125.586 99.8747 125.479 99.38 125.264 98.988C125.059 98.5867 124.784 98.288 124.438 98.092C124.102 97.8867 123.729 97.784 123.318 97.784C122.926 97.784 122.553 97.8867 122.198 98.092C121.853 98.288 121.573 98.5867 121.358 98.988C121.153 99.38 121.05 99.8747 121.05 100.472C121.05 101.06 121.153 101.555 121.358 101.956C121.573 102.357 121.848 102.661 122.184 102.866C122.53 103.062 122.903 103.16 123.304 103.16ZM128.159 104V93.92H129.335V104H128.159ZM130.996 104V93.92H132.172V104H130.996ZM137.384 104V96.944H138.56V104H137.384ZM137.972 95.446C137.739 95.446 137.543 95.3713 137.384 95.222C137.235 95.0633 137.16 94.8673 137.16 94.634C137.16 94.4007 137.235 94.214 137.384 94.074C137.543 93.9247 137.739 93.85 137.972 93.85C138.196 93.85 138.388 93.9247 138.546 94.074C138.705 94.214 138.784 94.4007 138.784 94.634C138.784 94.8673 138.705 95.0633 138.546 95.222C138.388 95.3713 138.196 95.446 137.972 95.446ZM140.356 104V96.944H141.42L141.476 98.176C141.7 97.7373 142.017 97.3967 142.428 97.154C142.848 96.902 143.324 96.776 143.856 96.776C144.406 96.776 144.882 96.888 145.284 97.112C145.685 97.3267 145.998 97.658 146.222 98.106C146.446 98.5447 146.558 99.1047 146.558 99.786V104H145.382V99.912C145.382 99.2027 145.223 98.6707 144.906 98.316C144.598 97.9613 144.159 97.784 143.59 97.784C143.198 97.784 142.848 97.882 142.54 98.078C142.232 98.2647 141.984 98.54 141.798 98.904C141.62 99.2587 141.532 99.702 141.532 100.234V104H140.356ZM155.879 104.168C154.927 104.168 154.101 103.958 153.401 103.538C152.711 103.109 152.179 102.516 151.805 101.76C151.432 100.995 151.245 100.108 151.245 99.1C151.245 98.092 151.432 97.21 151.805 96.454C152.179 95.6887 152.711 95.096 153.401 94.676C154.101 94.2467 154.927 94.032 155.879 94.032C156.999 94.032 157.909 94.298 158.609 94.83C159.309 95.362 159.757 96.1133 159.953 97.084H158.651C158.502 96.4773 158.199 95.992 157.741 95.628C157.284 95.2547 156.663 95.068 155.879 95.068C155.179 95.068 154.573 95.2313 154.059 95.558C153.546 95.8753 153.149 96.3373 152.869 96.944C152.589 97.5413 152.449 98.26 152.449 99.1C152.449 99.94 152.589 100.663 152.869 101.27C153.149 101.867 153.546 102.329 154.059 102.656C154.573 102.973 155.179 103.132 155.879 103.132C156.663 103.132 157.284 102.955 157.741 102.6C158.199 102.236 158.502 101.755 158.651 101.158H159.953C159.757 102.101 159.309 102.838 158.609 103.37C157.909 103.902 156.999 104.168 155.879 104.168ZM161.379 104V94.2H162.555V104H161.379ZM164.38 104V94.2H167.544C168.309 94.2 168.935 94.3307 169.42 94.592C169.905 94.844 170.265 95.1847 170.498 95.614C170.731 96.0433 170.848 96.5287 170.848 97.07C170.848 97.5927 170.727 98.0733 170.484 98.512C170.251 98.9507 169.887 99.3007 169.392 99.562C168.897 99.8233 168.263 99.954 167.488 99.954H165.556V104H164.38ZM169.56 104L167.404 99.618H168.72L170.946 104H169.56ZM165.556 99.03H167.46C168.207 99.03 168.753 98.848 169.098 98.484C169.453 98.12 169.63 97.6533 169.63 97.084C169.63 96.5053 169.457 96.048 169.112 95.712C168.776 95.3667 168.221 95.194 167.446 95.194H165.556V99.03ZM176.668 104.168C175.716 104.168 174.89 103.958 174.19 103.538C173.5 103.109 172.968 102.516 172.594 101.76C172.221 100.995 172.034 100.108 172.034 99.1C172.034 98.092 172.221 97.21 172.594 96.454C172.968 95.6887 173.5 95.096 174.19 94.676C174.89 94.2467 175.716 94.032 176.668 94.032C177.788 94.032 178.698 94.298 179.398 94.83C180.098 95.362 180.546 96.1133 180.742 97.084H179.44C179.291 96.4773 178.988 95.992 178.53 95.628C178.073 95.2547 177.452 95.068 176.668 95.068C175.968 95.068 175.362 95.2313 174.848 95.558C174.335 95.8753 173.938 96.3373 173.658 96.944C173.378 97.5413 173.238 98.26 173.238 99.1C173.238 99.94 173.378 100.663 173.658 101.27C173.938 101.867 174.335 102.329 174.848 102.656C175.362 102.973 175.968 103.132 176.668 103.132C177.452 103.132 178.073 102.955 178.53 102.6C178.988 102.236 179.291 101.755 179.44 101.158H180.742C180.546 102.101 180.098 102.838 179.398 103.37C178.698 103.902 177.788 104.168 176.668 104.168ZM181.305 104L184.917 94.2H186.163L189.761 104H188.515L185.533 95.67L182.537 104H181.305ZM182.957 101.48L183.293 100.528H187.731L188.067 101.48H182.957Z" fill="#2C2C2C"/>
<path d="M66.7381 132V121.92H68.6281V132H66.7381ZM73.5786 132.168C72.8692 132.168 72.2392 132.019 71.6886 131.72C71.1472 131.412 70.7226 130.987 70.4146 130.446C70.1159 129.895 69.9666 129.261 69.9666 128.542C69.9666 127.805 70.1159 127.156 70.4146 126.596C70.7226 126.027 71.1472 125.583 71.6886 125.266C72.2299 124.939 72.8599 124.776 73.5786 124.776C74.2786 124.776 74.8899 124.93 75.4126 125.238C75.9352 125.546 76.3412 125.961 76.6306 126.484C76.9199 127.007 77.0646 127.599 77.0646 128.262C77.0646 128.355 77.0646 128.463 77.0646 128.584C77.0646 128.696 77.0552 128.813 77.0366 128.934H71.3106V127.786H75.1606C75.1326 127.329 74.9692 126.969 74.6706 126.708C74.3812 126.447 74.0172 126.316 73.5786 126.316C73.2612 126.316 72.9672 126.391 72.6966 126.54C72.4259 126.68 72.2112 126.899 72.0526 127.198C71.9032 127.497 71.8286 127.875 71.8286 128.332V128.738C71.8286 129.121 71.8986 129.457 72.0386 129.746C72.1879 130.026 72.3932 130.245 72.6546 130.404C72.9159 130.553 73.2192 130.628 73.5646 130.628C73.9099 130.628 74.1946 130.553 74.4186 130.404C74.6519 130.255 74.8246 130.063 74.9366 129.83H76.8686C76.7379 130.269 76.5186 130.665 76.2106 131.02C75.9026 131.375 75.5246 131.655 75.0766 131.86C74.6286 132.065 74.1292 132.168 73.5786 132.168ZM81.2164 132.168C80.5724 132.168 80.0124 132.065 79.5364 131.86C79.0604 131.655 78.6871 131.37 78.4164 131.006C78.1458 130.642 77.9918 130.231 77.9544 129.774H79.8304C79.8771 129.951 79.9564 130.115 80.0684 130.264C80.1804 130.404 80.3298 130.516 80.5164 130.6C80.7031 130.684 80.9271 130.726 81.1884 130.726C81.4404 130.726 81.6458 130.693 81.8044 130.628C81.9631 130.553 82.0798 130.455 82.1544 130.334C82.2384 130.213 82.2804 130.087 82.2804 129.956C82.2804 129.76 82.2244 129.611 82.1124 129.508C82.0004 129.396 81.8371 129.307 81.6224 129.242C81.4078 129.177 81.1464 129.111 80.8384 129.046C80.5024 128.981 80.1711 128.901 79.8444 128.808C79.5271 128.705 79.2424 128.579 78.9904 128.43C78.7384 128.281 78.5378 128.089 78.3884 127.856C78.2391 127.623 78.1644 127.333 78.1644 126.988C78.1644 126.568 78.2764 126.195 78.5004 125.868C78.7244 125.532 79.0511 125.266 79.4804 125.07C79.9098 124.874 80.4278 124.776 81.0344 124.776C81.8838 124.776 82.5558 124.967 83.0504 125.35C83.5451 125.733 83.8391 126.26 83.9324 126.932H82.1544C82.0984 126.717 81.9724 126.549 81.7764 126.428C81.5898 126.297 81.3378 126.232 81.0204 126.232C80.6844 126.232 80.4278 126.293 80.2504 126.414C80.0731 126.535 79.9844 126.694 79.9844 126.89C79.9844 127.021 80.0404 127.137 80.1524 127.24C80.2738 127.343 80.4418 127.431 80.6564 127.506C80.8711 127.571 81.1324 127.637 81.4404 127.702C81.9818 127.814 82.4578 127.945 82.8684 128.094C83.2791 128.234 83.6011 128.439 83.8344 128.71C84.0678 128.971 84.1844 129.354 84.1844 129.858C84.1844 130.306 84.0631 130.707 83.8204 131.062C83.5778 131.407 83.2324 131.678 82.7844 131.874C82.3458 132.07 81.8231 132.168 81.2164 132.168ZM88.3876 132.168C87.7436 132.168 87.1836 132.065 86.7076 131.86C86.2316 131.655 85.8583 131.37 85.5876 131.006C85.3169 130.642 85.1629 130.231 85.1256 129.774H87.0016C87.0483 129.951 87.1276 130.115 87.2396 130.264C87.3516 130.404 87.5009 130.516 87.6876 130.6C87.8743 130.684 88.0983 130.726 88.3596 130.726C88.6116 130.726 88.8169 130.693 88.9756 130.628C89.1343 130.553 89.2509 130.455 89.3256 130.334C89.4096 130.213 89.4516 130.087 89.4516 129.956C89.4516 129.76 89.3956 129.611 89.2836 129.508C89.1716 129.396 89.0083 129.307 88.7936 129.242C88.5789 129.177 88.3176 129.111 88.0096 129.046C87.6736 128.981 87.3423 128.901 87.0156 128.808C86.6983 128.705 86.4136 128.579 86.1616 128.43C85.9096 128.281 85.7089 128.089 85.5596 127.856C85.4103 127.623 85.3356 127.333 85.3356 126.988C85.3356 126.568 85.4476 126.195 85.6716 125.868C85.8956 125.532 86.2223 125.266 86.6516 125.07C87.0809 124.874 87.5989 124.776 88.2056 124.776C89.0549 124.776 89.7269 124.967 90.2216 125.35C90.7163 125.733 91.0103 126.26 91.1036 126.932H89.3256C89.2696 126.717 89.1436 126.549 88.9476 126.428C88.7609 126.297 88.5089 126.232 88.1916 126.232C87.8556 126.232 87.5989 126.293 87.4216 126.414C87.2443 126.535 87.1556 126.694 87.1556 126.89C87.1556 127.021 87.2116 127.137 87.3236 127.24C87.4449 127.343 87.6129 127.431 87.8276 127.506C88.0423 127.571 88.3036 127.637 88.6116 127.702C89.1529 127.814 89.6289 127.945 90.0396 128.094C90.4503 128.234 90.7723 128.439 91.0056 128.71C91.2389 128.971 91.3556 129.354 91.3556 129.858C91.3556 130.306 91.2343 130.707 90.9916 131.062C90.7489 131.407 90.4036 131.678 89.9556 131.874C89.5169 132.07 88.9943 132.168 88.3876 132.168ZM98.8677 132C98.373 132 97.939 131.925 97.5657 131.776C97.2017 131.617 96.917 131.361 96.7117 131.006C96.5064 130.642 96.4037 130.147 96.4037 129.522V126.526H95.1997V124.944H96.4037L96.6137 123.026H98.2937V124.944H100.156V126.526H98.2937V129.55C98.2937 129.867 98.3637 130.087 98.5037 130.208C98.6437 130.329 98.8817 130.39 99.2177 130.39H100.142V132H98.8677ZM101.466 132V121.92H103.356V125.994C103.59 125.621 103.898 125.327 104.28 125.112C104.672 124.888 105.125 124.776 105.638 124.776C106.226 124.776 106.721 124.902 107.122 125.154C107.524 125.397 107.827 125.751 108.032 126.218C108.238 126.685 108.34 127.263 108.34 127.954V132H106.464V128.122C106.464 127.562 106.348 127.133 106.114 126.834C105.881 126.526 105.512 126.372 105.008 126.372C104.7 126.372 104.42 126.447 104.168 126.596C103.916 126.745 103.716 126.965 103.566 127.254C103.426 127.534 103.356 127.87 103.356 128.262V132H101.466ZM112.221 132.168C111.633 132.168 111.147 132.075 110.765 131.888C110.382 131.692 110.097 131.435 109.911 131.118C109.733 130.791 109.645 130.432 109.645 130.04C109.645 129.611 109.752 129.233 109.967 128.906C110.191 128.579 110.522 128.323 110.961 128.136C111.409 127.949 111.969 127.856 112.641 127.856H114.391C114.391 127.511 114.344 127.226 114.251 127.002C114.157 126.769 114.013 126.596 113.817 126.484C113.621 126.372 113.359 126.316 113.033 126.316C112.678 126.316 112.375 126.395 112.123 126.554C111.88 126.703 111.731 126.937 111.675 127.254H109.841C109.887 126.75 110.051 126.316 110.331 125.952C110.62 125.579 110.998 125.289 111.465 125.084C111.941 124.879 112.468 124.776 113.047 124.776C113.709 124.776 114.283 124.888 114.769 125.112C115.254 125.336 115.627 125.658 115.889 126.078C116.15 126.498 116.281 127.016 116.281 127.632V132H114.685L114.475 130.922C114.372 131.109 114.251 131.277 114.111 131.426C113.971 131.575 113.807 131.706 113.621 131.818C113.434 131.93 113.224 132.014 112.991 132.07C112.757 132.135 112.501 132.168 112.221 132.168ZM112.669 130.712C112.911 130.712 113.126 130.67 113.313 130.586C113.509 130.493 113.677 130.371 113.817 130.222C113.957 130.063 114.064 129.886 114.139 129.69C114.223 129.485 114.279 129.265 114.307 129.032V129.018H112.865C112.575 129.018 112.337 129.055 112.151 129.13C111.973 129.195 111.843 129.293 111.759 129.424C111.675 129.555 111.633 129.704 111.633 129.872C111.633 130.059 111.675 130.213 111.759 130.334C111.843 130.455 111.964 130.549 112.123 130.614C112.281 130.679 112.463 130.712 112.669 130.712ZM117.764 132V124.944H119.43L119.57 126.092C119.784 125.7 120.088 125.383 120.48 125.14C120.881 124.897 121.357 124.776 121.908 124.776C122.496 124.776 122.99 124.897 123.392 125.14C123.793 125.383 124.096 125.737 124.302 126.204C124.516 126.671 124.624 127.245 124.624 127.926V132H122.748V128.108C122.748 127.548 122.626 127.119 122.384 126.82C122.15 126.521 121.786 126.372 121.292 126.372C120.974 126.372 120.69 126.447 120.438 126.596C120.195 126.745 120.004 126.96 119.864 127.24C119.724 127.511 119.654 127.842 119.654 128.234V132H117.764ZM128.915 132V130.614C129.513 130.138 130.091 129.662 130.651 129.186C131.221 128.71 131.729 128.239 132.177 127.772C132.625 127.296 132.98 126.834 133.241 126.386C133.503 125.938 133.633 125.504 133.633 125.084C133.633 124.823 133.587 124.585 133.493 124.37C133.4 124.146 133.251 123.969 133.045 123.838C132.849 123.698 132.588 123.628 132.261 123.628C131.935 123.628 131.659 123.703 131.435 123.852C131.211 124.001 131.043 124.202 130.931 124.454C130.819 124.697 130.763 124.972 130.763 125.28H128.929C128.957 124.561 129.121 123.959 129.419 123.474C129.718 122.989 130.119 122.629 130.623 122.396C131.127 122.153 131.692 122.032 132.317 122.032C133.008 122.032 133.591 122.163 134.067 122.424C134.543 122.676 134.903 123.021 135.145 123.46C135.397 123.899 135.523 124.403 135.523 124.972C135.523 125.401 135.444 125.821 135.285 126.232C135.136 126.643 134.921 127.044 134.641 127.436C134.371 127.819 134.063 128.187 133.717 128.542C133.372 128.897 133.013 129.237 132.639 129.564C132.266 129.881 131.902 130.18 131.547 130.46H135.761V132H128.915ZM140.889 132.168C140.002 132.168 139.237 131.953 138.593 131.524C137.949 131.095 137.454 130.502 137.109 129.746C136.773 128.981 136.605 128.099 136.605 127.1C136.605 126.101 136.773 125.224 137.109 124.468C137.454 123.703 137.944 123.105 138.579 122.676C139.223 122.247 139.993 122.032 140.889 122.032C141.785 122.032 142.55 122.247 143.185 122.676C143.829 123.105 144.319 123.703 144.655 124.468C145 125.224 145.173 126.101 145.173 127.1C145.173 128.099 145 128.981 144.655 129.746C144.319 130.502 143.829 131.095 143.185 131.524C142.55 131.953 141.785 132.168 140.889 132.168ZM140.889 130.474C141.355 130.474 141.766 130.339 142.121 130.068C142.475 129.788 142.751 129.396 142.947 128.892C143.152 128.388 143.255 127.791 143.255 127.1C143.255 126.4 143.152 125.803 142.947 125.308C142.751 124.804 142.475 124.417 142.121 124.146C141.766 123.875 141.355 123.74 140.889 123.74C140.422 123.74 140.011 123.875 139.657 124.146C139.302 124.417 139.022 124.804 138.817 125.308C138.621 125.803 138.523 126.4 138.523 127.1C138.523 127.791 138.621 128.388 138.817 128.892C139.022 129.396 139.302 129.788 139.657 130.068C140.011 130.339 140.422 130.474 140.889 130.474ZM148.156 132L153.658 122.2H155.492L149.99 132H148.156ZM155.156 132.168C154.699 132.168 154.283 132.07 153.91 131.874C153.546 131.669 153.257 131.379 153.042 131.006C152.827 130.623 152.72 130.175 152.72 129.662C152.72 129.139 152.827 128.691 153.042 128.318C153.257 127.945 153.546 127.66 153.91 127.464C154.283 127.259 154.699 127.156 155.156 127.156C155.613 127.156 156.024 127.259 156.388 127.464C156.752 127.66 157.041 127.945 157.256 128.318C157.471 128.691 157.578 129.139 157.578 129.662C157.578 130.175 157.471 130.623 157.256 131.006C157.041 131.379 156.752 131.669 156.388 131.874C156.024 132.07 155.613 132.168 155.156 132.168ZM155.142 130.866C155.329 130.866 155.492 130.819 155.632 130.726C155.772 130.633 155.884 130.497 155.968 130.32C156.052 130.143 156.094 129.923 156.094 129.662C156.094 129.391 156.052 129.167 155.968 128.99C155.893 128.803 155.781 128.663 155.632 128.57C155.492 128.477 155.329 128.43 155.142 128.43C154.965 128.43 154.801 128.477 154.652 128.57C154.512 128.663 154.4 128.803 154.316 128.99C154.232 129.167 154.19 129.391 154.19 129.662C154.19 129.923 154.232 130.143 154.316 130.32C154.4 130.497 154.512 130.633 154.652 130.726C154.801 130.819 154.965 130.866 155.142 130.866ZM148.562 127.058C148.114 127.058 147.703 126.955 147.33 126.75C146.966 126.545 146.672 126.255 146.448 125.882C146.233 125.509 146.126 125.065 146.126 124.552C146.126 124.02 146.233 123.572 146.448 123.208C146.672 122.835 146.966 122.545 147.33 122.34C147.703 122.135 148.119 122.032 148.576 122.032C149.033 122.032 149.439 122.135 149.794 122.34C150.158 122.545 150.447 122.835 150.662 123.208C150.886 123.572 150.998 124.02 150.998 124.552C150.998 125.065 150.886 125.509 150.662 125.882C150.447 126.255 150.158 126.545 149.794 126.75C149.43 126.955 149.019 127.058 148.562 127.058ZM148.562 125.756C148.739 125.756 148.898 125.709 149.038 125.616C149.187 125.523 149.304 125.387 149.388 125.21C149.472 125.033 149.514 124.813 149.514 124.552C149.514 124.272 149.472 124.043 149.388 123.866C149.304 123.689 149.187 123.553 149.038 123.46C148.898 123.367 148.739 123.32 148.562 123.32C148.385 123.32 148.221 123.367 148.072 123.46C147.932 123.553 147.82 123.693 147.736 123.88C147.652 124.057 147.61 124.281 147.61 124.552C147.61 124.813 147.652 125.033 147.736 125.21C147.82 125.387 147.932 125.523 148.072 125.616C148.221 125.709 148.385 125.756 148.562 125.756ZM56.3412 150.168C55.7532 150.168 55.2679 150.075 54.8852 149.888C54.5026 149.692 54.2179 149.435 54.0312 149.118C53.8539 148.791 53.7652 148.432 53.7652 148.04C53.7652 147.611 53.8726 147.233 54.0872 146.906C54.3112 146.579 54.6426 146.323 55.0812 146.136C55.5292 145.949 56.0892 145.856 56.7612 145.856H58.5112C58.5112 145.511 58.4646 145.226 58.3712 145.002C58.2779 144.769 58.1332 144.596 57.9372 144.484C57.7412 144.372 57.4799 144.316 57.1532 144.316C56.7986 144.316 56.4952 144.395 56.2432 144.554C56.0006 144.703 55.8512 144.937 55.7952 145.254H53.9612C54.0079 144.75 54.1712 144.316 54.4512 143.952C54.7406 143.579 55.1186 143.289 55.5852 143.084C56.0612 142.879 56.5886 142.776 57.1672 142.776C57.8299 142.776 58.4039 142.888 58.8892 143.112C59.3746 143.336 59.7479 143.658 60.0092 144.078C60.2706 144.498 60.4012 145.016 60.4012 145.632V150H58.8052L58.5952 148.922C58.4926 149.109 58.3712 149.277 58.2312 149.426C58.0912 149.575 57.9279 149.706 57.7412 149.818C57.5546 149.93 57.3446 150.014 57.1112 150.07C56.8779 150.135 56.6212 150.168 56.3412 150.168ZM56.7892 148.712C57.0319 148.712 57.2466 148.67 57.4332 148.586C57.6292 148.493 57.7972 148.371 57.9372 148.222C58.0772 148.063 58.1846 147.886 58.2592 147.69C58.3432 147.485 58.3992 147.265 58.4272 147.032V147.018H56.9852C56.6959 147.018 56.4579 147.055 56.2712 147.13C56.0939 147.195 55.9632 147.293 55.8792 147.424C55.7952 147.555 55.7532 147.704 55.7532 147.872C55.7532 148.059 55.7952 148.213 55.8792 148.334C55.9632 148.455 56.0846 148.549 56.2432 148.614C56.4019 148.679 56.5839 148.712 56.7892 148.712ZM65.3004 150.168C64.591 150.168 63.961 150.009 63.4104 149.692C62.8597 149.375 62.4304 148.941 62.1224 148.39C61.8144 147.839 61.6604 147.209 61.6604 146.5C61.6604 145.772 61.8144 145.133 62.1224 144.582C62.4304 144.022 62.8597 143.583 63.4104 143.266C63.961 142.939 64.591 142.776 65.3004 142.776C66.2057 142.776 66.9664 143.014 67.5824 143.49C68.1984 143.966 68.5904 144.619 68.7584 145.45H66.7564C66.6724 145.123 66.495 144.867 66.2244 144.68C65.963 144.493 65.6504 144.4 65.2864 144.4C64.9597 144.4 64.6657 144.484 64.4044 144.652C64.1524 144.811 63.9517 145.049 63.8024 145.366C63.6624 145.674 63.5924 146.043 63.5924 146.472C63.5924 146.799 63.6344 147.093 63.7184 147.354C63.8024 147.606 63.919 147.825 64.0684 148.012C64.2177 148.189 64.395 148.325 64.6004 148.418C64.815 148.511 65.0437 148.558 65.2864 148.558C65.529 148.558 65.7484 148.516 65.9444 148.432C66.1497 148.348 66.3224 148.231 66.4624 148.082C66.6024 147.923 66.7004 147.732 66.7564 147.508H68.7584C68.5904 148.32 68.1937 148.969 67.5684 149.454C66.9524 149.93 66.1964 150.168 65.3004 150.168ZM73.2042 150C72.7096 150 72.2756 149.925 71.9022 149.776C71.5382 149.617 71.2536 149.361 71.0482 149.006C70.8429 148.642 70.7402 148.147 70.7402 147.522V144.526H69.5362V142.944H70.7402L70.9502 141.026H72.6302V142.944H74.4922V144.526H72.6302V147.55C72.6302 147.867 72.7002 148.087 72.8402 148.208C72.9802 148.329 73.2182 148.39 73.5542 148.39H74.4782V150H73.2042ZM78.4349 150.168C77.8655 150.168 77.3755 150.051 76.9649 149.818C76.5635 149.575 76.2555 149.225 76.0409 148.768C75.8262 148.301 75.7189 147.727 75.7189 147.046V142.944H77.6089V146.85C77.6089 147.419 77.7255 147.849 77.9589 148.138C78.2015 148.427 78.5702 148.572 79.0649 148.572C79.3822 148.572 79.6622 148.502 79.9049 148.362C80.1475 148.213 80.3389 148.003 80.4789 147.732C80.6282 147.452 80.7029 147.111 80.7029 146.71V142.944H82.5789V150H80.9269L80.7729 148.852C80.5675 149.253 80.2642 149.575 79.8629 149.818C79.4615 150.051 78.9855 150.168 78.4349 150.168ZM86.5298 150.168C85.9418 150.168 85.4565 150.075 85.0738 149.888C84.6912 149.692 84.4065 149.435 84.2198 149.118C84.0425 148.791 83.9538 148.432 83.9538 148.04C83.9538 147.611 84.0612 147.233 84.2758 146.906C84.4998 146.579 84.8312 146.323 85.2698 146.136C85.7178 145.949 86.2778 145.856 86.9498 145.856H88.6998C88.6998 145.511 88.6532 145.226 88.5598 145.002C88.4665 144.769 88.3218 144.596 88.1258 144.484C87.9298 144.372 87.6685 144.316 87.3418 144.316C86.9872 144.316 86.6838 144.395 86.4318 144.554C86.1892 144.703 86.0398 144.937 85.9838 145.254H84.1498C84.1965 144.75 84.3598 144.316 84.6398 143.952C84.9292 143.579 85.3072 143.289 85.7738 143.084C86.2498 142.879 86.7772 142.776 87.3558 142.776C88.0185 142.776 88.5925 142.888 89.0778 143.112C89.5632 143.336 89.9365 143.658 90.1978 144.078C90.4592 144.498 90.5898 145.016 90.5898 145.632V150H88.9938L88.7838 148.922C88.6812 149.109 88.5598 149.277 88.4198 149.426C88.2798 149.575 88.1165 149.706 87.9298 149.818C87.7432 149.93 87.5332 150.014 87.2998 150.07C87.0665 150.135 86.8098 150.168 86.5298 150.168ZM86.9778 148.712C87.2205 148.712 87.4352 148.67 87.6218 148.586C87.8178 148.493 87.9858 148.371 88.1258 148.222C88.2658 148.063 88.3732 147.886 88.4478 147.69C88.5318 147.485 88.5878 147.265 88.6158 147.032V147.018H87.1738C86.8845 147.018 86.6465 147.055 86.4598 147.13C86.2825 147.195 86.1518 147.293 86.0678 147.424C85.9838 147.555 85.9418 147.704 85.9418 147.872C85.9418 148.059 85.9838 148.213 86.0678 148.334C86.1518 148.455 86.2732 148.549 86.4318 148.614C86.5905 148.679 86.7725 148.712 86.9778 148.712ZM92.0729 150V139.92H93.9629V150H92.0729ZM95.5254 150V139.92H97.4154V150H95.5254ZM99.8738 153.08L101.582 149.216H101.162L98.3338 142.944H100.392L102.408 147.494L104.228 142.944H106.23L101.876 153.08H99.8738ZM113.046 150.168C112.402 150.168 111.842 150.065 111.366 149.86C110.89 149.655 110.517 149.37 110.246 149.006C109.975 148.642 109.821 148.231 109.784 147.774H111.66C111.707 147.951 111.786 148.115 111.898 148.264C112.01 148.404 112.159 148.516 112.346 148.6C112.533 148.684 112.757 148.726 113.018 148.726C113.27 148.726 113.475 148.693 113.634 148.628C113.793 148.553 113.909 148.455 113.984 148.334C114.068 148.213 114.11 148.087 114.11 147.956C114.11 147.76 114.054 147.611 113.942 147.508C113.83 147.396 113.667 147.307 113.452 147.242C113.237 147.177 112.976 147.111 112.668 147.046C112.332 146.981 112.001 146.901 111.674 146.808C111.357 146.705 111.072 146.579 110.82 146.43C110.568 146.281 110.367 146.089 110.218 145.856C110.069 145.623 109.994 145.333 109.994 144.988C109.994 144.568 110.106 144.195 110.33 143.868C110.554 143.532 110.881 143.266 111.31 143.07C111.739 142.874 112.257 142.776 112.864 142.776C113.713 142.776 114.385 142.967 114.88 143.35C115.375 143.733 115.669 144.26 115.762 144.932H113.984C113.928 144.717 113.802 144.549 113.606 144.428C113.419 144.297 113.167 144.232 112.85 144.232C112.514 144.232 112.257 144.293 112.08 144.414C111.903 144.535 111.814 144.694 111.814 144.89C111.814 145.021 111.87 145.137 111.982 145.24C112.103 145.343 112.271 145.431 112.486 145.506C112.701 145.571 112.962 145.637 113.27 145.702C113.811 145.814 114.287 145.945 114.698 146.094C115.109 146.234 115.431 146.439 115.664 146.71C115.897 146.971 116.014 147.354 116.014 147.858C116.014 148.306 115.893 148.707 115.65 149.062C115.407 149.407 115.062 149.678 114.614 149.874C114.175 150.07 113.653 150.168 113.046 150.168ZM117.375 150V142.944H119.265V150H117.375ZM118.327 141.978C117.991 141.978 117.711 141.88 117.487 141.684C117.272 141.479 117.165 141.222 117.165 140.914C117.165 140.606 117.272 140.354 117.487 140.158C117.711 139.953 117.991 139.85 118.327 139.85C118.672 139.85 118.952 139.953 119.167 140.158C119.391 140.354 119.503 140.606 119.503 140.914C119.503 141.222 119.391 141.479 119.167 141.684C118.952 141.88 118.672 141.978 118.327 141.978ZM123.933 153.248C123.261 153.248 122.673 153.164 122.169 152.996C121.665 152.837 121.273 152.59 120.993 152.254C120.722 151.927 120.587 151.521 120.587 151.036C120.587 150.709 120.671 150.401 120.839 150.112C121.007 149.823 121.25 149.561 121.567 149.328C121.894 149.085 122.3 148.88 122.785 148.712L123.499 149.636C123.07 149.776 122.757 149.949 122.561 150.154C122.374 150.369 122.281 150.597 122.281 150.84C122.281 151.055 122.351 151.237 122.491 151.386C122.64 151.535 122.836 151.643 123.079 151.708C123.331 151.783 123.611 151.82 123.919 151.82C124.218 151.82 124.474 151.783 124.689 151.708C124.913 151.633 125.086 151.521 125.207 151.372C125.338 151.232 125.403 151.064 125.403 150.868C125.403 150.616 125.314 150.411 125.137 150.252C124.96 150.093 124.605 149.995 124.073 149.958C123.597 149.921 123.172 149.869 122.799 149.804C122.435 149.729 122.113 149.645 121.833 149.552C121.553 149.449 121.315 149.337 121.119 149.216C120.932 149.095 120.778 148.973 120.657 148.852V148.53L122.155 146.92L123.513 147.354L121.749 149.09L122.281 148.166C122.384 148.222 122.482 148.278 122.575 148.334C122.678 148.381 122.804 148.427 122.953 148.474C123.102 148.511 123.298 148.549 123.541 148.586C123.784 148.623 124.092 148.656 124.465 148.684C125.081 148.74 125.585 148.857 125.977 149.034C126.378 149.211 126.672 149.449 126.859 149.748C127.046 150.037 127.139 150.397 127.139 150.826C127.139 151.246 127.022 151.638 126.789 152.002C126.565 152.375 126.215 152.674 125.739 152.898C125.263 153.131 124.661 153.248 123.933 153.248ZM123.933 147.914C123.345 147.914 122.836 147.802 122.407 147.578C121.987 147.345 121.66 147.037 121.427 146.654C121.203 146.262 121.091 145.828 121.091 145.352C121.091 144.876 121.203 144.447 121.427 144.064C121.66 143.672 121.987 143.359 122.407 143.126C122.836 142.893 123.345 142.776 123.933 142.776C124.53 142.776 125.039 142.893 125.459 143.126C125.888 143.359 126.215 143.672 126.439 144.064C126.663 144.447 126.775 144.876 126.775 145.352C126.775 145.828 126.663 146.262 126.439 146.654C126.215 147.037 125.888 147.345 125.459 147.578C125.039 147.802 124.53 147.914 123.933 147.914ZM123.933 146.472C124.297 146.472 124.591 146.379 124.815 146.192C125.039 146.005 125.151 145.73 125.151 145.366C125.151 145.002 125.039 144.727 124.815 144.54C124.591 144.344 124.297 144.246 123.933 144.246C123.578 144.246 123.284 144.344 123.051 144.54C122.827 144.727 122.715 145.002 122.715 145.366C122.715 145.73 122.827 146.005 123.051 146.192C123.284 146.379 123.578 146.472 123.933 146.472ZM125.109 144.288L124.801 142.944H127.699V144.064L125.109 144.288ZM128.955 150V142.944H130.621L130.761 144.092C130.975 143.7 131.279 143.383 131.671 143.14C132.072 142.897 132.548 142.776 133.099 142.776C133.687 142.776 134.181 142.897 134.583 143.14C134.984 143.383 135.287 143.737 135.493 144.204C135.707 144.671 135.815 145.245 135.815 145.926V150H133.939V146.108C133.939 145.548 133.817 145.119 133.575 144.82C133.341 144.521 132.977 144.372 132.483 144.372C132.165 144.372 131.881 144.447 131.629 144.596C131.386 144.745 131.195 144.96 131.055 145.24C130.915 145.511 130.845 145.842 130.845 146.234V150H128.955ZM140.703 150.168C139.994 150.168 139.364 150.019 138.813 149.72C138.272 149.412 137.847 148.987 137.539 148.446C137.241 147.895 137.091 147.261 137.091 146.542C137.091 145.805 137.241 145.156 137.539 144.596C137.847 144.027 138.272 143.583 138.813 143.266C139.355 142.939 139.985 142.776 140.703 142.776C141.403 142.776 142.015 142.93 142.537 143.238C143.06 143.546 143.466 143.961 143.755 144.484C144.045 145.007 144.189 145.599 144.189 146.262C144.189 146.355 144.189 146.463 144.189 146.584C144.189 146.696 144.18 146.813 144.161 146.934H138.435V145.786H142.285C142.257 145.329 142.094 144.969 141.795 144.708C141.506 144.447 141.142 144.316 140.703 144.316C140.386 144.316 140.092 144.391 139.821 144.54C139.551 144.68 139.336 144.899 139.177 145.198C139.028 145.497 138.953 145.875 138.953 146.332V146.738C138.953 147.121 139.023 147.457 139.163 147.746C139.313 148.026 139.518 148.245 139.779 148.404C140.041 148.553 140.344 148.628 140.689 148.628C141.035 148.628 141.319 148.553 141.543 148.404C141.777 148.255 141.949 148.063 142.061 147.83H143.993C143.863 148.269 143.643 148.665 143.335 149.02C143.027 149.375 142.649 149.655 142.201 149.86C141.753 150.065 141.254 150.168 140.703 150.168ZM148.593 150.168C147.949 150.168 147.371 150.009 146.857 149.692C146.353 149.375 145.957 148.936 145.667 148.376C145.378 147.816 145.233 147.186 145.233 146.486C145.233 145.767 145.378 145.133 145.667 144.582C145.966 144.022 146.372 143.583 146.885 143.266C147.408 142.939 147.991 142.776 148.635 142.776C149.139 142.776 149.583 142.869 149.965 143.056C150.348 143.243 150.656 143.509 150.889 143.854V139.92H152.779V150H151.099L150.889 149.034C150.749 149.23 150.572 149.417 150.357 149.594C150.152 149.771 149.905 149.911 149.615 150.014C149.326 150.117 148.985 150.168 148.593 150.168ZM149.041 148.516C149.415 148.516 149.741 148.432 150.021 148.264C150.311 148.087 150.535 147.844 150.693 147.536C150.852 147.228 150.931 146.873 150.931 146.472C150.931 146.071 150.852 145.716 150.693 145.408C150.535 145.1 150.311 144.862 150.021 144.694C149.741 144.517 149.415 144.428 149.041 144.428C148.687 144.428 148.365 144.517 148.075 144.694C147.786 144.862 147.557 145.1 147.389 145.408C147.231 145.716 147.151 146.066 147.151 146.458C147.151 146.869 147.231 147.228 147.389 147.536C147.557 147.844 147.781 148.087 148.061 148.264C148.351 148.432 148.677 148.516 149.041 148.516ZM159.998 150.168C159.429 150.168 158.939 150.051 158.528 149.818C158.127 149.575 157.819 149.225 157.604 148.768C157.389 148.301 157.282 147.727 157.282 147.046V142.944H159.172V146.85C159.172 147.419 159.289 147.849 159.522 148.138C159.765 148.427 160.133 148.572 160.628 148.572C160.945 148.572 161.225 148.502 161.468 148.362C161.711 148.213 161.902 148.003 162.042 147.732C162.191 147.452 162.266 147.111 162.266 146.71V142.944H164.142V150H162.49L162.336 148.852C162.131 149.253 161.827 149.575 161.426 149.818C161.025 150.051 160.549 150.168 159.998 150.168ZM165.713 153.08V142.944H167.393L167.603 143.924C167.752 143.719 167.93 143.532 168.135 143.364C168.34 143.187 168.583 143.047 168.863 142.944C169.152 142.832 169.488 142.776 169.871 142.776C170.534 142.776 171.117 142.939 171.621 143.266C172.125 143.593 172.522 144.036 172.811 144.596C173.11 145.147 173.259 145.777 173.259 146.486C173.259 147.195 173.11 147.83 172.811 148.39C172.512 148.941 172.111 149.375 171.607 149.692C171.103 150.009 170.529 150.168 169.885 150.168C169.362 150.168 168.91 150.075 168.527 149.888C168.154 149.692 167.846 149.426 167.603 149.09V153.08H165.713ZM169.437 148.516C169.81 148.516 170.137 148.432 170.417 148.264C170.706 148.096 170.93 147.858 171.089 147.55C171.248 147.242 171.327 146.887 171.327 146.486C171.327 146.085 171.248 145.73 171.089 145.422C170.93 145.105 170.706 144.862 170.417 144.694C170.137 144.517 169.81 144.428 169.437 144.428C169.073 144.428 168.746 144.517 168.457 144.694C168.177 144.862 167.953 145.1 167.785 145.408C167.626 145.716 167.547 146.071 167.547 146.472C167.547 146.873 167.626 147.233 167.785 147.55C167.953 147.858 168.177 148.096 168.457 148.264C168.746 148.432 169.073 148.516 169.437 148.516Z" fill="#2C2C2C"/>
</svg>
