<svg width="4827" height="1380" viewBox="0 0 4827 1380" fill="none" xmlns="http://www.w3.org/2000/svg">
<path d="M306 1050V154.5H1.05053e-06V-7.15256e-05H805.5V154.5H498V1050H306ZM1169.96 1068C1094.96 1068 1028.46 1052 970.465 1020C912.465 988 866.965 943 833.965 885C800.965 827 784.465 760 784.465 684C784.465 607 800.465 538.5 832.465 478.5C865.465 418.5 910.465 372 967.465 339C1025.46 305 1093.46 288 1171.46 288C1244.46 288 1308.96 304 1364.96 336C1420.96 368 1464.46 412 1495.46 468C1527.46 523 1543.46 584.5 1543.46 652.5C1543.46 663.5 1542.96 675 1541.96 687C1541.96 699 1541.46 711.5 1540.46 724.5H974.965C978.965 782.5 998.965 828 1034.96 861C1071.96 894 1116.46 910.5 1168.46 910.5C1207.46 910.5 1239.96 902 1265.96 885C1292.96 867 1312.96 844 1325.96 816H1520.96C1506.96 863 1483.46 906 1450.46 945C1418.46 983 1378.46 1013 1330.46 1035C1283.46 1057 1229.96 1068 1169.96 1068ZM1171.46 444C1124.46 444 1082.96 457.5 1046.96 484.5C1010.96 510.5 987.965 550.5 977.965 604.5H1348.46C1345.46 555.5 1327.46 516.5 1294.46 487.5C1261.46 458.5 1220.46 444 1171.46 444ZM1704.95 1050V306H1874.45L1890.95 406.5C1914.95 370.5 1946.45 342 1985.45 321C2025.45 299 2071.45 288 2123.45 288C2238.45 288 2319.95 332.5 2367.95 421.5C2394.95 380.5 2430.95 348 2475.95 324C2521.95 300 2571.95 288 2625.95 288C2722.95 288 2797.45 317 2849.45 375C2901.45 433 2927.45 518 2927.45 630V1050H2735.45V648C2735.45 584 2722.95 535 2697.95 501C2673.95 467 2636.45 450 2585.45 450C2533.45 450 2491.45 469 2459.45 507C2428.45 545 2412.95 598 2412.95 666V1050H2220.95V648C2220.95 584 2208.45 535 2183.45 501C2158.45 467 2119.95 450 2067.95 450C2016.95 450 1975.45 469 1943.45 507C1912.45 545 1896.95 598 1896.95 666V1050H1704.95ZM3109.73 1380V306H3280.73L3301.73 412.5C3325.73 379.5 3357.23 350.5 3396.23 325.5C3436.23 300.5 3487.73 288 3550.73 288C3620.73 288 3683.23 305 3738.23 339C3793.23 373 3836.73 419.5 3868.73 478.5C3900.73 537.5 3916.73 604.5 3916.73 679.5C3916.73 754.5 3900.73 821.5 3868.73 880.5C3836.73 938.5 3793.23 984.5 3738.23 1018.5C3683.23 1051.5 3620.73 1068 3550.73 1068C3494.73 1068 3445.73 1057.5 3403.73 1036.5C3361.73 1015.5 3327.73 986 3301.73 948V1380H3109.73ZM3510.23 900C3571.23 900 3621.73 879.5 3661.73 838.5C3701.73 797.5 3721.73 744.5 3721.73 679.5C3721.73 614.5 3701.73 561 3661.73 519C3621.73 477 3571.23 456 3510.23 456C3448.23 456 3397.23 477 3357.23 519C3318.23 560 3298.73 613 3298.73 678C3298.73 743 3318.23 796.5 3357.23 838.5C3397.23 879.5 3448.23 900 3510.23 900ZM4445.25 1068C4373.25 1068 4308.25 1051.5 4250.25 1018.5C4193.25 985.5 4147.75 940 4113.75 882C4080.75 823 4064.25 755 4064.25 678C4064.25 601 4081.25 533.5 4115.25 475.5C4149.25 416.5 4194.75 370.5 4251.75 337.5C4309.75 304.5 4374.75 288 4446.75 288C4517.75 288 4581.75 304.5 4638.75 337.5C4696.75 370.5 4742.25 416.5 4775.25 475.5C4809.25 533.5 4826.25 601 4826.25 678C4826.25 755 4809.25 823 4775.25 882C4742.25 940 4696.75 985.5 4638.75 1018.5C4580.75 1051.5 4516.25 1068 4445.25 1068ZM4445.25 901.5C4495.25 901.5 4538.75 883 4575.75 846C4612.75 808 4631.25 752 4631.25 678C4631.25 604 4612.75 548.5 4575.75 511.5C4538.75 473.5 4495.75 454.5 4446.75 454.5C4395.75 454.5 4351.75 473.5 4314.75 511.5C4278.75 548.5 4260.75 604 4260.75 678C4260.75 752 4278.75 808 4314.75 846C4351.75 883 4395.25 901.5 4445.25 901.5Z" fill="#5F249F"/>
</svg>
