<svg preserveAspectRatio="none" width="100%" height="100%" overflow="visible" style="display: block;" viewBox="0 0 177 24.327" fill="none" xmlns="http://www.w3.org/2000/svg">
<g id="Group">
<path id="Vector" d="M4.98075 10.6424V23.6447H0V0.313859H0.104858L15.4141 13.6832V0.68086H20.4473V24.0117H20.3424L4.98075 10.6424ZM24.4319 12.1628C24.4319 5.18974 29.7272 0.261427 37.1721 0.261427C39.5314 0.261427 41.4188 0.680862 42.9917 1.36244V6.02861C41.4713 5.24217 39.479 4.77032 37.1721 4.77032C32.2962 4.77032 29.465 7.70634 29.465 12.1104C29.465 16.5144 32.2962 19.4504 37.1721 19.4504C39.479 19.4504 41.4713 19.031 42.9917 18.1921V22.8583C41.4188 23.5923 39.5314 24.0117 37.1721 24.0117C29.7272 24.0642 24.4319 19.1358 24.4319 12.1628ZM47.7103 0.68086H55.4174C61.237 0.68086 64.4876 3.82659 64.4876 8.5452C64.4876 11.5336 63.072 13.9454 59.9262 15.0988L65.2216 23.6447H59.5592L52.6911 12.1628H55.5222C57.9864 12.1628 59.4544 10.6948 59.4544 8.5452C59.4544 6.39561 57.9339 4.9276 55.5222 4.9276H52.7435V23.6447H47.7103V0.68086ZM72.0373 0.68086H77.5424L83.4668 13.4735L89.3389 0.68086H94.8439L83.5193 24.0641H83.4144L72.0373 0.68086ZM129.185 14.6269L120.849 0.68086H126.511L131.649 9.6462L136.787 0.68086H142.449L134.113 14.6269V23.6447H129.132L129.185 14.6269ZM146.015 0.68086H150.995V23.6447H146.015V0.68086ZM165.78 15.6231L160.537 23.6447H154.613L162.739 11.9006L154.98 0.68086H160.904L165.833 8.1782L170.761 0.68086H176.685L168.874 11.9006L177 23.6971H171.076L165.78 15.6231Z" fill="var(--fill-0, black)"/>
<path id="Vector_2" d="M104.91 2.77875C104.91 4.35162 103.599 5.55748 102.027 5.55748C100.454 5.55748 99.143 4.29919 99.143 2.77875C99.143 1.25831 100.454 1.44243e-05 102.027 1.44243e-05C103.599 1.44243e-05 104.91 1.25831 104.91 2.77875ZM93.5331 8.28378C93.5331 9.85665 94.8438 11.0625 96.4167 11.0625C97.9895 11.0625 99.3002 9.80422 99.3002 8.28378C99.3002 6.76335 97.9895 5.50505 96.4167 5.50505C94.7914 5.50505 93.5331 6.71092 93.5331 8.28378ZM93.5331 16.0433C93.5331 17.6161 94.8438 18.822 96.4167 18.822C97.9895 18.822 99.3002 17.5637 99.3002 16.0433C99.3002 14.5228 97.9895 13.2645 96.4167 13.2645C94.7914 13.2121 93.5331 14.4704 93.5331 16.0433ZM102.027 24.327C103.599 24.327 104.91 23.0687 104.91 21.5483C104.91 20.0279 103.599 18.7696 102.027 18.7696C100.454 18.7696 99.143 20.0279 99.143 21.5483C99.143 23.0687 100.401 24.327 102.027 24.327ZM109.996 24.327C111.569 24.327 112.879 23.0687 112.879 21.5483C112.879 20.0279 111.569 18.7696 109.996 18.7696C108.423 18.7696 107.112 20.0279 107.112 21.5483C107.112 23.0687 108.37 24.327 109.996 24.327ZM118.489 16.0433C118.489 14.4704 117.179 13.2645 115.606 13.2645C114.033 13.2645 112.722 14.5228 112.722 16.0433C112.722 17.5637 114.033 18.822 115.606 18.822C117.231 18.822 118.489 17.5637 118.489 16.0433ZM118.489 8.28378C118.489 6.71092 117.179 5.50505 115.606 5.50505C114.033 5.50505 112.722 6.76335 112.722 8.28378C112.722 9.80422 114.033 11.0625 115.606 11.0625C117.231 11.0625 118.489 9.80422 118.489 8.28378ZM109.996 1.44243e-05C108.423 1.44243e-05 107.112 1.25831 107.112 2.77875C107.112 4.29919 108.423 5.55748 109.996 5.55748C111.569 5.55748 112.879 4.29919 112.879 2.77875C112.879 1.25831 111.569 1.44243e-05 109.996 1.44243e-05Z" fill="var(--fill-0, #5F249F)"/>
</g>
</svg>
