<svg width="1706" height="721" viewBox="0 0 1706 721" fill="none" xmlns="http://www.w3.org/2000/svg">
<rect x="1.62604" y="20.2093" width="173.29" height="698.733" rx="21.6031" stroke="black" stroke-opacity="0.2" stroke-width="3.25208"/>
<rect x="27.4111" width="122.185" height="37.1667" rx="9.29167" fill="#FA97A3"/>
<path d="M43.5317 23.9688V12.2612H46.9771C48.3485 12.2612 49.4747 12.501 50.3555 12.9804C51.2475 13.4487 51.9054 14.1233 52.3291 15.0041C52.7639 15.8738 52.9813 16.9219 52.9813 18.1484C52.9813 19.3526 52.7639 20.3896 52.3291 21.2593C51.9054 22.129 51.2475 22.798 50.3555 23.2663C49.4747 23.7346 48.3485 23.9688 46.9771 23.9688H43.5317ZM44.9366 22.798H46.9436C48.0809 22.798 48.9841 22.614 49.6531 22.2461C50.3221 21.867 50.8015 21.3318 51.0914 20.6405C51.3813 19.938 51.5263 19.1073 51.5263 18.1484C51.5263 17.1672 51.3813 16.3254 51.0914 15.623C50.8015 14.9205 50.3221 14.3797 49.6531 14.0006C48.9841 13.6215 48.0809 13.432 46.9436 13.432H44.9366V22.798ZM54.8792 23.9688V12.2612H56.2841V23.9688H54.8792ZM57.8793 23.9688L62.1943 12.2612H63.6829L67.9812 23.9688H66.4927L62.9302 14.0174L59.3511 23.9688H57.8793ZM59.8528 20.9582L60.2542 19.8209H65.5561L65.9575 20.9582H59.8528ZM73.9357 24.1695C72.843 24.1695 71.8841 23.9186 71.059 23.4168C70.2339 22.9039 69.5928 22.1959 69.1356 21.2927C68.6785 20.3896 68.4499 19.3359 68.4499 18.1317C68.4499 16.9387 68.6785 15.885 69.1356 14.9707C69.6039 14.0564 70.2618 13.3428 71.1092 12.8299C71.9677 12.317 72.9768 12.0605 74.1364 12.0605C75.4521 12.0605 76.5504 12.3783 77.4312 13.0139C78.3121 13.6383 78.8751 14.5135 79.1204 15.6397H77.4981C77.342 14.9372 76.9741 14.3797 76.3943 13.9672C75.8145 13.5546 75.0618 13.3484 74.1364 13.3484C73.2778 13.3484 72.5252 13.5435 71.8785 13.9337C71.243 14.3128 70.7524 14.8592 70.4067 15.5728C70.0611 16.2864 69.8882 17.1394 69.8882 18.1317C69.8882 19.1241 70.0611 19.9826 70.4067 20.7074C70.7524 21.421 71.2318 21.9673 71.8451 22.3464C72.4695 22.7255 73.1831 22.9151 73.9859 22.9151C75.2347 22.9151 76.1768 22.5471 76.8124 21.8112C77.4479 21.0753 77.8103 20.0774 77.8995 18.8174H74.5211V17.7136H79.3379V23.9688H78.05L77.933 22.0454C77.6542 22.5025 77.3309 22.8928 76.9629 23.2161C76.6061 23.5283 76.1824 23.768 75.6918 23.9353C75.2012 24.0914 74.6158 24.1695 73.9357 24.1695ZM81.4086 23.9688V12.2612H82.8135L89.0519 21.644V12.2612H90.4568V23.9688H89.0519L82.8135 14.586V23.9688H81.4086ZM98.0233 24.1695C96.8972 24.1695 95.9048 23.9186 95.0463 23.4168C94.1989 22.9039 93.5355 22.1959 93.056 21.2927C92.5877 20.3784 92.3536 19.3192 92.3536 18.115C92.3536 16.9219 92.5877 15.8738 93.056 14.9707C93.5355 14.0564 94.1989 13.3428 95.0463 12.8299C95.9048 12.317 96.8972 12.0605 98.0233 12.0605C99.1718 12.0605 100.17 12.317 101.017 12.8299C101.865 13.3428 102.522 14.0564 102.991 14.9707C103.47 15.8738 103.71 16.9219 103.71 18.115C103.71 19.3192 103.47 20.3784 102.991 21.2927C102.522 22.1959 101.865 22.9039 101.017 23.4168C100.17 23.9186 99.1718 24.1695 98.0233 24.1695ZM98.0233 22.9318C98.8707 22.9318 99.6122 22.7422 100.248 22.3631C100.894 21.9729 101.391 21.421 101.736 20.7074C102.093 19.9826 102.271 19.1185 102.271 18.115C102.271 17.1115 102.093 16.2529 101.736 15.5393C101.391 14.8146 100.894 14.2627 100.248 13.8836C99.6122 13.5045 98.8707 13.3149 98.0233 13.3149C97.1871 13.3149 96.4456 13.5045 95.7989 13.8836C95.1634 14.2627 94.6672 14.8146 94.3104 15.5393C93.9647 16.2529 93.7919 17.1115 93.7919 18.115C93.7919 19.1185 93.9647 19.9826 94.3104 20.7074C94.6672 21.421 95.1634 21.9729 95.7989 22.3631C96.4456 22.7422 97.1871 22.9318 98.0233 22.9318ZM109.32 24.1695C108.461 24.1695 107.714 24.0133 107.078 23.7011C106.443 23.3889 105.952 22.9541 105.607 22.3966C105.261 21.8391 105.088 21.1924 105.088 20.4565H106.56C106.56 20.9136 106.666 21.3373 106.878 21.7276C107.09 22.1067 107.396 22.4133 107.798 22.6475C108.21 22.8705 108.718 22.982 109.32 22.982C109.844 22.982 110.29 22.8983 110.658 22.7311C111.037 22.5527 111.321 22.313 111.511 22.0119C111.711 21.7109 111.812 21.3708 111.812 20.9917C111.812 20.5345 111.711 20.1666 111.511 19.8878C111.321 19.5979 111.059 19.3638 110.725 19.1854C110.39 19.007 110 18.8509 109.554 18.7171C109.119 18.5721 108.662 18.4216 108.182 18.2655C107.257 17.9533 106.577 17.5631 106.142 17.0948C105.707 16.6265 105.49 16.0188 105.49 15.2717C105.49 14.6362 105.635 14.0787 105.924 13.5992C106.226 13.1198 106.649 12.7463 107.196 12.4787C107.753 12.1999 108.411 12.0605 109.169 12.0605C109.916 12.0605 110.563 12.1999 111.109 12.4787C111.667 12.7574 112.102 13.1421 112.414 13.6327C112.726 14.1121 112.882 14.6696 112.882 15.3052H111.41C111.41 14.9818 111.327 14.6641 111.159 14.3519C110.992 14.0397 110.736 13.7832 110.39 13.5825C110.056 13.3707 109.632 13.2647 109.119 13.2647C108.695 13.2536 108.316 13.3261 107.982 13.4822C107.658 13.6271 107.402 13.839 107.212 14.1177C107.034 14.3965 106.945 14.7365 106.945 15.1379C106.945 15.517 107.023 15.8237 107.179 16.0578C107.346 16.292 107.58 16.4927 107.881 16.6599C108.193 16.816 108.556 16.961 108.968 17.0948C109.381 17.2286 109.838 17.3791 110.34 17.5463C110.909 17.7359 111.41 17.97 111.845 18.2488C112.291 18.5164 112.637 18.862 112.882 19.2857C113.139 19.7094 113.267 20.2502 113.267 20.9081C113.267 21.4656 113.116 21.9952 112.815 22.4969C112.525 22.9875 112.09 23.3889 111.511 23.7011C110.931 24.0133 110.2 24.1695 109.32 24.1695ZM115.125 23.9688V12.2612H116.529V23.9688H115.125ZM122.607 24.1695C121.748 24.1695 121.001 24.0133 120.366 23.7011C119.73 23.3889 119.24 22.9541 118.894 22.3966C118.548 21.8391 118.375 21.1924 118.375 20.4565H119.847C119.847 20.9136 119.953 21.3373 120.165 21.7276C120.377 22.1067 120.683 22.4133 121.085 22.6475C121.497 22.8705 122.005 22.982 122.607 22.982C123.131 22.982 123.577 22.8983 123.945 22.7311C124.324 22.5527 124.608 22.313 124.798 22.0119C124.999 21.7109 125.099 21.3708 125.099 20.9917C125.099 20.5345 124.999 20.1666 124.798 19.8878C124.608 19.5979 124.346 19.3638 124.012 19.1854C123.677 19.007 123.287 18.8509 122.841 18.7171C122.406 18.5721 121.949 18.4216 121.47 18.2655C120.544 17.9533 119.864 17.5631 119.429 17.0948C118.994 16.6265 118.777 16.0188 118.777 15.2717C118.777 14.6362 118.922 14.0787 119.212 13.5992C119.513 13.1198 119.936 12.7463 120.483 12.4787C121.04 12.1999 121.698 12.0605 122.456 12.0605C123.203 12.0605 123.85 12.1999 124.396 12.4787C124.954 12.7574 125.389 13.1421 125.701 13.6327C126.013 14.1121 126.169 14.6696 126.169 15.3052H124.697C124.697 14.9818 124.614 14.6641 124.447 14.3519C124.279 14.0397 124.023 13.7832 123.677 13.5825C123.343 13.3707 122.919 13.2647 122.406 13.2647C121.982 13.2536 121.603 13.3261 121.269 13.4822C120.946 13.6271 120.689 13.839 120.5 14.1177C120.321 14.3965 120.232 14.7365 120.232 15.1379C120.232 15.517 120.31 15.8237 120.466 16.0578C120.633 16.292 120.867 16.4927 121.169 16.6599C121.481 16.816 121.843 16.961 122.256 17.0948C122.668 17.2286 123.125 17.3791 123.627 17.5463C124.196 17.7359 124.697 17.97 125.132 18.2488C125.578 18.5164 125.924 18.862 126.169 19.2857C126.426 19.7094 126.554 20.2502 126.554 20.9081C126.554 21.4656 126.403 21.9952 126.102 22.4969C125.812 22.9875 125.378 23.3889 124.798 23.7011C124.218 24.0133 123.488 24.1695 122.607 24.1695Z" fill="white"/>
<rect x="187.46" y="20.2093" width="194.196" height="698.733" rx="21.6031" stroke="black" stroke-opacity="0.2" stroke-width="3.25208"/>
<rect x="223.465" width="122.185" height="37.1667" rx="9.29167" fill="#FA97A3"/>
<path d="M246.09 23.9688V12.2612H249.536C250.907 12.2612 252.033 12.501 252.914 12.9804C253.806 13.4487 254.464 14.1233 254.888 15.0041C255.323 15.8738 255.54 16.9219 255.54 18.1484C255.54 19.3526 255.323 20.3896 254.888 21.2593C254.464 22.129 253.806 22.798 252.914 23.2663C252.033 23.7346 250.907 23.9688 249.536 23.9688H246.09ZM247.495 22.798H249.502C250.64 22.798 251.543 22.614 252.212 22.2461C252.881 21.867 253.36 21.3318 253.65 20.6405C253.94 19.938 254.085 19.1073 254.085 18.1484C254.085 17.1672 253.94 16.3254 253.65 15.623C253.36 14.9205 252.881 14.3797 252.212 14.0006C251.543 13.6215 250.64 13.432 249.502 13.432H247.495V22.798ZM257.438 23.9688V12.2612H264.68V13.4153H258.843V17.4962H264.178V18.6335H258.843V22.8147H264.68V23.9688H257.438ZM271.812 24.1695C270.674 24.1695 269.688 23.9186 268.851 23.4168C268.026 22.9039 267.391 22.1959 266.945 21.2927C266.499 20.3784 266.276 19.3192 266.276 18.115C266.276 16.9108 266.499 15.8571 266.945 14.954C267.391 14.0397 268.026 13.3316 268.851 12.8299C269.688 12.317 270.674 12.0605 271.812 12.0605C273.15 12.0605 274.237 12.3783 275.073 13.0139C275.909 13.6494 276.445 14.547 276.679 15.7066H275.123C274.945 14.9818 274.583 14.402 274.036 13.9672C273.49 13.5212 272.748 13.2982 271.812 13.2982C270.976 13.2982 270.251 13.4933 269.638 13.8836C269.024 14.2627 268.55 14.8146 268.216 15.5393C267.881 16.2529 267.714 17.1115 267.714 18.115C267.714 19.1185 267.881 19.9826 268.216 20.7074C268.55 21.421 269.024 21.9729 269.638 22.3631C270.251 22.7422 270.976 22.9318 271.812 22.9318C272.748 22.9318 273.49 22.7199 274.036 22.2962C274.583 21.8614 274.945 21.2872 275.123 20.5736H276.679C276.445 21.6997 275.909 22.5806 275.073 23.2161C274.237 23.8517 273.15 24.1695 271.812 24.1695ZM278.549 23.9688V12.2612H279.953V23.9688H278.549ZM286.031 24.1695C285.172 24.1695 284.425 24.0133 283.79 23.7011C283.154 23.3889 282.664 22.9541 282.318 22.3966C281.972 21.8391 281.799 21.1924 281.799 20.4565H283.271C283.271 20.9136 283.377 21.3373 283.589 21.7276C283.801 22.1067 284.108 22.4133 284.509 22.6475C284.921 22.8705 285.429 22.982 286.031 22.982C286.555 22.982 287.001 22.8983 287.369 22.7311C287.748 22.5527 288.032 22.313 288.222 22.0119C288.423 21.7109 288.523 21.3708 288.523 20.9917C288.523 20.5345 288.423 20.1666 288.222 19.8878C288.032 19.5979 287.77 19.3638 287.436 19.1854C287.101 19.007 286.711 18.8509 286.265 18.7171C285.83 18.5721 285.373 18.4216 284.894 18.2655C283.968 17.9533 283.288 17.5631 282.853 17.0948C282.418 16.6265 282.201 16.0188 282.201 15.2717C282.201 14.6362 282.346 14.0787 282.636 13.5992C282.937 13.1198 283.36 12.7463 283.907 12.4787C284.464 12.1999 285.122 12.0605 285.88 12.0605C286.627 12.0605 287.274 12.1999 287.82 12.4787C288.378 12.7574 288.813 13.1421 289.125 13.6327C289.437 14.1121 289.593 14.6696 289.593 15.3052H288.122C288.122 14.9818 288.038 14.6641 287.871 14.3519C287.703 14.0397 287.447 13.7832 287.101 13.5825C286.767 13.3707 286.343 13.2647 285.83 13.2647C285.407 13.2536 285.027 13.3261 284.693 13.4822C284.37 13.6271 284.113 13.839 283.924 14.1177C283.745 14.3965 283.656 14.7365 283.656 15.1379C283.656 15.517 283.734 15.8237 283.89 16.0578C284.057 16.292 284.292 16.4927 284.593 16.6599C284.905 16.816 285.267 16.961 285.68 17.0948C286.092 17.2286 286.549 17.3791 287.051 17.5463C287.62 17.7359 288.122 17.97 288.556 18.2488C289.002 18.5164 289.348 18.862 289.593 19.2857C289.85 19.7094 289.978 20.2502 289.978 20.9081C289.978 21.4656 289.827 21.9952 289.526 22.4969C289.237 22.9875 288.802 23.3889 288.222 23.7011C287.642 24.0133 286.912 24.1695 286.031 24.1695ZM291.836 23.9688V12.2612H293.241V23.9688H291.836ZM300.807 24.1695C299.681 24.1695 298.688 23.9186 297.83 23.4168C296.982 22.9039 296.319 22.1959 295.839 21.2927C295.371 20.3784 295.137 19.3192 295.137 18.115C295.137 16.9219 295.371 15.8738 295.839 14.9707C296.319 14.0564 296.982 13.3428 297.83 12.8299C298.688 12.317 299.681 12.0605 300.807 12.0605C301.955 12.0605 302.953 12.317 303.8 12.8299C304.648 13.3428 305.306 14.0564 305.774 14.9707C306.253 15.8738 306.493 16.9219 306.493 18.115C306.493 19.3192 306.253 20.3784 305.774 21.2927C305.306 22.1959 304.648 22.9039 303.8 23.4168C302.953 23.9186 301.955 24.1695 300.807 24.1695ZM300.807 22.9318C301.654 22.9318 302.396 22.7422 303.031 22.3631C303.678 21.9729 304.174 21.421 304.52 20.7074C304.876 19.9826 305.055 19.1185 305.055 18.115C305.055 17.1115 304.876 16.2529 304.52 15.5393C304.174 14.8146 303.678 14.2627 303.031 13.8836C302.396 13.5045 301.654 13.3149 300.807 13.3149C299.97 13.3149 299.229 13.5045 298.582 13.8836C297.947 14.2627 297.451 14.8146 297.094 15.5393C296.748 16.2529 296.575 17.1115 296.575 18.115C296.575 19.1185 296.748 19.9826 297.094 20.7074C297.451 21.421 297.947 21.9729 298.582 22.3631C299.229 22.7422 299.97 22.9318 300.807 22.9318ZM308.373 23.9688V12.2612H309.778L316.017 21.644V12.2612H317.422V23.9688H316.017L309.778 14.586V23.9688H308.373Z" fill="white"/>
<rect x="394.198" y="20.2093" width="250.875" height="698.733" rx="21.6031" stroke="black" stroke-opacity="0.2" stroke-width="3.25208"/>
<rect x="429" width="181.188" height="37.1667" rx="9.29167" fill="#FA97A3"/>
<path d="M460.984 24.1695C460.126 24.1695 459.378 24.0133 458.743 23.7011C458.107 23.3889 457.617 22.9541 457.271 22.3966C456.925 21.8391 456.753 21.1924 456.753 20.4565H458.224C458.224 20.9136 458.33 21.3373 458.542 21.7276C458.754 22.1067 459.061 22.4133 459.462 22.6475C459.875 22.8705 460.382 22.982 460.984 22.982C461.508 22.982 461.954 22.8983 462.322 22.7311C462.701 22.5527 462.985 22.313 463.175 22.0119C463.376 21.7109 463.476 21.3708 463.476 20.9917C463.476 20.5345 463.376 20.1666 463.175 19.8878C462.985 19.5979 462.723 19.3638 462.389 19.1854C462.054 19.007 461.664 18.8509 461.218 18.7171C460.783 18.5721 460.326 18.4216 459.847 18.2655C458.921 17.9533 458.241 17.5631 457.806 17.0948C457.371 16.6265 457.154 16.0188 457.154 15.2717C457.154 14.6362 457.299 14.0787 457.589 13.5992C457.89 13.1198 458.314 12.7463 458.86 12.4787C459.417 12.1999 460.075 12.0605 460.834 12.0605C461.581 12.0605 462.227 12.1999 462.774 12.4787C463.331 12.7574 463.766 13.1421 464.078 13.6327C464.39 14.1121 464.546 14.6696 464.546 15.3052H463.075C463.075 14.9818 462.991 14.6641 462.824 14.3519C462.657 14.0397 462.4 13.7832 462.054 13.5825C461.72 13.3707 461.296 13.2647 460.783 13.2647C460.36 13.2536 459.981 13.3261 459.646 13.4822C459.323 13.6271 459.066 13.839 458.877 14.1177C458.698 14.3965 458.609 14.7365 458.609 15.1379C458.609 15.517 458.687 15.8237 458.843 16.0578C459.011 16.292 459.245 16.4927 459.546 16.6599C459.858 16.816 460.22 16.961 460.633 17.0948C461.045 17.2286 461.503 17.3791 462.004 17.5463C462.573 17.7359 463.075 17.97 463.51 18.2488C463.956 18.5164 464.301 18.862 464.546 19.2857C464.803 19.7094 464.931 20.2502 464.931 20.9081C464.931 21.4656 464.781 21.9952 464.48 22.4969C464.19 22.9875 463.755 23.3889 463.175 23.7011C462.595 24.0133 461.865 24.1695 460.984 24.1695ZM469.176 23.9688V19.5199L465.363 12.2612H466.952L470.096 18.6H469.678L472.805 12.2612H474.378L470.581 19.5199V23.9688H469.176ZM475.817 23.9688V12.2612H477.456L481.587 20.4398L485.735 12.2612H487.391V23.9688H485.986V14.77L482.122 22.3297H481.069L477.222 14.8034V23.9688H475.817ZM489.713 23.9688V12.2612H493.526C494.451 12.2612 495.21 12.4173 495.801 12.7295C496.403 13.0306 496.843 13.4376 497.122 13.9505C497.412 14.4634 497.557 15.0487 497.557 15.7066C497.557 16.3421 497.412 16.9219 497.122 17.446C496.843 17.9589 496.408 18.3714 495.817 18.6836C495.226 18.9958 494.463 19.1519 493.526 19.1519H491.118V23.9688H489.713ZM491.118 17.9645H493.509C494.446 17.9645 495.115 17.7582 495.516 17.3456C495.918 16.9331 496.118 16.3867 496.118 15.7066C496.118 14.9818 495.918 14.4243 495.516 14.0341C495.115 13.6327 494.446 13.432 493.509 13.432H491.118V17.9645ZM501.99 23.9688V13.4153H498.495V12.2612H506.891V13.4153H503.395V23.9688H501.99ZM513.069 24.1695C511.943 24.1695 510.95 23.9186 510.092 23.4168C509.245 22.9039 508.581 22.1959 508.102 21.2927C507.633 20.3784 507.399 19.3192 507.399 18.115C507.399 16.9219 507.633 15.8738 508.102 14.9707C508.581 14.0564 509.245 13.3428 510.092 12.8299C510.95 12.317 511.943 12.0605 513.069 12.0605C514.217 12.0605 515.215 12.317 516.063 12.8299C516.91 13.3428 517.568 14.0564 518.036 14.9707C518.516 15.8738 518.755 16.9219 518.755 18.115C518.755 19.3192 518.516 20.3784 518.036 21.2927C517.568 22.1959 516.91 22.9039 516.063 23.4168C515.215 23.9186 514.217 24.1695 513.069 24.1695ZM513.069 22.9318C513.916 22.9318 514.658 22.7422 515.293 22.3631C515.94 21.9729 516.436 21.421 516.782 20.7074C517.139 19.9826 517.317 19.1185 517.317 18.115C517.317 17.1115 517.139 16.2529 516.782 15.5393C516.436 14.8146 515.94 14.2627 515.293 13.8836C514.658 13.5045 513.916 13.3149 513.069 13.3149C512.233 13.3149 511.491 13.5045 510.845 13.8836C510.209 14.2627 509.713 14.8146 509.356 15.5393C509.01 16.2529 508.838 17.1115 508.838 18.115C508.838 19.1185 509.01 19.9826 509.356 20.7074C509.713 21.421 510.209 21.9729 510.845 22.3631C511.491 22.7422 512.233 22.9318 513.069 22.9318ZM520.636 23.9688V12.2612H522.275L526.406 20.4398L530.554 12.2612H532.209V23.9688H530.804V14.77L526.941 22.3297H525.887L522.04 14.8034V23.9688H520.636ZM541.549 23.9688V13.4153H538.054V12.2612H546.45V13.4153H542.954V23.9688H541.549ZM548.014 23.9688V12.2612H549.419V23.9688H548.014ZM551.014 23.9688L555.329 12.2612H556.818L561.116 23.9688H559.628L556.065 14.0174L552.486 23.9688H551.014ZM552.988 20.9582L553.389 19.8209H558.691L559.093 20.9582H552.988ZM567.071 24.1695C565.978 24.1695 565.019 23.9186 564.194 23.4168C563.369 22.9039 562.728 22.1959 562.271 21.2927C561.814 20.3896 561.585 19.3359 561.585 18.1317C561.585 16.9387 561.814 15.885 562.271 14.9707C562.739 14.0564 563.397 13.3428 564.244 12.8299C565.103 12.317 566.112 12.0605 567.271 12.0605C568.587 12.0605 569.685 12.3783 570.566 13.0139C571.447 13.6383 572.01 14.5135 572.255 15.6397H570.633C570.477 14.9372 570.109 14.3797 569.529 13.9672C568.95 13.5546 568.197 13.3484 567.271 13.3484C566.413 13.3484 565.66 13.5435 565.014 13.9337C564.378 14.3128 563.887 14.8592 563.542 15.5728C563.196 16.2864 563.023 17.1394 563.023 18.1317C563.023 19.1241 563.196 19.9826 563.542 20.7074C563.887 21.421 564.367 21.9673 564.98 22.3464C565.605 22.7255 566.318 22.9151 567.121 22.9151C568.37 22.9151 569.312 22.5471 569.947 21.8112C570.583 21.0753 570.945 20.0774 571.035 18.8174H567.656V17.7136H572.473V23.9688H571.185L571.068 22.0454C570.789 22.5025 570.466 22.8928 570.098 23.2161C569.741 23.5283 569.317 23.768 568.827 23.9353C568.336 24.0914 567.751 24.1695 567.071 24.1695ZM574.544 23.9688V12.2612H581.786V13.4153H575.949V17.4962H581.284V18.6335H575.949V22.8147H581.786V23.9688H574.544Z" fill="white"/>
<rect x="657.618" y="20.2093" width="455.756" height="698.733" rx="21.6031" stroke="black" stroke-opacity="0.2" stroke-width="3.25208"/>
<rect x="740.546" width="289.9" height="37.1667" rx="9.29167" fill="#FA97A3"/>
<path d="M763.171 23.9688V12.2612H770.413V13.4153H764.576V17.4962H769.912V18.6335H764.576V22.8147H770.413V23.9688H763.171ZM775.973 23.9688L771.575 12.2612H773.096L776.793 22.4802L780.522 12.2612H782.011L777.612 23.9688H775.973ZM781.112 23.9688L785.427 12.2612H786.916L791.214 23.9688H789.726L786.163 14.0174L782.584 23.9688H781.112ZM783.086 20.9582L783.487 19.8209H788.789L789.19 20.9582H783.086ZM792.804 23.9688V12.2612H794.209V22.8482H799.661V23.9688H792.804ZM805.165 24.1695C804.362 24.1695 803.632 24.0078 802.974 23.6844C802.327 23.3611 801.809 22.8705 801.419 22.2126C801.028 21.5436 800.833 20.6906 800.833 19.6537V12.2612H802.238V19.6704C802.238 20.4286 802.361 21.0474 802.606 21.5269C802.862 22.0063 803.214 22.3576 803.66 22.5806C804.106 22.8036 804.619 22.9151 805.198 22.9151C805.789 22.9151 806.302 22.8036 806.737 22.5806C807.172 22.3576 807.512 22.0063 807.757 21.5269C808.003 21.0474 808.125 20.4286 808.125 19.6704V12.2612H809.53V19.6537C809.53 20.6906 809.335 21.5436 808.945 22.2126C808.555 22.8705 808.031 23.3611 807.373 23.6844C806.715 24.0078 805.979 24.1695 805.165 24.1695ZM810.484 23.9688L814.799 12.2612H816.287L820.585 23.9688H819.097L815.534 14.0174L811.955 23.9688H810.484ZM812.457 20.9582L812.858 19.8209H818.16L818.562 20.9582H812.457ZM823.595 23.9688V13.4153H820.1V12.2612H828.496V13.4153H825V23.9688H823.595ZM830.06 23.9688V12.2612H831.465V23.9688H830.06ZM839.031 24.1695C837.905 24.1695 836.913 23.9186 836.054 23.4168C835.207 22.9039 834.543 22.1959 834.064 21.2927C833.596 20.3784 833.361 19.3192 833.361 18.115C833.361 16.9219 833.596 15.8738 834.064 14.9707C834.543 14.0564 835.207 13.3428 836.054 12.8299C836.913 12.317 837.905 12.0605 839.031 12.0605C840.18 12.0605 841.178 12.317 842.025 12.8299C842.872 13.3428 843.53 14.0564 843.998 14.9707C844.478 15.8738 844.718 16.9219 844.718 18.115C844.718 19.3192 844.478 20.3784 843.998 21.2927C843.53 22.1959 842.872 22.9039 842.025 23.4168C841.178 23.9186 840.18 24.1695 839.031 24.1695ZM839.031 22.9318C839.879 22.9318 840.62 22.7422 841.256 22.3631C841.902 21.9729 842.398 21.421 842.744 20.7074C843.101 19.9826 843.279 19.1185 843.279 18.115C843.279 17.1115 843.101 16.2529 842.744 15.5393C842.398 14.8146 841.902 14.2627 841.256 13.8836C840.62 13.5045 839.879 13.3149 839.031 13.3149C838.195 13.3149 837.453 13.5045 836.807 13.8836C836.171 14.2627 835.675 14.8146 835.318 15.5393C834.973 16.2529 834.8 17.1115 834.8 18.115C834.8 19.1185 834.973 19.9826 835.318 20.7074C835.675 21.421 836.171 21.9729 836.807 22.3631C837.453 22.7422 838.195 22.9318 839.031 22.9318ZM846.598 23.9688V12.2612H848.003L854.241 21.644V12.2612H855.646V23.9688H854.241L848.003 14.586V23.9688H846.598ZM871.1 23.9688L864.728 17.4794C864.215 16.9665 863.847 16.4982 863.624 16.0745C863.401 15.6508 863.29 15.1825 863.29 14.6696C863.29 14.1679 863.412 13.7219 863.658 13.3316C863.903 12.9302 864.249 12.618 864.695 12.395C865.152 12.172 865.698 12.0605 866.334 12.0605C866.947 12.0605 867.477 12.1776 867.923 12.4118C868.38 12.6348 868.731 12.947 868.976 13.3484C869.222 13.7498 869.339 14.2125 869.328 14.7365H867.939C867.939 14.2348 867.778 13.8557 867.454 13.5992C867.142 13.3316 866.769 13.1978 866.334 13.1978C865.821 13.1978 865.414 13.3372 865.113 13.616C864.823 13.8836 864.678 14.2292 864.678 14.6529C864.678 15.0097 864.778 15.3609 864.979 15.7066C865.18 16.0522 865.47 16.4313 865.849 16.8439L872.873 23.9688H871.1ZM865.682 24.1695C864.89 24.1695 864.193 24.0245 863.591 23.7346C863 23.4335 862.537 23.0154 862.203 22.4802C861.879 21.945 861.718 21.315 861.718 20.5903C861.718 20.0328 861.829 19.5199 862.052 19.0516C862.286 18.5721 862.632 18.154 863.089 17.7972C863.546 17.4293 864.104 17.1338 864.762 16.9108L865.297 16.7268L866.033 17.6467L865.397 17.8641C864.628 18.1429 864.054 18.5052 863.675 18.9512C863.307 19.3972 863.123 19.9269 863.123 20.5401C863.123 20.9973 863.229 21.4098 863.44 21.7778C863.663 22.1457 863.97 22.4356 864.36 22.6475C864.75 22.8593 865.202 22.9652 865.715 22.9652C866.373 22.9652 866.953 22.8259 867.454 22.5471C867.967 22.2572 868.486 21.7889 869.01 21.1422C869.244 20.8523 869.484 20.5178 869.729 20.1387C869.974 19.7485 870.236 19.3136 870.515 18.8342L871.034 17.9143H872.522L871.769 19.2523C871.468 19.8098 871.167 20.3171 870.866 20.7743C870.576 21.2314 870.281 21.6384 869.98 21.9952C869.344 22.7645 868.681 23.322 867.99 23.6677C867.309 24.0022 866.54 24.1695 865.682 24.1695ZM878.66 23.9688V12.2612H880.299L884.43 20.4398L888.578 12.2612H890.234V23.9688H888.829V14.77L884.965 22.3297H883.912L880.065 14.8034V23.9688H878.66ZM891.803 23.9688L896.118 12.2612H897.607L901.905 23.9688H900.416L896.854 14.0174L893.275 23.9688H891.803ZM893.777 20.9582L894.178 19.8209H899.48L899.881 20.9582H893.777ZM903.495 23.9688V12.2612H904.9L911.138 21.644V12.2612H912.543V23.9688H911.138L904.9 14.586V23.9688H903.495ZM914.139 23.9688L918.454 12.2612H919.942L924.241 23.9688H922.752L919.19 14.0174L915.61 23.9688H914.139ZM916.112 20.9582L916.514 19.8209H921.815L922.217 20.9582H916.112ZM930.195 24.1695C929.102 24.1695 928.143 23.9186 927.318 23.4168C926.493 22.9039 925.852 22.1959 925.395 21.2927C924.938 20.3896 924.709 19.3359 924.709 18.1317C924.709 16.9387 924.938 15.885 925.395 14.9707C925.863 14.0564 926.521 13.3428 927.369 12.8299C928.227 12.317 929.236 12.0605 930.396 12.0605C931.711 12.0605 932.81 12.3783 933.691 13.0139C934.571 13.6383 935.135 14.5135 935.38 15.6397H933.757C933.601 14.9372 933.233 14.3797 932.654 13.9672C932.074 13.5546 931.321 13.3484 930.396 13.3484C929.537 13.3484 928.785 13.5435 928.138 13.9337C927.502 14.3128 927.012 14.8592 926.666 15.5728C926.32 16.2864 926.148 17.1394 926.148 18.1317C926.148 19.1241 926.32 19.9826 926.666 20.7074C927.012 21.421 927.491 21.9673 928.104 22.3464C928.729 22.7255 929.442 22.9151 930.245 22.9151C931.494 22.9151 932.436 22.5471 933.072 21.8112C933.707 21.0753 934.07 20.0774 934.159 18.8174H930.78V17.7136H935.597V23.9688H934.309L934.192 22.0454C933.914 22.5025 933.59 22.8928 933.222 23.2161C932.865 23.5283 932.442 23.768 931.951 23.9353C931.461 24.0914 930.875 24.1695 930.195 24.1695ZM937.668 23.9688V12.2612H944.91V13.4153H939.073V17.4962H944.408V18.6335H939.073V22.8147H944.91V23.9688H937.668ZM946.958 23.9688V12.2612H948.597L952.728 20.4398L956.875 12.2612H958.531V23.9688H957.126V14.77L953.263 22.3297H952.209L948.362 14.8034V23.9688H946.958ZM960.853 23.9688V12.2612H968.095V13.4153H962.258V17.4962H967.593V18.6335H962.258V22.8147H968.095V23.9688H960.853ZM970.143 23.9688V12.2612H971.547L977.786 21.644V12.2612H979.191V23.9688H977.786L971.547 14.586V23.9688H970.143ZM984.282 23.9688V13.4153H980.786V12.2612H989.182V13.4153H985.687V23.9688H984.282Z" fill="white"/>
<line x1="28.8037" y1="367.718" x2="1108.96" y2="367.718" stroke="black" stroke-opacity="0.2" stroke-width="3.25208" stroke-dasharray="6.5 6.5"/>
<path d="M7 362.63C7 362.63 29.4466 375.647 45.1475 375.367C80.3566 374.74 89.8721 305.972 103.903 306.85C117.935 307.729 127.581 375.367 146.436 375.367C165.29 375.367 161.352 365.231 172.306 362.63C188.903 358.689 198.728 369.002 215.715 367.462C225.113 366.609 226.238 357.36 237.639 357.36C274.032 367.462 281.487 493.954 288.941 495.711C296.395 497.468 305.603 461.014 316.565 460.574C327.527 460.135 326.65 539.632 340.242 538.754C353.835 537.876 359.097 476.386 374.882 476.386C390.667 476.386 392.421 642.408 405.576 640.212C418.73 638.016 424.869 389.422 448.985 375.367C463.016 366.144 468.149 373.539 478.363 367.462C503.411 352.558 491.517 295.87 501.164 296.309C510.81 296.749 519.58 336.717 527.034 337.156C534.488 337.595 536.68 330.129 541.942 329.689C547.204 329.25 566.935 367.462 577.02 367.462C587.105 367.462 609.029 283.572 643.669 276.545C672.608 268.199 718.21 358.237 784.858 375.367C851.507 392.497 854.814 369.474 899.739 367.462C983.732 363.699 1115.03 367.462 1115.03 367.462" stroke="#E65167" stroke-opacity="0.6" stroke-width="3.25208"/>
</svg>
