<svg width="1707" height="721" viewBox="0 0 1707 721" fill="none" xmlns="http://www.w3.org/2000/svg">
<rect x="1.70417" y="20.2093" width="173.29" height="698.733" rx="21.6031" stroke="black" stroke-opacity="0.2" stroke-width="3.25208"/>
<rect x="27.4893" width="122.185" height="37.1667" rx="9.29167" fill="#FA97A3"/>
<path d="M43.6098 23.9688V12.2612H47.0552C48.4266 12.2612 49.5528 12.501 50.4336 12.9804C51.3256 13.4487 51.9835 14.1233 52.4072 15.0041C52.842 15.8738 53.0595 16.9219 53.0595 18.1484C53.0595 19.3526 52.842 20.3896 52.4072 21.2593C51.9835 22.129 51.3256 22.798 50.4336 23.2663C49.5528 23.7346 48.4266 23.9688 47.0552 23.9688H43.6098ZM45.0147 22.798H47.0217C48.159 22.798 49.0622 22.614 49.7312 22.2461C50.4002 21.867 50.8796 21.3318 51.1695 20.6405C51.4594 19.938 51.6044 19.1073 51.6044 18.1484C51.6044 17.1672 51.4594 16.3254 51.1695 15.623C50.8796 14.9205 50.4002 14.3797 49.7312 14.0006C49.0622 13.6215 48.159 13.432 47.0217 13.432H45.0147V22.798ZM54.9574 23.9688V12.2612H56.3623V23.9688H54.9574ZM57.9574 23.9688L62.2725 12.2612H63.761L68.0593 23.9688H66.5708L63.0084 14.0174L59.4292 23.9688H57.9574ZM59.931 20.9582L60.3324 19.8209H65.6342L66.0356 20.9582H59.931ZM74.0138 24.1695C72.9211 24.1695 71.9622 23.9186 71.1371 23.4168C70.312 22.9039 69.6709 22.1959 69.2137 21.2927C68.7566 20.3896 68.528 19.3359 68.528 18.1317C68.528 16.9387 68.7566 15.885 69.2137 14.9707C69.682 14.0564 70.3399 13.3428 71.1873 12.8299C72.0458 12.317 73.0549 12.0605 74.2145 12.0605C75.5302 12.0605 76.6285 12.3783 77.5093 13.0139C78.3902 13.6383 78.9533 14.5135 79.1986 15.6397H77.5762C77.4201 14.9372 77.0522 14.3797 76.4724 13.9672C75.8926 13.5546 75.14 13.3484 74.2145 13.3484C73.356 13.3484 72.6033 13.5435 71.9566 13.9337C71.3211 14.3128 70.8305 14.8592 70.4848 15.5728C70.1392 16.2864 69.9664 17.1394 69.9664 18.1317C69.9664 19.1241 70.1392 19.9826 70.4848 20.7074C70.8305 21.421 71.3099 21.9673 71.9232 22.3464C72.5476 22.7255 73.2612 22.9151 74.064 22.9151C75.3128 22.9151 76.255 22.5471 76.8905 21.8112C77.5261 21.0753 77.8884 20.0774 77.9776 18.8174H74.5992V17.7136H79.416V23.9688H78.1282L78.0111 22.0454C77.7323 22.5025 77.409 22.8928 77.041 23.2161C76.6842 23.5283 76.2605 23.768 75.7699 23.9353C75.2793 24.0914 74.694 24.1695 74.0138 24.1695ZM81.4867 23.9688V12.2612H82.8916L89.1301 21.644V12.2612H90.535V23.9688H89.1301L82.8916 14.586V23.9688H81.4867ZM98.1015 24.1695C96.9753 24.1695 95.983 23.9186 95.1244 23.4168C94.277 22.9039 93.6136 22.1959 93.1341 21.2927C92.6658 20.3784 92.4317 19.3192 92.4317 18.115C92.4317 16.9219 92.6658 15.8738 93.1341 14.9707C93.6136 14.0564 94.277 13.3428 95.1244 12.8299C95.983 12.317 96.9753 12.0605 98.1015 12.0605C99.2499 12.0605 100.248 12.317 101.095 12.8299C101.943 13.3428 102.6 14.0564 103.069 14.9707C103.548 15.8738 103.788 16.9219 103.788 18.115C103.788 19.3192 103.548 20.3784 103.069 21.2927C102.6 22.1959 101.943 22.9039 101.095 23.4168C100.248 23.9186 99.2499 24.1695 98.1015 24.1695ZM98.1015 22.9318C98.9489 22.9318 99.6903 22.7422 100.326 22.3631C100.973 21.9729 101.469 21.421 101.814 20.7074C102.171 19.9826 102.35 19.1185 102.35 18.115C102.35 17.1115 102.171 16.2529 101.814 15.5393C101.469 14.8146 100.973 14.2627 100.326 13.8836C99.6903 13.5045 98.9489 13.3149 98.1015 13.3149C97.2652 13.3149 96.5237 13.5045 95.877 13.8836C95.2415 14.2627 94.7453 14.8146 94.3885 15.5393C94.0429 16.2529 93.87 17.1115 93.87 18.115C93.87 19.1185 94.0429 19.9826 94.3885 20.7074C94.7453 21.421 95.2415 21.9729 95.877 22.3631C96.5237 22.7422 97.2652 22.9318 98.1015 22.9318ZM109.398 24.1695C108.539 24.1695 107.792 24.0133 107.157 23.7011C106.521 23.3889 106.03 22.9541 105.685 22.3966C105.339 21.8391 105.166 21.1924 105.166 20.4565H106.638C106.638 20.9136 106.744 21.3373 106.956 21.7276C107.168 22.1067 107.474 22.4133 107.876 22.6475C108.288 22.8705 108.796 22.982 109.398 22.982C109.922 22.982 110.368 22.8983 110.736 22.7311C111.115 22.5527 111.399 22.313 111.589 22.0119C111.789 21.7109 111.89 21.3708 111.89 20.9917C111.89 20.5345 111.789 20.1666 111.589 19.8878C111.399 19.5979 111.137 19.3638 110.803 19.1854C110.468 19.007 110.078 18.8509 109.632 18.7171C109.197 18.5721 108.74 18.4216 108.26 18.2655C107.335 17.9533 106.655 17.5631 106.22 17.0948C105.785 16.6265 105.568 16.0188 105.568 15.2717C105.568 14.6362 105.713 14.0787 106.003 13.5992C106.304 13.1198 106.727 12.7463 107.274 12.4787C107.831 12.1999 108.489 12.0605 109.247 12.0605C109.994 12.0605 110.641 12.1999 111.187 12.4787C111.745 12.7574 112.18 13.1421 112.492 13.6327C112.804 14.1121 112.96 14.6696 112.96 15.3052H111.488C111.488 14.9818 111.405 14.6641 111.238 14.3519C111.07 14.0397 110.814 13.7832 110.468 13.5825C110.134 13.3707 109.71 13.2647 109.197 13.2647C108.773 13.2536 108.394 13.3261 108.06 13.4822C107.736 13.6271 107.48 13.839 107.29 14.1177C107.112 14.3965 107.023 14.7365 107.023 15.1379C107.023 15.517 107.101 15.8237 107.257 16.0578C107.424 16.292 107.658 16.4927 107.959 16.6599C108.272 16.816 108.634 16.961 109.047 17.0948C109.459 17.2286 109.916 17.3791 110.418 17.5463C110.987 17.7359 111.488 17.97 111.923 18.2488C112.369 18.5164 112.715 18.862 112.96 19.2857C113.217 19.7094 113.345 20.2502 113.345 20.9081C113.345 21.4656 113.194 21.9952 112.893 22.4969C112.603 22.9875 112.169 23.3889 111.589 23.7011C111.009 24.0133 110.279 24.1695 109.398 24.1695ZM115.203 23.9688V12.2612H116.608V23.9688H115.203ZM122.685 24.1695C121.826 24.1695 121.079 24.0133 120.444 23.7011C119.808 23.3889 119.318 22.9541 118.972 22.3966C118.626 21.8391 118.454 21.1924 118.454 20.4565H119.925C119.925 20.9136 120.031 21.3373 120.243 21.7276C120.455 22.1067 120.762 22.4133 121.163 22.6475C121.576 22.8705 122.083 22.982 122.685 22.982C123.209 22.982 123.655 22.8983 124.023 22.7311C124.402 22.5527 124.686 22.313 124.876 22.0119C125.077 21.7109 125.177 21.3708 125.177 20.9917C125.177 20.5345 125.077 20.1666 124.876 19.8878C124.686 19.5979 124.424 19.3638 124.09 19.1854C123.755 19.007 123.365 18.8509 122.919 18.7171C122.484 18.5721 122.027 18.4216 121.548 18.2655C120.622 17.9533 119.942 17.5631 119.507 17.0948C119.072 16.6265 118.855 16.0188 118.855 15.2717C118.855 14.6362 119 14.0787 119.29 13.5992C119.591 13.1198 120.015 12.7463 120.561 12.4787C121.118 12.1999 121.776 12.0605 122.534 12.0605C123.282 12.0605 123.928 12.1999 124.475 12.4787C125.032 12.7574 125.467 13.1421 125.779 13.6327C126.091 14.1121 126.247 14.6696 126.247 15.3052H124.776C124.776 14.9818 124.692 14.6641 124.525 14.3519C124.357 14.0397 124.101 13.7832 123.755 13.5825C123.421 13.3707 122.997 13.2647 122.484 13.2647C122.061 13.2536 121.681 13.3261 121.347 13.4822C121.024 13.6271 120.767 13.839 120.578 14.1177C120.399 14.3965 120.31 14.7365 120.31 15.1379C120.31 15.517 120.388 15.8237 120.544 16.0578C120.711 16.292 120.946 16.4927 121.247 16.6599C121.559 16.816 121.921 16.961 122.334 17.0948C122.746 17.2286 123.203 17.3791 123.705 17.5463C124.274 17.7359 124.776 17.97 125.21 18.2488C125.656 18.5164 126.002 18.862 126.247 19.2857C126.504 19.7094 126.632 20.2502 126.632 20.9081C126.632 21.4656 126.482 21.9952 126.181 22.4969C125.891 22.9875 125.456 23.3889 124.876 23.7011C124.296 24.0133 123.566 24.1695 122.685 24.1695Z" fill="white"/>
<rect x="187.538" y="20.2093" width="194.196" height="698.733" rx="21.6031" stroke="black" stroke-opacity="0.2" stroke-width="3.25208"/>
<rect x="223.543" width="122.185" height="37.1667" rx="9.29167" fill="#FA97A3"/>
<path d="M246.168 23.9688V12.2612H249.614C250.985 12.2612 252.111 12.501 252.992 12.9804C253.884 13.4487 254.542 14.1233 254.966 15.0041C255.401 15.8738 255.618 16.9219 255.618 18.1484C255.618 19.3526 255.401 20.3896 254.966 21.2593C254.542 22.129 253.884 22.798 252.992 23.2663C252.111 23.7346 250.985 23.9688 249.614 23.9688H246.168ZM247.573 22.798H249.58C250.718 22.798 251.621 22.614 252.29 22.2461C252.959 21.867 253.438 21.3318 253.728 20.6405C254.018 19.938 254.163 19.1073 254.163 18.1484C254.163 17.1672 254.018 16.3254 253.728 15.623C253.438 14.9205 252.959 14.3797 252.29 14.0006C251.621 13.6215 250.718 13.432 249.58 13.432H247.573V22.798ZM257.516 23.9688V12.2612H264.758V13.4153H258.921V17.4962H264.256V18.6335H258.921V22.8147H264.758V23.9688H257.516ZM271.89 24.1695C270.753 24.1695 269.766 23.9186 268.93 23.4168C268.104 22.9039 267.469 22.1959 267.023 21.2927C266.577 20.3784 266.354 19.3192 266.354 18.115C266.354 16.9108 266.577 15.8571 267.023 14.954C267.469 14.0397 268.104 13.3316 268.93 12.8299C269.766 12.317 270.753 12.0605 271.89 12.0605C273.228 12.0605 274.315 12.3783 275.151 13.0139C275.988 13.6494 276.523 14.547 276.757 15.7066H275.201C275.023 14.9818 274.661 14.402 274.114 13.9672C273.568 13.5212 272.827 13.2982 271.89 13.2982C271.054 13.2982 270.329 13.4933 269.716 13.8836C269.102 14.2627 268.629 14.8146 268.294 15.5393C267.96 16.2529 267.792 17.1115 267.792 18.115C267.792 19.1185 267.96 19.9826 268.294 20.7074C268.629 21.421 269.102 21.9729 269.716 22.3631C270.329 22.7422 271.054 22.9318 271.89 22.9318C272.827 22.9318 273.568 22.7199 274.114 22.2962C274.661 21.8614 275.023 21.2872 275.201 20.5736H276.757C276.523 21.6997 275.988 22.5806 275.151 23.2161C274.315 23.8517 273.228 24.1695 271.89 24.1695ZM278.627 23.9688V12.2612H280.032V23.9688H278.627ZM286.109 24.1695C285.25 24.1695 284.503 24.0133 283.868 23.7011C283.232 23.3889 282.742 22.9541 282.396 22.3966C282.05 21.8391 281.878 21.1924 281.878 20.4565H283.349C283.349 20.9136 283.455 21.3373 283.667 21.7276C283.879 22.1067 284.186 22.4133 284.587 22.6475C285 22.8705 285.507 22.982 286.109 22.982C286.633 22.982 287.079 22.8983 287.447 22.7311C287.826 22.5527 288.11 22.313 288.3 22.0119C288.501 21.7109 288.601 21.3708 288.601 20.9917C288.601 20.5345 288.501 20.1666 288.3 19.8878C288.11 19.5979 287.848 19.3638 287.514 19.1854C287.179 19.007 286.789 18.8509 286.343 18.7171C285.908 18.5721 285.451 18.4216 284.972 18.2655C284.046 17.9533 283.366 17.5631 282.931 17.0948C282.496 16.6265 282.279 16.0188 282.279 15.2717C282.279 14.6362 282.424 14.0787 282.714 13.5992C283.015 13.1198 283.439 12.7463 283.985 12.4787C284.542 12.1999 285.2 12.0605 285.959 12.0605C286.706 12.0605 287.352 12.1999 287.899 12.4787C288.456 12.7574 288.891 13.1421 289.203 13.6327C289.515 14.1121 289.671 14.6696 289.671 15.3052H288.2C288.2 14.9818 288.116 14.6641 287.949 14.3519C287.782 14.0397 287.525 13.7832 287.179 13.5825C286.845 13.3707 286.421 13.2647 285.908 13.2647C285.485 13.2536 285.106 13.3261 284.771 13.4822C284.448 13.6271 284.191 13.839 284.002 14.1177C283.823 14.3965 283.734 14.7365 283.734 15.1379C283.734 15.517 283.812 15.8237 283.968 16.0578C284.135 16.292 284.37 16.4927 284.671 16.6599C284.983 16.816 285.345 16.961 285.758 17.0948C286.17 17.2286 286.628 17.3791 287.129 17.5463C287.698 17.7359 288.2 17.97 288.635 18.2488C289.081 18.5164 289.426 18.862 289.671 19.2857C289.928 19.7094 290.056 20.2502 290.056 20.9081C290.056 21.4656 289.906 21.9952 289.605 22.4969C289.315 22.9875 288.88 23.3889 288.3 23.7011C287.72 24.0133 286.99 24.1695 286.109 24.1695ZM291.914 23.9688V12.2612H293.319V23.9688H291.914ZM300.885 24.1695C299.759 24.1695 298.766 23.9186 297.908 23.4168C297.06 22.9039 296.397 22.1959 295.917 21.2927C295.449 20.3784 295.215 19.3192 295.215 18.115C295.215 16.9219 295.449 15.8738 295.917 14.9707C296.397 14.0564 297.06 13.3428 297.908 12.8299C298.766 12.317 299.759 12.0605 300.885 12.0605C302.033 12.0605 303.031 12.317 303.879 12.8299C304.726 13.3428 305.384 14.0564 305.852 14.9707C306.332 15.8738 306.571 16.9219 306.571 18.115C306.571 19.3192 306.332 20.3784 305.852 21.2927C305.384 22.1959 304.726 22.9039 303.879 23.4168C303.031 23.9186 302.033 24.1695 300.885 24.1695ZM300.885 22.9318C301.732 22.9318 302.474 22.7422 303.109 22.3631C303.756 21.9729 304.252 21.421 304.598 20.7074C304.955 19.9826 305.133 19.1185 305.133 18.115C305.133 17.1115 304.955 16.2529 304.598 15.5393C304.252 14.8146 303.756 14.2627 303.109 13.8836C302.474 13.5045 301.732 13.3149 300.885 13.3149C300.049 13.3149 299.307 13.5045 298.66 13.8836C298.025 14.2627 297.529 14.8146 297.172 15.5393C296.826 16.2529 296.653 17.1115 296.653 18.115C296.653 19.1185 296.826 19.9826 297.172 20.7074C297.529 21.421 298.025 21.9729 298.66 22.3631C299.307 22.7422 300.049 22.9318 300.885 22.9318ZM308.451 23.9688V12.2612H309.856L316.095 21.644V12.2612H317.5V23.9688H316.095L309.856 14.586V23.9688H308.451Z" fill="white"/>
<rect x="394.276" y="20.2093" width="250.875" height="698.733" rx="21.6031" stroke="black" stroke-opacity="0.2" stroke-width="3.25208"/>
<rect x="429.078" width="181.188" height="37.1667" rx="9.29167" fill="#FA97A3"/>
<path d="M461.062 24.1695C460.204 24.1695 459.457 24.0133 458.821 23.7011C458.185 23.3889 457.695 22.9541 457.349 22.3966C457.004 21.8391 456.831 21.1924 456.831 20.4565H458.303C458.303 20.9136 458.408 21.3373 458.62 21.7276C458.832 22.1067 459.139 22.4133 459.54 22.6475C459.953 22.8705 460.46 22.982 461.062 22.982C461.586 22.982 462.032 22.8983 462.4 22.7311C462.779 22.5527 463.064 22.313 463.253 22.0119C463.454 21.7109 463.554 21.3708 463.554 20.9917C463.554 20.5345 463.454 20.1666 463.253 19.8878C463.064 19.5979 462.802 19.3638 462.467 19.1854C462.133 19.007 461.742 18.8509 461.296 18.7171C460.861 18.5721 460.404 18.4216 459.925 18.2655C458.999 17.9533 458.319 17.5631 457.884 17.0948C457.45 16.6265 457.232 16.0188 457.232 15.2717C457.232 14.6362 457.377 14.0787 457.667 13.5992C457.968 13.1198 458.392 12.7463 458.938 12.4787C459.496 12.1999 460.153 12.0605 460.912 12.0605C461.659 12.0605 462.305 12.1999 462.852 12.4787C463.409 12.7574 463.844 13.1421 464.156 13.6327C464.469 14.1121 464.625 14.6696 464.625 15.3052H463.153C463.153 14.9818 463.069 14.6641 462.902 14.3519C462.735 14.0397 462.478 13.7832 462.133 13.5825C461.798 13.3707 461.374 13.2647 460.861 13.2647C460.438 13.2536 460.059 13.3261 459.724 13.4822C459.401 13.6271 459.144 13.839 458.955 14.1177C458.776 14.3965 458.687 14.7365 458.687 15.1379C458.687 15.517 458.765 15.8237 458.921 16.0578C459.089 16.292 459.323 16.4927 459.624 16.6599C459.936 16.816 460.298 16.961 460.711 17.0948C461.124 17.2286 461.581 17.3791 462.082 17.5463C462.651 17.7359 463.153 17.97 463.588 18.2488C464.034 18.5164 464.379 18.862 464.625 19.2857C464.881 19.7094 465.009 20.2502 465.009 20.9081C465.009 21.4656 464.859 21.9952 464.558 22.4969C464.268 22.9875 463.833 23.3889 463.253 23.7011C462.673 24.0133 461.943 24.1695 461.062 24.1695ZM469.254 23.9688V19.5199L465.441 12.2612H467.03L470.174 18.6H469.756L472.883 12.2612H474.456L470.659 19.5199V23.9688H469.254ZM475.895 23.9688V12.2612H477.534L481.665 20.4398L485.813 12.2612H487.469V23.9688H486.064V14.77L482.201 22.3297H481.147L477.3 14.8034V23.9688H475.895ZM489.791 23.9688V12.2612H493.604C494.53 12.2612 495.288 12.4173 495.879 12.7295C496.481 13.0306 496.921 13.4376 497.2 13.9505C497.49 14.4634 497.635 15.0487 497.635 15.7066C497.635 16.3421 497.49 16.9219 497.2 17.446C496.921 17.9589 496.486 18.3714 495.895 18.6836C495.304 18.9958 494.541 19.1519 493.604 19.1519H491.196V23.9688H489.791ZM491.196 17.9645H493.587C494.524 17.9645 495.193 17.7582 495.594 17.3456C495.996 16.9331 496.196 16.3867 496.196 15.7066C496.196 14.9818 495.996 14.4243 495.594 14.0341C495.193 13.6327 494.524 13.432 493.587 13.432H491.196V17.9645ZM502.068 23.9688V13.4153H498.573V12.2612H506.969V13.4153H503.473V23.9688H502.068ZM513.147 24.1695C512.021 24.1695 511.029 23.9186 510.17 23.4168C509.323 22.9039 508.659 22.1959 508.18 21.2927C507.711 20.3784 507.477 19.3192 507.477 18.115C507.477 16.9219 507.711 15.8738 508.18 14.9707C508.659 14.0564 509.323 13.3428 510.17 12.8299C511.029 12.317 512.021 12.0605 513.147 12.0605C514.296 12.0605 515.293 12.317 516.141 12.8299C516.988 13.3428 517.646 14.0564 518.114 14.9707C518.594 15.8738 518.834 16.9219 518.834 18.115C518.834 19.3192 518.594 20.3784 518.114 21.2927C517.646 22.1959 516.988 22.9039 516.141 23.4168C515.293 23.9186 514.296 24.1695 513.147 24.1695ZM513.147 22.9318C513.994 22.9318 514.736 22.7422 515.372 22.3631C516.018 21.9729 516.514 21.421 516.86 20.7074C517.217 19.9826 517.395 19.1185 517.395 18.115C517.395 17.1115 517.217 16.2529 516.86 15.5393C516.514 14.8146 516.018 14.2627 515.372 13.8836C514.736 13.5045 513.994 13.3149 513.147 13.3149C512.311 13.3149 511.569 13.5045 510.923 13.8836C510.287 14.2627 509.791 14.8146 509.434 15.5393C509.088 16.2529 508.916 17.1115 508.916 18.115C508.916 19.1185 509.088 19.9826 509.434 20.7074C509.791 21.421 510.287 21.9729 510.923 22.3631C511.569 22.7422 512.311 22.9318 513.147 22.9318ZM520.714 23.9688V12.2612H522.353L526.484 20.4398L530.632 12.2612H532.287V23.9688H530.883V14.77L527.019 22.3297H525.965L522.119 14.8034V23.9688H520.714ZM541.627 23.9688V13.4153H538.132V12.2612H546.528V13.4153H543.032V23.9688H541.627ZM548.092 23.9688V12.2612H549.497V23.9688H548.092ZM551.092 23.9688L555.408 12.2612H556.896L561.194 23.9688H559.706L556.143 14.0174L552.564 23.9688H551.092ZM553.066 20.9582L553.467 19.8209H558.769L559.171 20.9582H553.066ZM567.149 24.1695C566.056 24.1695 565.097 23.9186 564.272 23.4168C563.447 22.9039 562.806 22.1959 562.349 21.2927C561.892 20.3896 561.663 19.3359 561.663 18.1317C561.663 16.9387 561.892 15.885 562.349 14.9707C562.817 14.0564 563.475 13.3428 564.322 12.8299C565.181 12.317 566.19 12.0605 567.35 12.0605C568.665 12.0605 569.764 12.3783 570.644 13.0139C571.525 13.6383 572.088 14.5135 572.334 15.6397H570.711C570.555 14.9372 570.187 14.3797 569.607 13.9672C569.028 13.5546 568.275 13.3484 567.35 13.3484C566.491 13.3484 565.738 13.5435 565.092 13.9337C564.456 14.3128 563.966 14.8592 563.62 15.5728C563.274 16.2864 563.101 17.1394 563.101 18.1317C563.101 19.1241 563.274 19.9826 563.62 20.7074C563.966 21.421 564.445 21.9673 565.058 22.3464C565.683 22.7255 566.396 22.9151 567.199 22.9151C568.448 22.9151 569.39 22.5471 570.026 21.8112C570.661 21.0753 571.023 20.0774 571.113 18.8174H567.734V17.7136H572.551V23.9688H571.263L571.146 22.0454C570.867 22.5025 570.544 22.8928 570.176 23.2161C569.819 23.5283 569.396 23.768 568.905 23.9353C568.414 24.0914 567.829 24.1695 567.149 24.1695ZM574.622 23.9688V12.2612H581.864V13.4153H576.027V17.4962H581.362V18.6335H576.027V22.8147H581.864V23.9688H574.622Z" fill="white"/>
<rect x="657.696" y="20.2093" width="455.756" height="698.733" rx="21.6031" stroke="black" stroke-opacity="0.2" stroke-width="3.25208"/>
<rect x="740.624" width="289.9" height="37.1667" rx="9.29167" fill="#FA97A3"/>
<path d="M763.249 23.9688V12.2612H770.491V13.4153H764.654V17.4962H769.99V18.6335H764.654V22.8147H770.491V23.9688H763.249ZM776.051 23.9688L771.653 12.2612H773.175L776.871 22.4802L780.601 12.2612H782.089L777.69 23.9688H776.051ZM781.19 23.9688L785.505 12.2612H786.994L791.292 23.9688H789.804L786.241 14.0174L782.662 23.9688H781.19ZM783.164 20.9582L783.565 19.8209H788.867L789.268 20.9582H783.164ZM792.882 23.9688V12.2612H794.287V22.8482H799.739V23.9688H792.882ZM805.243 24.1695C804.44 24.1695 803.71 24.0078 803.052 23.6844C802.405 23.3611 801.887 22.8705 801.497 22.2126C801.106 21.5436 800.911 20.6906 800.911 19.6537V12.2612H802.316V19.6704C802.316 20.4286 802.439 21.0474 802.684 21.5269C802.941 22.0063 803.292 22.3576 803.738 22.5806C804.184 22.8036 804.697 22.9151 805.277 22.9151C805.867 22.9151 806.38 22.8036 806.815 22.5806C807.25 22.3576 807.59 22.0063 807.835 21.5269C808.081 21.0474 808.203 20.4286 808.203 19.6704V12.2612H809.608V19.6537C809.608 20.6906 809.413 21.5436 809.023 22.2126C808.633 22.8705 808.109 23.3611 807.451 23.6844C806.793 24.0078 806.057 24.1695 805.243 24.1695ZM810.562 23.9688L814.877 12.2612H816.365L820.664 23.9688H819.175L815.613 14.0174L812.033 23.9688H810.562ZM812.535 20.9582L812.937 19.8209H818.238L818.64 20.9582H812.535ZM823.673 23.9688V13.4153H820.178V12.2612H828.574V13.4153H825.078V23.9688H823.673ZM830.138 23.9688V12.2612H831.543V23.9688H830.138ZM839.109 24.1695C837.983 24.1695 836.991 23.9186 836.132 23.4168C835.285 22.9039 834.621 22.1959 834.142 21.2927C833.674 20.3784 833.439 19.3192 833.439 18.115C833.439 16.9219 833.674 15.8738 834.142 14.9707C834.621 14.0564 835.285 13.3428 836.132 12.8299C836.991 12.317 837.983 12.0605 839.109 12.0605C840.258 12.0605 841.256 12.317 842.103 12.8299C842.95 13.3428 843.608 14.0564 844.077 14.9707C844.556 15.8738 844.796 16.9219 844.796 18.115C844.796 19.3192 844.556 20.3784 844.077 21.2927C843.608 22.1959 842.95 22.9039 842.103 23.4168C841.256 23.9186 840.258 24.1695 839.109 24.1695ZM839.109 22.9318C839.957 22.9318 840.698 22.7422 841.334 22.3631C841.98 21.9729 842.477 21.421 842.822 20.7074C843.179 19.9826 843.357 19.1185 843.357 18.115C843.357 17.1115 843.179 16.2529 842.822 15.5393C842.477 14.8146 841.98 14.2627 841.334 13.8836C840.698 13.5045 839.957 13.3149 839.109 13.3149C838.273 13.3149 837.532 13.5045 836.885 13.8836C836.249 14.2627 835.753 14.8146 835.396 15.5393C835.051 16.2529 834.878 17.1115 834.878 18.115C834.878 19.1185 835.051 19.9826 835.396 20.7074C835.753 21.421 836.249 21.9729 836.885 22.3631C837.532 22.7422 838.273 22.9318 839.109 22.9318ZM846.676 23.9688V12.2612H848.081L854.319 21.644V12.2612H855.724V23.9688H854.319L848.081 14.586V23.9688H846.676ZM871.179 23.9688L864.806 17.4794C864.293 16.9665 863.925 16.4982 863.702 16.0745C863.479 15.6508 863.368 15.1825 863.368 14.6696C863.368 14.1679 863.491 13.7219 863.736 13.3316C863.981 12.9302 864.327 12.618 864.773 12.395C865.23 12.172 865.776 12.0605 866.412 12.0605C867.025 12.0605 867.555 12.1776 868.001 12.4118C868.458 12.6348 868.809 12.947 869.054 13.3484C869.3 13.7498 869.417 14.2125 869.406 14.7365H868.018C868.018 14.2348 867.856 13.8557 867.532 13.5992C867.22 13.3316 866.847 13.1978 866.412 13.1978C865.899 13.1978 865.492 13.3372 865.191 13.616C864.901 13.8836 864.756 14.2292 864.756 14.6529C864.756 15.0097 864.856 15.3609 865.057 15.7066C865.258 16.0522 865.548 16.4313 865.927 16.8439L872.951 23.9688H871.179ZM865.76 24.1695C864.968 24.1695 864.271 24.0245 863.669 23.7346C863.078 23.4335 862.615 23.0154 862.281 22.4802C861.957 21.945 861.796 21.315 861.796 20.5903C861.796 20.0328 861.907 19.5199 862.13 19.0516C862.364 18.5721 862.71 18.154 863.167 17.7972C863.624 17.4293 864.182 17.1338 864.84 16.9108L865.375 16.7268L866.111 17.6467L865.475 17.8641C864.706 18.1429 864.132 18.5052 863.753 18.9512C863.385 19.3972 863.201 19.9269 863.201 20.5401C863.201 20.9973 863.307 21.4098 863.518 21.7778C863.741 22.1457 864.048 22.4356 864.438 22.6475C864.829 22.8593 865.28 22.9652 865.793 22.9652C866.451 22.9652 867.031 22.8259 867.532 22.5471C868.045 22.2572 868.564 21.7889 869.088 21.1422C869.322 20.8523 869.562 20.5178 869.807 20.1387C870.052 19.7485 870.314 19.3136 870.593 18.8342L871.112 17.9143H872.6L871.848 19.2523C871.546 19.8098 871.245 20.3171 870.944 20.7743C870.654 21.2314 870.359 21.6384 870.058 21.9952C869.422 22.7645 868.759 23.322 868.068 23.6677C867.388 24.0022 866.618 24.1695 865.76 24.1695ZM878.738 23.9688V12.2612H880.377L884.508 20.4398L888.656 12.2612H890.312V23.9688H888.907V14.77L885.044 22.3297H883.99L880.143 14.8034V23.9688H878.738ZM891.881 23.9688L896.196 12.2612H897.685L901.983 23.9688H900.494L896.932 14.0174L893.353 23.9688H891.881ZM893.855 20.9582L894.256 19.8209H899.558L899.959 20.9582H893.855ZM903.573 23.9688V12.2612H904.978L911.216 21.644V12.2612H912.621V23.9688H911.216L904.978 14.586V23.9688H903.573ZM914.217 23.9688L918.532 12.2612H920.02L924.319 23.9688H922.83L919.268 14.0174L915.689 23.9688H914.217ZM916.19 20.9582L916.592 19.8209H921.894L922.295 20.9582H916.19ZM930.273 24.1695C929.18 24.1695 928.222 23.9186 927.396 23.4168C926.571 22.9039 925.93 22.1959 925.473 21.2927C925.016 20.3896 924.787 19.3359 924.787 18.1317C924.787 16.9387 925.016 15.885 925.473 14.9707C925.941 14.0564 926.599 13.3428 927.447 12.8299C928.305 12.317 929.314 12.0605 930.474 12.0605C931.79 12.0605 932.888 12.3783 933.769 13.0139C934.65 13.6383 935.213 14.5135 935.458 15.6397H933.836C933.68 14.9372 933.312 14.3797 932.732 13.9672C932.152 13.5546 931.399 13.3484 930.474 13.3484C929.615 13.3484 928.863 13.5435 928.216 13.9337C927.58 14.3128 927.09 14.8592 926.744 15.5728C926.399 16.2864 926.226 17.1394 926.226 18.1317C926.226 19.1241 926.399 19.9826 926.744 20.7074C927.09 21.421 927.569 21.9673 928.183 22.3464C928.807 22.7255 929.521 22.9151 930.323 22.9151C931.572 22.9151 932.514 22.5471 933.15 21.8112C933.785 21.0753 934.148 20.0774 934.237 18.8174H930.859V17.7136H935.675V23.9688H934.388L934.27 22.0454C933.992 22.5025 933.668 22.8928 933.3 23.2161C932.944 23.5283 932.52 23.768 932.029 23.9353C931.539 24.0914 930.953 24.1695 930.273 24.1695ZM937.746 23.9688V12.2612H944.988V13.4153H939.151V17.4962H944.486V18.6335H939.151V22.8147H944.988V23.9688H937.746ZM947.036 23.9688V12.2612H948.675L952.806 20.4398L956.954 12.2612H958.609V23.9688H957.204V14.77L953.341 22.3297H952.287L948.441 14.8034V23.9688H947.036ZM960.931 23.9688V12.2612H968.173V13.4153H962.336V17.4962H967.671V18.6335H962.336V22.8147H968.173V23.9688H960.931ZM970.221 23.9688V12.2612H971.626L977.864 21.644V12.2612H979.269V23.9688H977.864L971.626 14.586V23.9688H970.221ZM984.36 23.9688V13.4153H980.865V12.2612H989.261V13.4153H985.765V23.9688H984.36Z" fill="white"/>
<line x1="28.8818" y1="367.718" x2="1109.04" y2="367.718" stroke="black" stroke-opacity="0.2" stroke-width="3.25208" stroke-dasharray="6.5 6.5"/>
<path d="M1.07813 363.993C1.07813 363.993 8.97622 371.01 32.2317 366.186C55.4873 361.362 78.304 150.001 108.58 150C138.856 149.999 152.458 298.217 177.469 328.473C202.48 358.73 226.466 341.768 247.674 363.993C268.472 385.788 272.246 434.155 279.706 434.154C287.165 434.153 289.598 424.631 296.818 419.683C333.676 425.823 349.911 579.301 449.076 576.67C651.355 576.67 601.334 278.483 643.018 278.483C684.702 278.483 685.58 677.965 885.665 681.912C1085.75 685.859 1115.15 364.87 1115.15 364.87" stroke="#FA97A3" stroke-width="3.25208"/>
</svg>
