<svg width="74" height="91" viewBox="0 0 74 91" fill="none" xmlns="http://www.w3.org/2000/svg">
<path d="M44.864 89.6H0.768C0.512 89.6 0.32 89.5786 0.192 89.536C0.0640002 89.4506 2.38419e-07 89.3226 2.38419e-07 89.152C2.38419e-07 88.9386 0.0853336 88.7893 0.256 88.704C0.384 88.6186 0.576 88.5546 0.832 88.512L6.336 87.744C7.104 87.6586 7.70133 87.3386 8.128 86.784C8.59733 86.2293 8.96 85.5466 9.216 84.736C9.51467 83.6693 10.0907 81.5573 10.944 78.4C11.84 75.2426 12.8853 71.4026 14.08 66.88C15.3173 62.3573 16.64 57.4933 18.048 52.288C19.456 47.0826 20.864 41.8986 22.272 36.736C23.68 31.5733 24.9813 26.752 26.176 22.272C27.3707 17.792 28.3733 14.016 29.184 10.944C29.9947 7.87197 30.528 5.86664 30.784 4.92797C30.9547 3.94664 30.912 3.2213 30.656 2.75197C30.4 2.28264 29.8027 1.98397 28.864 1.85597L23.488 1.15197C23.1467 1.10931 22.912 1.04531 22.784 0.959969C22.6987 0.831973 22.656 0.703974 22.656 0.575974C22.656 0.36264 22.72 0.213305 22.848 0.127968C23.0187 0.0426356 23.232 -3.05176e-05 23.488 -3.05176e-05H61.056C61.312 -3.05176e-05 61.504 0.0426356 61.632 0.127968C61.76 0.170636 61.824 0.277306 61.824 0.447975C61.824 0.575971 61.76 0.703969 61.632 0.83197C61.504 0.959971 61.2693 1.04531 60.928 1.08797L55.232 1.91997C54.592 2.0053 54.0587 2.30397 53.632 2.81597C53.2053 3.28531 52.864 3.96797 52.608 4.86397C52.3093 5.75997 51.7547 7.72264 50.944 10.752C50.1333 13.7386 49.152 17.4293 48 21.824C46.848 26.176 45.5893 30.8906 44.224 35.968C42.9013 41.0026 41.5787 46.0586 40.256 51.136C38.9333 56.2133 37.696 60.9706 36.544 65.408C35.392 69.8026 34.4107 73.5573 33.6 76.672C32.7893 79.744 32.256 81.792 32 82.816C31.488 84.864 31.5307 86.272 32.128 87.04C32.7253 87.808 33.9627 88.192 35.84 88.192H40.768C44.0533 88.192 47.1893 87.3813 50.176 85.76C53.1627 84.096 56.3413 81.2586 59.712 77.248C63.0827 73.2373 67.008 67.6906 71.488 60.608C71.744 60.224 71.936 59.9466 72.064 59.776C72.192 59.6053 72.3413 59.52 72.512 59.52C72.6827 59.52 72.8107 59.6266 72.896 59.84C72.9813 60.0106 73.0027 60.2666 72.96 60.608C72.4053 66.1546 71.552 70.8693 70.4 74.752C69.2907 78.592 67.904 81.7066 66.24 84.096C64.6187 86.4426 62.7627 88.1706 60.672 89.28C58.624 90.3466 56.3413 90.88 53.824 90.88C52.8 90.88 51.8187 90.7733 50.88 90.56C49.9413 90.3466 48.9813 90.1333 48 89.92C47.0613 89.7066 46.016 89.6 44.864 89.6Z" fill="#D8323C"/>
</svg>
