<?xml version="1.0" encoding="utf-8"?>
<!-- Generator: Adobe Illustrator 27.9.0, SVG Export Plug-In . SVG Version: 6.00 Build 0)  -->
<svg version="1.1" id="Layer_1" xmlns="http://www.w3.org/2000/svg" xmlns:xlink="http://www.w3.org/1999/xlink" x="0px" y="0px"
	 viewBox="20 150 346 58" style="enable-background:new 20 150 346 58;" xml:space="preserve">
<style type="text/css">
	.st0{fill:#5F249F;}
</style>
<g>
	<path d="M33.5,175.8v24.8H24v-44.5h0.2l29.2,25.5v-24.8h9.6v44.5h-0.2L33.5,175.8z M70.6,178.7c0-13.3,10.1-22.7,24.3-22.7
		c4.5,0,8.1,0.8,11.1,2.1v8.9c-2.9-1.5-6.7-2.4-11.1-2.4c-9.3,0-14.7,5.6-14.7,14s5.4,14,14.7,14c4.4,0,8.2-0.8,11.1-2.4v8.9
		c-3,1.4-6.6,2.2-11.1,2.2C80.7,201.4,70.6,192,70.6,178.7L70.6,178.7z M115,156.8h14.7c11.1,0,17.3,6,17.3,15
		c0,5.7-2.7,10.3-8.7,12.5l10.1,16.3h-10.8l-13.1-21.9h5.4c4.7,0,7.5-2.8,7.5-6.9s-2.9-6.9-7.5-6.9h-5.3v35.7H115L115,156.8
		L115,156.8z M161.4,156.8h10.5l11.3,24.4l11.2-24.4h10.5l-21.6,44.6h-0.2L161.4,156.8z M270.4,183.4l-15.9-26.6h10.8l9.8,17.1
		l9.8-17.1h10.8l-15.9,26.6v17.2h-9.5L270.4,183.4L270.4,183.4z M302.5,156.8h9.5v43.8h-9.5V156.8z M340.2,185.3l-10,15.3h-11.3
		l15.5-22.4l-14.8-21.4h11.3l9.4,14.3l9.4-14.3H361l-14.9,21.4l15.5,22.5h-11.3L340.2,185.3L340.2,185.3z"/>
	<path class="st0" d="M224.1,160.8c0,3-2.5,5.3-5.5,5.3s-5.5-2.4-5.5-5.3s2.5-5.3,5.5-5.3C221.6,155.5,224.1,157.9,224.1,160.8z
		 M202.4,171.3c0,3,2.5,5.3,5.5,5.3c3,0,5.5-2.4,5.5-5.3s-2.5-5.3-5.5-5.3C204.8,166,202.4,168.3,202.4,171.3z M202.4,186.1
		c0,3,2.5,5.3,5.5,5.3c3,0,5.5-2.4,5.5-5.3s-2.5-5.3-5.5-5.3C204.8,180.7,202.4,183.1,202.4,186.1z M218.6,201.9
		c3,0,5.5-2.4,5.5-5.3s-2.5-5.3-5.5-5.3s-5.5,2.4-5.5,5.3S215.5,201.9,218.6,201.9z M233.8,201.9c3,0,5.5-2.4,5.5-5.3
		s-2.5-5.3-5.5-5.3c-3,0-5.5,2.4-5.5,5.3S230.7,201.9,233.8,201.9z M250,186.1c0-3-2.5-5.3-5.5-5.3c-3,0-5.5,2.4-5.5,5.3
		s2.5,5.3,5.5,5.3C247.6,191.4,250,189,250,186.1z M250,171.3c0-3-2.5-5.3-5.5-5.3c-3,0-5.5,2.4-5.5,5.3s2.5,5.3,5.5,5.3
		C247.6,176.6,250,174.2,250,171.3z M233.8,155.5c-3,0-5.5,2.4-5.5,5.3s2.5,5.3,5.5,5.3s5.5-2.4,5.5-5.3
		C239.3,157.9,236.8,155.5,233.8,155.5z"/>
</g>
</svg>
