<svg width="407" height="667" viewBox="0 0 407 667" fill="none" xmlns="http://www.w3.org/2000/svg">
<path d="M386.235 0C397.281 0 406.235 8.95431 406.235 20V647C406.235 658.046 397.281 667 386.235 667H20C8.95431 667 0 658.046 0 647V20C1.12752e-06 8.95431 8.95431 3.65191e-07 20 0H386.235ZM44.0732 23.2139C33.0275 23.2139 24.0732 32.1682 24.0732 43.2139V619.144C24.0732 630.189 33.0275 639.144 44.0732 639.144H362.914C373.96 639.144 382.914 630.189 382.914 619.144V43.2139C382.914 32.1682 373.96 23.2139 362.914 23.2139H44.0732Z" fill="#2C2C2C"/>
</svg>
