<svg preserveAspectRatio="none" width="100%" height="100%" overflow="visible" style="display: block;" viewBox="0 0 117.172 16.1043" fill="none" xmlns="http://www.w3.org/2000/svg">
<g id="Group">
<path id="Vector" d="M3.29721 7.04514V15.6526H0V0.20777H0.0694152L10.204 9.05817V0.450721H13.5359V15.8955H13.4665L3.29721 7.04514ZM16.1737 8.05165C16.1737 3.43556 19.6791 0.173061 24.6076 0.173061C26.1694 0.173061 27.4189 0.450722 28.4601 0.90192V3.99088C27.4536 3.47027 26.1347 3.15791 24.6076 3.15791C21.3798 3.15791 19.5056 5.10152 19.5056 8.01695C19.5056 10.9324 21.3798 12.876 24.6076 12.876C26.1347 12.876 27.4536 12.5983 28.4601 12.043V15.132C27.4189 15.6179 26.1694 15.8955 24.6076 15.8955C19.6791 15.9303 16.1737 12.6677 16.1737 8.05165ZM31.5838 0.450721H36.6858C40.5383 0.450721 42.6902 2.53317 42.6902 5.65684C42.6902 7.63517 41.7531 9.23171 39.6706 9.99528L43.1761 15.6526H39.4277L34.881 8.05165H36.7552C38.3865 8.05165 39.3583 7.07985 39.3583 5.65684C39.3583 4.23384 38.3517 3.26202 36.7552 3.26202H34.9157V15.6526H31.5838V0.450721ZM47.6881 0.450721H51.3323L55.2543 8.91934L59.1415 0.450721H62.7858L55.289 15.9302H55.2196L47.6881 0.450721ZM85.5192 9.6829L80.0007 0.450721H83.7491L87.1504 6.3857L90.5518 0.450721H94.3002L88.7817 9.6829V15.6526H85.4845L85.5192 9.6829ZM96.6603 0.450721H99.9575V15.6526H96.6603V0.450721ZM109.745 10.3423L106.274 15.6526H102.352L107.732 7.87812L102.595 0.450721H106.517L109.78 5.41389L113.042 0.450721H116.964L111.793 7.87812L117.172 15.6873H113.25L109.745 10.3423Z" fill="var(--fill-0, black)"/>
<path id="Vector_2" d="M69.4497 1.8395C69.4497 2.88072 68.582 3.67899 67.5408 3.67899C66.4995 3.67899 65.6319 2.84601 65.6319 1.8395C65.6319 0.83298 66.4995 0 67.5408 0C68.582 0 69.4497 0.83298 69.4497 1.8395ZM61.9181 5.48378C61.9181 6.52501 62.7858 7.32328 63.8271 7.32328C64.8683 7.32328 65.736 6.4903 65.736 5.48378C65.736 4.47726 64.8683 3.64428 63.8271 3.64428C62.7511 3.64428 61.9181 4.44256 61.9181 5.48378ZM61.9181 10.6205C61.9181 11.6617 62.7858 12.46 63.8271 12.46C64.8683 12.46 65.736 11.627 65.736 10.6205C65.736 9.61397 64.8683 8.78099 63.8271 8.78099C62.7511 8.74628 61.9181 9.57926 61.9181 10.6205ZM67.5408 16.1043C68.582 16.1043 69.4497 15.2713 69.4497 14.2648C69.4497 13.2583 68.582 12.4253 67.5408 12.4253C66.4995 12.4253 65.6319 13.2583 65.6319 14.2648C65.6319 15.2713 66.4648 16.1043 67.5408 16.1043ZM72.8163 16.1043C73.8575 16.1043 74.7252 15.2713 74.7252 14.2648C74.7252 13.2583 73.8575 12.4253 72.8163 12.4253C71.7751 12.4253 70.9074 13.2583 70.9074 14.2648C70.9074 15.2713 71.7404 16.1043 72.8163 16.1043ZM78.4389 10.6205C78.4389 9.57926 77.5712 8.78099 76.53 8.78099C75.4888 8.78099 74.6211 9.61397 74.6211 10.6205C74.6211 11.627 75.4888 12.46 76.53 12.46C77.6059 12.46 78.4389 11.627 78.4389 10.6205ZM78.4389 5.48378C78.4389 4.44256 77.5712 3.64428 76.53 3.64428C75.4888 3.64428 74.6211 4.47726 74.6211 5.48378C74.6211 6.4903 75.4888 7.32328 76.53 7.32328C77.6059 7.32328 78.4389 6.4903 78.4389 5.48378ZM72.8163 0C71.7751 0 70.9074 0.83298 70.9074 1.8395C70.9074 2.84601 71.7751 3.67899 72.8163 3.67899C73.8575 3.67899 74.7252 2.84601 74.7252 1.8395C74.7252 0.83298 73.8575 0 72.8163 0Z" fill="var(--fill-0, #5F249F)"/>
</g>
</svg>
