<svg width="1200" height="614" viewBox="0 0 1200 614" fill="none" xmlns="http://www.w3.org/2000/svg">
<rect x="512" y="525.272" width="176" height="88" rx="6" fill="#BDE3FF"/>
<path d="M583.766 574.464C582.721 574.464 581.803 574.224 581.014 573.744C580.225 573.264 579.611 572.592 579.174 571.728C578.737 570.864 578.518 569.856 578.518 568.704C578.518 567.563 578.737 566.555 579.174 565.68C579.622 564.806 580.257 564.123 581.078 563.632C581.91 563.131 582.891 562.88 584.022 562.88C585.291 562.88 586.353 563.19 587.206 563.808C588.059 564.416 588.603 565.264 588.838 566.352H587.03C586.87 565.734 586.529 565.248 586.006 564.896C585.494 564.534 584.827 564.352 584.006 564.352C583.217 564.352 582.529 564.528 581.942 564.88C581.366 565.232 580.923 565.734 580.614 566.384C580.305 567.035 580.15 567.808 580.15 568.704C580.15 569.611 580.305 570.39 580.614 571.04C580.923 571.691 581.355 572.187 581.91 572.528C582.475 572.87 583.131 573.04 583.878 573.04C584.998 573.04 585.846 572.715 586.422 572.064C586.998 571.414 587.334 570.544 587.43 569.456H584.342V568.224H589.046V574.272H587.574L587.446 572.56C587.19 572.976 586.891 573.328 586.55 573.616C586.219 573.894 585.825 574.107 585.366 574.256C584.918 574.395 584.385 574.464 583.766 574.464ZM593.841 574.464C593.211 574.464 592.667 574.336 592.209 574.08C591.75 573.824 591.393 573.44 591.137 572.928C590.891 572.406 590.769 571.755 590.769 570.976V566.24H592.369V570.816C592.369 571.574 592.529 572.144 592.849 572.528C593.179 572.912 593.654 573.104 594.273 573.104C594.699 573.104 595.078 573.003 595.409 572.8C595.75 572.598 596.017 572.304 596.209 571.92C596.401 571.536 596.497 571.067 596.497 570.512V566.24H598.097V574.272H596.673L596.561 572.896C596.315 573.376 595.953 573.76 595.473 574.048C595.003 574.326 594.459 574.464 593.841 574.464ZM603.76 574.464C602.981 574.464 602.293 574.294 601.696 573.952C601.098 573.6 600.629 573.11 600.288 572.48C599.957 571.851 599.792 571.115 599.792 570.272C599.792 569.43 599.957 568.694 600.288 568.064C600.629 567.435 601.098 566.944 601.696 566.592C602.293 566.23 602.986 566.048 603.776 566.048C604.565 566.048 605.242 566.224 605.808 566.576C606.373 566.918 606.81 567.382 607.12 567.968C607.429 568.544 607.584 569.184 607.584 569.888C607.584 569.995 607.584 570.112 607.584 570.24C607.584 570.358 607.573 570.486 607.552 570.624H600.96V569.504H605.984C605.952 568.843 605.728 568.326 605.312 567.952C604.896 567.568 604.378 567.376 603.76 567.376C603.333 567.376 602.933 567.472 602.56 567.664C602.197 567.856 601.904 568.144 601.68 568.528C601.466 568.902 601.36 569.376 601.36 569.952V570.4C601.36 570.998 601.466 571.499 601.68 571.904C601.904 572.31 602.197 572.619 602.56 572.832C602.922 573.035 603.317 573.136 603.744 573.136C604.256 573.136 604.677 573.024 605.008 572.8C605.349 572.566 605.6 572.256 605.76 571.872H607.36C607.21 572.374 606.97 572.822 606.64 573.216C606.32 573.6 605.914 573.904 605.424 574.128C604.944 574.352 604.389 574.464 603.76 574.464ZM612.305 574.464C611.633 574.464 611.036 574.352 610.513 574.128C610.001 573.904 609.596 573.59 609.297 573.184C608.999 572.779 608.817 572.304 608.753 571.76H610.369C610.433 572.016 610.54 572.251 610.689 572.464C610.849 572.678 611.063 572.848 611.329 572.976C611.607 573.104 611.932 573.168 612.305 573.168C612.657 573.168 612.945 573.12 613.169 573.024C613.393 572.918 613.559 572.779 613.665 572.608C613.783 572.427 613.841 572.24 613.841 572.048C613.841 571.75 613.767 571.526 613.617 571.376C613.479 571.216 613.265 571.094 612.977 571.008C612.7 570.912 612.359 570.827 611.953 570.752C611.601 570.678 611.249 570.587 610.897 570.48C610.556 570.374 610.247 570.235 609.969 570.064C609.692 569.894 609.473 569.68 609.313 569.424C609.153 569.158 609.073 568.838 609.073 568.464C609.073 567.995 609.196 567.579 609.441 567.216C609.687 566.854 610.033 566.571 610.481 566.368C610.94 566.155 611.479 566.048 612.097 566.048C612.983 566.048 613.697 566.262 614.241 566.688C614.796 567.104 615.116 567.702 615.201 568.48H613.665C613.612 568.128 613.447 567.851 613.169 567.648C612.903 567.446 612.54 567.344 612.081 567.344C611.623 567.344 611.271 567.44 611.025 567.632C610.78 567.814 610.657 568.048 610.657 568.336C610.657 568.528 610.727 568.699 610.865 568.848C611.015 568.998 611.223 569.126 611.489 569.232C611.767 569.328 612.097 569.419 612.481 569.504C613.036 569.611 613.537 569.744 613.985 569.904C614.433 570.054 614.791 570.283 615.057 570.592C615.335 570.902 615.473 571.344 615.473 571.92C615.473 572.422 615.345 572.864 615.089 573.248C614.833 573.632 614.465 573.931 613.985 574.144C613.516 574.358 612.956 574.464 612.305 574.464ZM620.165 574.272C619.664 574.272 619.221 574.192 618.837 574.032C618.464 573.872 618.176 573.606 617.973 573.232C617.781 572.859 617.685 572.352 617.685 571.712V567.584H616.293V566.24H617.685L617.877 564.224H619.285V566.24H621.557V567.584H619.285V571.728C619.285 572.187 619.376 572.502 619.557 572.672C619.749 572.832 620.08 572.912 620.549 572.912H621.477V574.272H620.165Z" fill="black" fill-opacity="0.8"/>
<rect x="512" y="357.272" width="176" height="88" rx="6" fill="#BDE3FF"/>
<path d="M581.092 406.464C580.281 406.464 579.567 406.32 578.948 406.032C578.329 405.734 577.849 405.318 577.508 404.784C577.167 404.251 576.996 403.627 576.996 402.912H578.676C578.676 403.318 578.772 403.691 578.964 404.032C579.156 404.363 579.428 404.63 579.78 404.832C580.143 405.024 580.58 405.12 581.092 405.12C581.551 405.12 581.94 405.046 582.26 404.896C582.58 404.747 582.825 404.544 582.996 404.288C583.177 404.022 583.268 403.718 583.268 403.376C583.268 402.982 583.177 402.656 582.996 402.4C582.815 402.144 582.569 401.936 582.26 401.776C581.951 401.606 581.599 401.456 581.204 401.328C580.809 401.2 580.388 401.062 579.94 400.912C579.065 400.614 578.409 400.24 577.972 399.792C577.545 399.334 577.332 398.736 577.332 398C577.332 397.371 577.476 396.827 577.764 396.368C578.063 395.899 578.484 395.536 579.028 395.28C579.572 395.014 580.212 394.88 580.948 394.88C581.673 394.88 582.303 395.014 582.836 395.28C583.38 395.547 583.807 395.915 584.116 396.384C584.425 396.854 584.585 397.403 584.596 398.032H582.9C582.9 397.744 582.825 397.462 582.676 397.184C582.527 396.907 582.303 396.683 582.004 396.512C581.705 396.331 581.337 396.24 580.9 396.24C580.537 396.23 580.212 396.288 579.924 396.416C579.636 396.544 579.407 396.731 579.236 396.976C579.076 397.222 578.996 397.515 578.996 397.856C578.996 398.198 579.071 398.475 579.22 398.688C579.369 398.891 579.583 399.067 579.86 399.216C580.137 399.366 580.457 399.504 580.82 399.632C581.193 399.75 581.604 399.883 582.052 400.032C582.596 400.214 583.087 400.438 583.524 400.704C583.961 400.96 584.303 401.296 584.548 401.712C584.804 402.118 584.932 402.64 584.932 403.28C584.932 403.835 584.788 404.352 584.5 404.832C584.212 405.312 583.785 405.707 583.22 406.016C582.655 406.315 581.945 406.464 581.092 406.464ZM590.243 406.464C589.464 406.464 588.776 406.294 588.179 405.952C587.581 405.6 587.112 405.11 586.771 404.48C586.44 403.851 586.275 403.115 586.275 402.272C586.275 401.43 586.44 400.694 586.771 400.064C587.112 399.435 587.581 398.944 588.179 398.592C588.776 398.23 589.469 398.048 590.259 398.048C591.048 398.048 591.725 398.224 592.291 398.576C592.856 398.918 593.293 399.382 593.603 399.968C593.912 400.544 594.067 401.184 594.067 401.888C594.067 401.995 594.067 402.112 594.067 402.24C594.067 402.358 594.056 402.486 594.035 402.624H587.443V401.504H592.467C592.435 400.843 592.211 400.326 591.795 399.952C591.379 399.568 590.861 399.376 590.243 399.376C589.816 399.376 589.416 399.472 589.043 399.664C588.68 399.856 588.387 400.144 588.163 400.528C587.949 400.902 587.843 401.376 587.843 401.952V402.4C587.843 402.998 587.949 403.499 588.163 403.904C588.387 404.31 588.68 404.619 589.043 404.832C589.405 405.035 589.8 405.136 590.227 405.136C590.739 405.136 591.16 405.024 591.491 404.8C591.832 404.566 592.083 404.256 592.243 403.872H593.843C593.693 404.374 593.453 404.822 593.123 405.216C592.803 405.6 592.397 405.904 591.907 406.128C591.427 406.352 590.872 406.464 590.243 406.464ZM595.668 406.272V398.24H597.108L597.252 399.76C597.434 399.398 597.663 399.094 597.94 398.848C598.228 398.592 598.564 398.395 598.948 398.256C599.343 398.118 599.786 398.048 600.276 398.048V399.728H599.748C599.407 399.728 599.087 399.771 598.788 399.856C598.49 399.942 598.223 400.08 597.988 400.272C597.764 400.464 597.588 400.726 597.46 401.056C597.332 401.387 597.268 401.798 597.268 402.288V406.272H595.668ZM603.858 406.272L600.85 398.24H602.53L604.802 404.736L607.106 398.24H608.754L605.746 406.272H603.858ZM613.293 406.464C612.514 406.464 611.826 406.294 611.229 405.952C610.631 405.6 610.162 405.11 609.821 404.48C609.49 403.851 609.325 403.115 609.325 402.272C609.325 401.43 609.49 400.694 609.821 400.064C610.162 399.435 610.631 398.944 611.229 398.592C611.826 398.23 612.519 398.048 613.309 398.048C614.098 398.048 614.775 398.224 615.341 398.576C615.906 398.918 616.343 399.382 616.653 399.968C616.962 400.544 617.117 401.184 617.117 401.888C617.117 401.995 617.117 402.112 617.117 402.24C617.117 402.358 617.106 402.486 617.085 402.624H610.493V401.504H615.517C615.485 400.843 615.261 400.326 614.845 399.952C614.429 399.568 613.911 399.376 613.293 399.376C612.866 399.376 612.466 399.472 612.093 399.664C611.73 399.856 611.437 400.144 611.213 400.528C610.999 400.902 610.893 401.376 610.893 401.952V402.4C610.893 402.998 610.999 403.499 611.213 403.904C611.437 404.31 611.73 404.619 612.093 404.832C612.455 405.035 612.85 405.136 613.277 405.136C613.789 405.136 614.21 405.024 614.541 404.8C614.882 404.566 615.133 404.256 615.293 403.872H616.893C616.743 404.374 616.503 404.822 616.173 405.216C615.853 405.6 615.447 405.904 614.957 406.128C614.477 406.352 613.922 406.464 613.293 406.464ZM618.718 406.272V398.24H620.158L620.302 399.76C620.484 399.398 620.713 399.094 620.99 398.848C621.278 398.592 621.614 398.395 621.998 398.256C622.393 398.118 622.836 398.048 623.326 398.048V399.728H622.798C622.457 399.728 622.137 399.771 621.838 399.856C621.54 399.942 621.273 400.08 621.038 400.272C620.814 400.464 620.638 400.726 620.51 401.056C620.382 401.387 620.318 401.798 620.318 402.288V406.272H618.718Z" fill="black" fill-opacity="0.8"/>
<rect x="512" y="189" width="176" height="88" rx="6" fill="#BDE3FF"/>
<path d="M556.272 238V226.8H560.096C560.982 226.8 561.713 226.949 562.289 227.248C562.865 227.536 563.291 227.936 563.569 228.448C563.857 228.949 564.001 229.515 564.001 230.144C564.001 230.763 563.862 231.328 563.585 231.84C563.318 232.341 562.896 232.747 562.321 233.056C561.745 233.355 561.003 233.504 560.096 233.504H557.872V238H556.272ZM557.872 232.176H560.033C560.865 232.176 561.457 231.995 561.809 231.632C562.171 231.259 562.352 230.763 562.352 230.144C562.352 229.504 562.171 229.008 561.809 228.656C561.457 228.304 560.865 228.128 560.033 228.128H557.872V232.176ZM570.606 238.192C569.528 238.192 568.579 237.952 567.758 237.472C566.936 236.981 566.291 236.304 565.822 235.44C565.363 234.565 565.134 233.552 565.134 232.4C565.134 231.259 565.363 230.256 565.822 229.392C566.291 228.517 566.936 227.835 567.758 227.344C568.579 226.853 569.528 226.608 570.606 226.608C571.704 226.608 572.664 226.853 573.486 227.344C574.318 227.835 574.958 228.517 575.406 229.392C575.864 230.256 576.094 231.259 576.094 232.4C576.094 233.552 575.864 234.565 575.406 235.44C574.958 236.304 574.318 236.981 573.486 237.472C572.664 237.952 571.704 238.192 570.606 238.192ZM570.622 236.768C571.39 236.768 572.062 236.592 572.638 236.24C573.224 235.888 573.672 235.387 573.982 234.736C574.302 234.085 574.462 233.307 574.462 232.4C574.462 231.493 574.302 230.715 573.982 230.064C573.672 229.413 573.224 228.917 572.638 228.576C572.062 228.224 571.39 228.048 570.622 228.048C569.854 228.048 569.176 228.224 568.59 228.576C568.014 228.917 567.566 229.413 567.246 230.064C566.926 230.715 566.766 231.493 566.766 232.4C566.766 233.307 566.926 234.085 567.246 234.736C567.566 235.387 568.014 235.888 568.59 236.24C569.176 236.592 569.854 236.768 570.622 236.768ZM581.49 238.192C580.68 238.192 579.965 238.048 579.346 237.76C578.728 237.461 578.248 237.045 577.906 236.512C577.565 235.979 577.394 235.355 577.394 234.64H579.074C579.074 235.045 579.17 235.419 579.362 235.76C579.554 236.091 579.826 236.357 580.178 236.56C580.541 236.752 580.978 236.848 581.49 236.848C581.949 236.848 582.338 236.773 582.658 236.624C582.978 236.475 583.224 236.272 583.394 236.016C583.576 235.749 583.666 235.445 583.666 235.104C583.666 234.709 583.576 234.384 583.394 234.128C583.213 233.872 582.968 233.664 582.658 233.504C582.349 233.333 581.997 233.184 581.602 233.056C581.208 232.928 580.786 232.789 580.338 232.64C579.464 232.341 578.808 231.968 578.37 231.52C577.944 231.061 577.73 230.464 577.73 229.728C577.73 229.099 577.874 228.555 578.162 228.096C578.461 227.627 578.882 227.264 579.426 227.008C579.97 226.741 580.61 226.608 581.346 226.608C582.072 226.608 582.701 226.741 583.234 227.008C583.778 227.275 584.205 227.643 584.514 228.112C584.824 228.581 584.984 229.131 584.994 229.76H583.298C583.298 229.472 583.224 229.189 583.074 228.912C582.925 228.635 582.701 228.411 582.402 228.24C582.104 228.059 581.736 227.968 581.298 227.968C580.936 227.957 580.61 228.016 580.322 228.144C580.034 228.272 579.805 228.459 579.634 228.704C579.474 228.949 579.394 229.243 579.394 229.584C579.394 229.925 579.469 230.203 579.618 230.416C579.768 230.619 579.981 230.795 580.258 230.944C580.536 231.093 580.856 231.232 581.218 231.36C581.592 231.477 582.002 231.611 582.45 231.76C582.994 231.941 583.485 232.165 583.922 232.432C584.36 232.688 584.701 233.024 584.946 233.44C585.202 233.845 585.33 234.368 585.33 235.008C585.33 235.563 585.186 236.08 584.898 236.56C584.61 237.04 584.184 237.435 583.618 237.744C583.053 238.043 582.344 238.192 581.49 238.192ZM594.623 238.192C593.812 238.192 593.097 238.048 592.479 237.76C591.86 237.461 591.38 237.045 591.039 236.512C590.697 235.979 590.527 235.355 590.527 234.64H592.207C592.207 235.045 592.303 235.419 592.495 235.76C592.687 236.091 592.959 236.357 593.311 236.56C593.673 236.752 594.111 236.848 594.623 236.848C595.081 236.848 595.471 236.773 595.791 236.624C596.111 236.475 596.356 236.272 596.527 236.016C596.708 235.749 596.799 235.445 596.799 235.104C596.799 234.709 596.708 234.384 596.527 234.128C596.345 233.872 596.1 233.664 595.791 233.504C595.481 233.333 595.129 233.184 594.735 233.056C594.34 232.928 593.919 232.789 593.471 232.64C592.596 232.341 591.94 231.968 591.503 231.52C591.076 231.061 590.863 230.464 590.863 229.728C590.863 229.099 591.007 228.555 591.295 228.096C591.593 227.627 592.015 227.264 592.559 227.008C593.103 226.741 593.743 226.608 594.479 226.608C595.204 226.608 595.833 226.741 596.367 227.008C596.911 227.275 597.337 227.643 597.647 228.112C597.956 228.581 598.116 229.131 598.127 229.76H596.431C596.431 229.472 596.356 229.189 596.207 228.912C596.057 228.635 595.833 228.411 595.535 228.24C595.236 228.059 594.868 227.968 594.431 227.968C594.068 227.957 593.743 228.016 593.455 228.144C593.167 228.272 592.937 228.459 592.767 228.704C592.607 228.949 592.527 229.243 592.527 229.584C592.527 229.925 592.601 230.203 592.751 230.416C592.9 230.619 593.113 230.795 593.391 230.944C593.668 231.093 593.988 231.232 594.351 231.36C594.724 231.477 595.135 231.611 595.583 231.76C596.127 231.941 596.617 232.165 597.055 232.432C597.492 232.688 597.833 233.024 598.079 233.44C598.335 233.845 598.463 234.368 598.463 235.008C598.463 235.563 598.319 236.08 598.031 236.56C597.743 237.04 597.316 237.435 596.751 237.744C596.185 238.043 595.476 238.192 594.623 238.192ZM601.037 241.52L603.005 237.104H602.525L599.341 229.968H601.085L603.613 235.792L606.157 229.968H607.837L602.717 241.52H601.037ZM611.757 238.192C611.085 238.192 610.487 238.08 609.965 237.856C609.453 237.632 609.047 237.317 608.749 236.912C608.45 236.507 608.269 236.032 608.205 235.488H609.821C609.885 235.744 609.991 235.979 610.141 236.192C610.301 236.405 610.514 236.576 610.781 236.704C611.058 236.832 611.383 236.896 611.757 236.896C612.109 236.896 612.397 236.848 612.621 236.752C612.845 236.645 613.01 236.507 613.117 236.336C613.234 236.155 613.293 235.968 613.293 235.776C613.293 235.477 613.218 235.253 613.069 235.104C612.93 234.944 612.717 234.821 612.429 234.736C612.151 234.64 611.81 234.555 611.405 234.48C611.053 234.405 610.701 234.315 610.349 234.208C610.007 234.101 609.698 233.963 609.421 233.792C609.143 233.621 608.925 233.408 608.765 233.152C608.605 232.885 608.525 232.565 608.525 232.192C608.525 231.723 608.647 231.307 608.893 230.944C609.138 230.581 609.485 230.299 609.933 230.096C610.391 229.883 610.93 229.776 611.549 229.776C612.434 229.776 613.149 229.989 613.693 230.416C614.247 230.832 614.567 231.429 614.653 232.208H613.117C613.063 231.856 612.898 231.579 612.621 231.376C612.354 231.173 611.991 231.072 611.533 231.072C611.074 231.072 610.722 231.168 610.477 231.36C610.231 231.541 610.109 231.776 610.109 232.064C610.109 232.256 610.178 232.427 610.317 232.576C610.466 232.725 610.674 232.853 610.941 232.96C611.218 233.056 611.549 233.147 611.933 233.232C612.487 233.339 612.989 233.472 613.437 233.632C613.885 233.781 614.242 234.011 614.509 234.32C614.786 234.629 614.925 235.072 614.925 235.648C614.925 236.149 614.797 236.592 614.541 236.976C614.285 237.36 613.917 237.659 613.437 237.872C612.967 238.085 612.407 238.192 611.757 238.192ZM619.616 238C619.115 238 618.672 237.92 618.288 237.76C617.915 237.6 617.627 237.333 617.424 236.96C617.232 236.587 617.136 236.08 617.136 235.44V231.312H615.744V229.968H617.136L617.328 227.952H618.736V229.968H621.008V231.312H618.736V235.456C618.736 235.915 618.827 236.229 619.008 236.4C619.2 236.56 619.531 236.64 620 236.64H620.928V238H619.616ZM626.042 238.192C625.264 238.192 624.576 238.021 623.978 237.68C623.381 237.328 622.912 236.837 622.57 236.208C622.24 235.579 622.074 234.843 622.074 234C622.074 233.157 622.24 232.421 622.57 231.792C622.912 231.163 623.381 230.672 623.978 230.32C624.576 229.957 625.269 229.776 626.058 229.776C626.848 229.776 627.525 229.952 628.09 230.304C628.656 230.645 629.093 231.109 629.402 231.696C629.712 232.272 629.866 232.912 629.866 233.616C629.866 233.723 629.866 233.84 629.866 233.968C629.866 234.085 629.856 234.213 629.834 234.352H623.242V233.232H628.266C628.234 232.571 628.01 232.053 627.594 231.68C627.178 231.296 626.661 231.104 626.042 231.104C625.616 231.104 625.216 231.2 624.842 231.392C624.48 231.584 624.186 231.872 623.962 232.256C623.749 232.629 623.642 233.104 623.642 233.68V234.128C623.642 234.725 623.749 235.227 623.962 235.632C624.186 236.037 624.48 236.347 624.842 236.56C625.205 236.763 625.6 236.864 626.026 236.864C626.538 236.864 626.96 236.752 627.29 236.528C627.632 236.293 627.882 235.984 628.042 235.6H629.642C629.493 236.101 629.253 236.549 628.922 236.944C628.602 237.328 628.197 237.632 627.706 237.856C627.226 238.08 626.672 238.192 626.042 238.192ZM631.468 238V229.968H632.908L633.02 231.088C633.276 230.683 633.617 230.363 634.044 230.128C634.471 229.893 634.951 229.776 635.484 229.776C635.889 229.776 636.257 229.829 636.588 229.936C636.929 230.043 637.228 230.208 637.484 230.432C637.74 230.656 637.948 230.939 638.108 231.28C638.385 230.8 638.764 230.432 639.244 230.176C639.735 229.909 640.257 229.776 640.812 229.776C641.463 229.776 642.023 229.904 642.492 230.16C642.961 230.416 643.319 230.805 643.564 231.328C643.809 231.851 643.932 232.501 643.932 233.28V238H642.348V233.44C642.348 232.683 642.193 232.112 641.884 231.728C641.585 231.333 641.143 231.136 640.556 231.136C640.161 231.136 639.809 231.237 639.5 231.44C639.191 231.643 638.945 231.941 638.764 232.336C638.593 232.72 638.508 233.189 638.508 233.744V238H636.908V233.44C636.908 232.683 636.753 232.112 636.444 231.728C636.135 231.333 635.692 231.136 635.116 231.136C634.732 231.136 634.385 231.237 634.076 231.44C633.767 231.643 633.521 231.941 633.34 232.336C633.159 232.72 633.068 233.189 633.068 233.744V238H631.468Z" fill="black" fill-opacity="0.8"/>
<rect x="1024" y="357.272" width="176" height="88" rx="6" fill="#BDE3FF"/>
<path d="M1096.67 406.272V395.072H1100.82C1101.59 395.072 1102.25 395.2 1102.77 395.456C1103.29 395.702 1103.68 396.043 1103.94 396.48C1104.2 396.907 1104.34 397.392 1104.34 397.936C1104.34 398.502 1104.21 398.976 1103.97 399.36C1103.72 399.744 1103.4 400.043 1102.99 400.256C1102.59 400.459 1102.16 400.576 1101.71 400.608L1101.94 400.448C1102.43 400.459 1102.87 400.592 1103.28 400.848C1103.69 401.094 1104.01 401.424 1104.24 401.84C1104.47 402.256 1104.59 402.715 1104.59 403.216C1104.59 403.792 1104.45 404.315 1104.18 404.784C1103.9 405.243 1103.49 405.606 1102.94 405.872C1102.4 406.139 1101.73 406.272 1100.94 406.272H1096.67ZM1098.27 404.944H1100.74C1101.44 404.944 1101.98 404.784 1102.37 404.464C1102.76 404.134 1102.96 403.67 1102.96 403.072C1102.96 402.486 1102.76 402.016 1102.35 401.664C1101.96 401.312 1101.41 401.136 1100.7 401.136H1098.27V404.944ZM1098.27 399.904H1100.64C1101.31 399.904 1101.82 399.75 1102.18 399.44C1102.53 399.12 1102.7 398.683 1102.7 398.128C1102.7 397.595 1102.53 397.174 1102.18 396.864C1101.82 396.544 1101.3 396.384 1100.59 396.384H1098.27V399.904ZM1111.38 406.464C1110.3 406.464 1109.35 406.224 1108.53 405.744C1107.71 405.254 1107.07 404.576 1106.6 403.712C1106.14 402.838 1105.91 401.824 1105.91 400.672C1105.91 399.531 1106.14 398.528 1106.6 397.664C1107.07 396.79 1107.71 396.107 1108.53 395.616C1109.35 395.126 1110.3 394.88 1111.38 394.88C1112.48 394.88 1113.44 395.126 1114.26 395.616C1115.09 396.107 1115.73 396.79 1116.18 397.664C1116.64 398.528 1116.87 399.531 1116.87 400.672C1116.87 401.824 1116.64 402.838 1116.18 403.712C1115.73 404.576 1115.09 405.254 1114.26 405.744C1113.44 406.224 1112.48 406.464 1111.38 406.464ZM1111.4 405.04C1112.16 405.04 1112.84 404.864 1113.41 404.512C1114 404.16 1114.45 403.659 1114.76 403.008C1115.08 402.358 1115.24 401.579 1115.24 400.672C1115.24 399.766 1115.08 398.987 1114.76 398.336C1114.45 397.686 1114 397.19 1113.41 396.848C1112.84 396.496 1112.16 396.32 1111.4 396.32C1110.63 396.32 1109.95 396.496 1109.36 396.848C1108.79 397.19 1108.34 397.686 1108.02 398.336C1107.7 398.987 1107.54 399.766 1107.54 400.672C1107.54 401.579 1107.7 402.358 1108.02 403.008C1108.34 403.659 1108.79 404.16 1109.36 404.512C1109.95 404.864 1110.63 405.04 1111.4 405.04ZM1125.74 406.272V395.072H1127.34V406.272H1125.74ZM1118.62 406.272V395.072H1120.22V406.272H1118.62ZM1119.95 401.216V399.904H1126.07V401.216H1119.95Z" fill="black" fill-opacity="0.8"/>
<rect x="512" width="176" height="88" rx="6" fill="#BDE3FF"/>
<path d="M546.771 49V37.8H550.595C551.48 37.8 552.211 37.9493 552.787 38.248C553.363 38.536 553.79 38.936 554.067 39.448C554.355 39.9493 554.499 40.5147 554.499 41.144C554.499 41.7627 554.36 42.328 554.083 42.84C553.816 43.3413 553.395 43.7467 552.819 44.056C552.243 44.3547 551.502 44.504 550.595 44.504H548.371V49H546.771ZM548.371 43.176H550.531C551.363 43.176 551.955 42.9947 552.307 42.632C552.67 42.2587 552.851 41.7627 552.851 41.144C552.851 40.504 552.67 40.008 552.307 39.656C551.955 39.304 551.363 39.128 550.531 39.128H548.371V43.176ZM561.104 49.192C560.027 49.192 559.077 48.952 558.256 48.472C557.435 47.9813 556.789 47.304 556.32 46.44C555.861 45.5653 555.632 44.552 555.632 43.4C555.632 42.2587 555.861 41.256 556.32 40.392C556.789 39.5173 557.435 38.8347 558.256 38.344C559.077 37.8533 560.027 37.608 561.104 37.608C562.203 37.608 563.163 37.8533 563.984 38.344C564.816 38.8347 565.456 39.5173 565.904 40.392C566.363 41.256 566.592 42.2587 566.592 43.4C566.592 44.552 566.363 45.5653 565.904 46.44C565.456 47.304 564.816 47.9813 563.984 48.472C563.163 48.952 562.203 49.192 561.104 49.192ZM561.12 47.768C561.888 47.768 562.56 47.592 563.136 47.24C563.723 46.888 564.171 46.3867 564.48 45.736C564.8 45.0853 564.96 44.3067 564.96 43.4C564.96 42.4933 564.8 41.7147 564.48 41.064C564.171 40.4133 563.723 39.9173 563.136 39.576C562.56 39.224 561.888 39.048 561.12 39.048C560.352 39.048 559.675 39.224 559.088 39.576C558.512 39.9173 558.064 40.4133 557.744 41.064C557.424 41.7147 557.264 42.4933 557.264 43.4C557.264 44.3067 557.424 45.0853 557.744 45.736C558.064 46.3867 558.512 46.888 559.088 47.24C559.675 47.592 560.352 47.768 561.12 47.768ZM571.989 49.192C571.178 49.192 570.463 49.048 569.845 48.76C569.226 48.4613 568.746 48.0453 568.405 47.512C568.063 46.9787 567.893 46.3547 567.893 45.64H569.573C569.573 46.0453 569.669 46.4187 569.861 46.76C570.053 47.0907 570.325 47.3573 570.677 47.56C571.039 47.752 571.477 47.848 571.989 47.848C572.447 47.848 572.837 47.7733 573.157 47.624C573.477 47.4747 573.722 47.272 573.893 47.016C574.074 46.7493 574.165 46.4453 574.165 46.104C574.165 45.7093 574.074 45.384 573.893 45.128C573.711 44.872 573.466 44.664 573.157 44.504C572.847 44.3333 572.495 44.184 572.101 44.056C571.706 43.928 571.285 43.7893 570.837 43.64C569.962 43.3413 569.306 42.968 568.869 42.52C568.442 42.0613 568.229 41.464 568.229 40.728C568.229 40.0987 568.373 39.5547 568.661 39.096C568.959 38.6267 569.381 38.264 569.925 38.008C570.469 37.7413 571.109 37.608 571.845 37.608C572.57 37.608 573.199 37.7413 573.733 38.008C574.277 38.2747 574.703 38.6427 575.013 39.112C575.322 39.5813 575.482 40.1307 575.493 40.76H573.797C573.797 40.472 573.722 40.1893 573.573 39.912C573.423 39.6347 573.199 39.4107 572.901 39.24C572.602 39.0587 572.234 38.968 571.797 38.968C571.434 38.9573 571.109 39.016 570.821 39.144C570.533 39.272 570.303 39.4587 570.133 39.704C569.973 39.9493 569.893 40.2427 569.893 40.584C569.893 40.9253 569.967 41.2027 570.117 41.416C570.266 41.6187 570.479 41.7947 570.757 41.944C571.034 42.0933 571.354 42.232 571.717 42.36C572.09 42.4773 572.501 42.6107 572.949 42.76C573.493 42.9413 573.983 43.1653 574.421 43.432C574.858 43.688 575.199 44.024 575.445 44.44C575.701 44.8453 575.829 45.368 575.829 46.008C575.829 46.5627 575.685 47.08 575.397 47.56C575.109 48.04 574.682 48.4347 574.117 48.744C573.551 49.0427 572.842 49.192 571.989 49.192ZM581.473 49V37.8H584.945C586.246 37.8 587.324 38.0293 588.177 38.488C589.03 38.9467 589.66 39.5973 590.065 40.44C590.481 41.272 590.689 42.264 590.689 43.416C590.689 44.568 590.481 45.56 590.065 46.392C589.66 47.224 589.03 47.8693 588.177 48.328C587.324 48.776 586.246 49 584.945 49H581.473ZM583.073 47.656H584.881C585.916 47.656 586.737 47.4853 587.345 47.144C587.953 46.8027 588.385 46.3173 588.641 45.688C588.908 45.048 589.041 44.2907 589.041 43.416C589.041 42.5307 588.908 41.768 588.641 41.128C588.385 40.488 587.953 39.9973 587.345 39.656C586.737 39.3147 585.916 39.144 584.881 39.144H583.073V47.656ZM595.014 49.192C594.353 49.192 593.803 49.08 593.366 48.856C592.929 48.632 592.603 48.3333 592.39 47.96C592.177 47.5867 592.07 47.176 592.07 46.728C592.07 46.2053 592.203 45.7573 592.47 45.384C592.747 45 593.142 44.7067 593.654 44.504C594.177 44.3013 594.795 44.2 595.51 44.2H597.606C597.606 43.7307 597.537 43.3413 597.398 43.032C597.259 42.7227 597.051 42.4933 596.774 42.344C596.507 42.184 596.166 42.104 595.75 42.104C595.27 42.104 594.854 42.2213 594.502 42.456C594.161 42.6907 593.953 43.032 593.878 43.48H592.262C592.326 42.904 592.518 42.4187 592.838 42.024C593.169 41.6187 593.59 41.3093 594.102 41.096C594.614 40.8827 595.163 40.776 595.75 40.776C596.497 40.776 597.126 40.9093 597.638 41.176C598.161 41.4427 598.55 41.8213 598.806 42.312C599.073 42.792 599.206 43.3627 599.206 44.024V49H597.814L597.686 47.64C597.569 47.8533 597.43 48.056 597.27 48.248C597.11 48.44 596.918 48.6053 596.694 48.744C596.481 48.8827 596.23 48.9893 595.942 49.064C595.665 49.1493 595.355 49.192 595.014 49.192ZM595.318 47.896C595.659 47.896 595.969 47.8267 596.246 47.688C596.523 47.5493 596.758 47.3627 596.95 47.128C597.153 46.8827 597.302 46.6107 597.398 46.312C597.505 46.0133 597.563 45.6987 597.574 45.368V45.336H595.67C595.211 45.336 594.838 45.3947 594.55 45.512C594.273 45.6187 594.07 45.768 593.942 45.96C593.814 46.152 593.75 46.376 593.75 46.632C593.75 46.888 593.809 47.112 593.926 47.304C594.054 47.4853 594.235 47.6293 594.47 47.736C594.705 47.8427 594.987 47.896 595.318 47.896ZM604.213 49C603.711 49 603.269 48.92 602.885 48.76C602.511 48.6 602.223 48.3333 602.021 47.96C601.829 47.5867 601.733 47.08 601.733 46.44V42.312H600.34V40.968H601.733L601.924 38.952H603.333V40.968H605.605V42.312H603.333V46.456C603.333 46.9147 603.423 47.2293 603.605 47.4C603.797 47.56 604.127 47.64 604.597 47.64H605.525V49H604.213ZM609.865 49.192C609.204 49.192 608.655 49.08 608.217 48.856C607.78 48.632 607.455 48.3333 607.241 47.96C607.028 47.5867 606.921 47.176 606.921 46.728C606.921 46.2053 607.055 45.7573 607.321 45.384C607.599 45 607.993 44.7067 608.505 44.504C609.028 44.3013 609.647 44.2 610.361 44.2H612.457C612.457 43.7307 612.388 43.3413 612.249 43.032C612.111 42.7227 611.903 42.4933 611.625 42.344C611.359 42.184 611.017 42.104 610.601 42.104C610.121 42.104 609.705 42.2213 609.353 42.456C609.012 42.6907 608.804 43.032 608.729 43.48H607.113C607.177 42.904 607.369 42.4187 607.689 42.024C608.02 41.6187 608.441 41.3093 608.953 41.096C609.465 40.8827 610.015 40.776 610.601 40.776C611.348 40.776 611.977 40.9093 612.489 41.176C613.012 41.4427 613.401 41.8213 613.657 42.312C613.924 42.792 614.057 43.3627 614.057 44.024V49H612.665L612.537 47.64C612.42 47.8533 612.281 48.056 612.121 48.248C611.961 48.44 611.769 48.6053 611.545 48.744C611.332 48.8827 611.081 48.9893 610.793 49.064C610.516 49.1493 610.207 49.192 609.865 49.192ZM610.169 47.896C610.511 47.896 610.82 47.8267 611.097 47.688C611.375 47.5493 611.609 47.3627 611.801 47.128C612.004 46.8827 612.153 46.6107 612.249 46.312C612.356 46.0133 612.415 45.6987 612.425 45.368V45.336H610.521C610.063 45.336 609.689 45.3947 609.401 45.512C609.124 45.6187 608.921 45.768 608.793 45.96C608.665 46.152 608.601 46.376 608.601 46.632C608.601 46.888 608.66 47.112 608.777 47.304C608.905 47.4853 609.087 47.6293 609.321 47.736C609.556 47.8427 609.839 47.896 610.169 47.896ZM619.921 49V37.8H624.065C624.844 37.8 625.495 37.928 626.017 38.184C626.54 38.4293 626.929 38.7707 627.185 39.208C627.452 39.6347 627.585 40.12 627.585 40.664C627.585 41.2293 627.463 41.704 627.217 42.088C626.972 42.472 626.647 42.7707 626.241 42.984C625.836 43.1867 625.409 43.304 624.961 43.336L625.185 43.176C625.676 43.1867 626.124 43.32 626.529 43.576C626.935 43.8213 627.255 44.152 627.489 44.568C627.724 44.984 627.841 45.4427 627.841 45.944C627.841 46.52 627.703 47.0427 627.425 47.512C627.148 47.9707 626.737 48.3333 626.193 48.6C625.649 48.8667 624.983 49 624.193 49H619.921ZM621.521 47.672H623.985C624.689 47.672 625.233 47.512 625.617 47.192C626.012 46.8613 626.209 46.3973 626.209 45.8C626.209 45.2133 626.007 44.744 625.601 44.392C625.207 44.04 624.657 43.864 623.953 43.864H621.521V47.672ZM621.521 42.632H623.889C624.561 42.632 625.073 42.4773 625.425 42.168C625.777 41.848 625.953 41.4107 625.953 40.856C625.953 40.3227 625.777 39.9013 625.425 39.592C625.073 39.272 624.545 39.112 623.841 39.112H621.521V42.632ZM632.165 49.192C631.504 49.192 630.955 49.08 630.517 48.856C630.08 48.632 629.755 48.3333 629.541 47.96C629.328 47.5867 629.221 47.176 629.221 46.728C629.221 46.2053 629.355 45.7573 629.621 45.384C629.899 45 630.293 44.7067 630.805 44.504C631.328 44.3013 631.947 44.2 632.661 44.2H634.757C634.757 43.7307 634.688 43.3413 634.549 43.032C634.411 42.7227 634.203 42.4933 633.925 42.344C633.659 42.184 633.317 42.104 632.901 42.104C632.421 42.104 632.005 42.2213 631.653 42.456C631.312 42.6907 631.104 43.032 631.029 43.48H629.413C629.477 42.904 629.669 42.4187 629.989 42.024C630.32 41.6187 630.741 41.3093 631.253 41.096C631.765 40.8827 632.315 40.776 632.901 40.776C633.648 40.776 634.277 40.9093 634.789 41.176C635.312 41.4427 635.701 41.8213 635.957 42.312C636.224 42.792 636.357 43.3627 636.357 44.024V49H634.965L634.837 47.64C634.72 47.8533 634.581 48.056 634.421 48.248C634.261 48.44 634.069 48.6053 633.845 48.744C633.632 48.8827 633.381 48.9893 633.093 49.064C632.816 49.1493 632.507 49.192 632.165 49.192ZM632.469 47.896C632.811 47.896 633.12 47.8267 633.397 47.688C633.675 47.5493 633.909 47.3627 634.101 47.128C634.304 46.8827 634.453 46.6107 634.549 46.312C634.656 46.0133 634.715 45.6987 634.725 45.368V45.336H632.821C632.363 45.336 631.989 45.3947 631.701 45.512C631.424 45.6187 631.221 45.768 631.093 45.96C630.965 46.152 630.901 46.376 630.901 46.632C630.901 46.888 630.96 47.112 631.077 47.304C631.205 47.4853 631.387 47.6293 631.621 47.736C631.856 47.8427 632.139 47.896 632.469 47.896ZM641.344 49.192C640.672 49.192 640.074 49.08 639.552 48.856C639.04 48.632 638.634 48.3173 638.336 47.912C638.037 47.5067 637.856 47.032 637.792 46.488H639.408C639.472 46.744 639.578 46.9787 639.728 47.192C639.888 47.4053 640.101 47.576 640.368 47.704C640.645 47.832 640.97 47.896 641.344 47.896C641.696 47.896 641.984 47.848 642.208 47.752C642.432 47.6453 642.597 47.5067 642.704 47.336C642.821 47.1547 642.88 46.968 642.88 46.776C642.88 46.4773 642.805 46.2533 642.656 46.104C642.517 45.944 642.304 45.8213 642.016 45.736C641.738 45.64 641.397 45.5547 640.992 45.48C640.64 45.4053 640.288 45.3147 639.936 45.208C639.594 45.1013 639.285 44.9627 639.008 44.792C638.73 44.6213 638.512 44.408 638.352 44.152C638.192 43.8853 638.112 43.5653 638.112 43.192C638.112 42.7227 638.234 42.3067 638.48 41.944C638.725 41.5813 639.072 41.2987 639.52 41.096C639.978 40.8827 640.517 40.776 641.136 40.776C642.021 40.776 642.736 40.9893 643.28 41.416C643.834 41.832 644.154 42.4293 644.24 43.208H642.704C642.65 42.856 642.485 42.5787 642.208 42.376C641.941 42.1733 641.578 42.072 641.12 42.072C640.661 42.072 640.309 42.168 640.064 42.36C639.818 42.5413 639.696 42.776 639.696 43.064C639.696 43.256 639.765 43.4267 639.904 43.576C640.053 43.7253 640.261 43.8533 640.528 43.96C640.805 44.056 641.136 44.1467 641.52 44.232C642.074 44.3387 642.576 44.472 643.024 44.632C643.472 44.7813 643.829 45.0107 644.096 45.32C644.373 45.6293 644.512 46.072 644.512 46.648C644.512 47.1493 644.384 47.592 644.128 47.976C643.872 48.36 643.504 48.6587 643.024 48.872C642.554 49.0853 641.994 49.192 641.344 49.192ZM649.884 49.192C649.105 49.192 648.417 49.0213 647.82 48.68C647.222 48.328 646.753 47.8373 646.412 47.208C646.081 46.5787 645.916 45.8427 645.916 45C645.916 44.1573 646.081 43.4213 646.412 42.792C646.753 42.1627 647.222 41.672 647.82 41.32C648.417 40.9573 649.11 40.776 649.9 40.776C650.689 40.776 651.366 40.952 651.932 41.304C652.497 41.6453 652.934 42.1093 653.244 42.696C653.553 43.272 653.708 43.912 653.708 44.616C653.708 44.7227 653.708 44.84 653.708 44.968C653.708 45.0853 653.697 45.2133 653.676 45.352H647.084V44.232H652.108C652.076 43.5707 651.852 43.0533 651.436 42.68C651.02 42.296 650.502 42.104 649.884 42.104C649.457 42.104 649.057 42.2 648.684 42.392C648.321 42.584 648.028 42.872 647.804 43.256C647.59 43.6293 647.484 44.104 647.484 44.68V45.128C647.484 45.7253 647.59 46.2267 647.804 46.632C648.028 47.0373 648.321 47.3467 648.684 47.56C649.046 47.7627 649.441 47.864 649.868 47.864C650.38 47.864 650.801 47.752 651.132 47.528C651.473 47.2933 651.724 46.984 651.884 46.6H653.484C653.334 47.1013 653.094 47.5493 652.764 47.944C652.444 48.328 652.038 48.632 651.548 48.856C651.068 49.08 650.513 49.192 649.884 49.192Z" fill="black" fill-opacity="0.8"/>
<rect x="768" y="357.272" width="176" height="88" rx="6" fill="#BDE3FF"/>
<path d="M810.603 406.272V395.072H817.563V396.384H812.203V400.016H816.683V401.296H812.203V406.272H810.603ZM822.324 406.464C821.566 406.464 820.884 406.294 820.276 405.952C819.678 405.6 819.204 405.11 818.852 404.48C818.51 403.84 818.34 403.099 818.34 402.256C818.34 401.414 818.516 400.678 818.868 400.048C819.22 399.408 819.7 398.918 820.308 398.576C820.916 398.224 821.593 398.048 822.34 398.048C823.108 398.048 823.79 398.224 824.388 398.576C824.996 398.918 825.47 399.403 825.812 400.032C826.164 400.662 826.34 401.403 826.34 402.256C826.34 403.099 826.164 403.84 825.812 404.48C825.46 405.11 824.98 405.6 824.372 405.952C823.774 406.294 823.092 406.464 822.324 406.464ZM822.324 405.088C822.761 405.088 823.156 404.987 823.508 404.784C823.87 404.571 824.158 404.251 824.372 403.824C824.596 403.398 824.708 402.875 824.708 402.256C824.708 401.627 824.601 401.104 824.388 400.688C824.174 400.262 823.886 399.947 823.524 399.744C823.172 399.531 822.782 399.424 822.356 399.424C821.94 399.424 821.545 399.531 821.172 399.744C820.809 399.947 820.516 400.262 820.292 400.688C820.078 401.104 819.972 401.627 819.972 402.256C819.972 402.875 820.078 403.398 820.292 403.824C820.516 404.251 820.804 404.571 821.156 404.784C821.518 404.987 821.908 405.088 822.324 405.088ZM831.71 406.464C830.953 406.464 830.27 406.294 829.662 405.952C829.065 405.6 828.59 405.11 828.238 404.48C827.897 403.84 827.726 403.099 827.726 402.256C827.726 401.414 827.902 400.678 828.254 400.048C828.606 399.408 829.086 398.918 829.694 398.576C830.302 398.224 830.979 398.048 831.726 398.048C832.494 398.048 833.177 398.224 833.774 398.576C834.382 398.918 834.857 399.403 835.198 400.032C835.55 400.662 835.726 401.403 835.726 402.256C835.726 403.099 835.55 403.84 835.198 404.48C834.846 405.11 834.366 405.6 833.758 405.952C833.161 406.294 832.478 406.464 831.71 406.464ZM831.71 405.088C832.147 405.088 832.542 404.987 832.894 404.784C833.257 404.571 833.545 404.251 833.758 403.824C833.982 403.398 834.094 402.875 834.094 402.256C834.094 401.627 833.987 401.104 833.774 400.688C833.561 400.262 833.273 399.947 832.91 399.744C832.558 399.531 832.169 399.424 831.742 399.424C831.326 399.424 830.931 399.531 830.558 399.744C830.195 399.947 829.902 400.262 829.678 400.688C829.465 401.104 829.358 401.627 829.358 402.256C829.358 402.875 829.465 403.398 829.678 403.824C829.902 404.251 830.19 404.571 830.542 404.784C830.905 404.987 831.294 405.088 831.71 405.088ZM841.001 406.464C840.233 406.464 839.555 406.283 838.969 405.92C838.382 405.547 837.923 405.046 837.593 404.416C837.273 403.776 837.113 403.051 837.113 402.24C837.113 401.43 837.273 400.71 837.593 400.08C837.923 399.451 838.382 398.955 838.969 398.592C839.566 398.23 840.254 398.048 841.033 398.048C841.662 398.048 842.217 398.176 842.697 398.432C843.177 398.678 843.55 399.024 843.817 399.472V394.752H845.417V406.272H843.977L843.817 405.024C843.646 405.27 843.433 405.504 843.177 405.728C842.921 405.942 842.611 406.118 842.249 406.256C841.897 406.395 841.481 406.464 841.001 406.464ZM841.273 405.072C841.763 405.072 842.201 404.955 842.585 404.72C842.969 404.486 843.267 404.16 843.481 403.744C843.694 403.318 843.801 402.822 843.801 402.256C843.801 401.691 843.694 401.2 843.481 400.784C843.267 400.358 842.969 400.027 842.585 399.792C842.201 399.558 841.758 399.44 841.257 399.44C840.777 399.44 840.345 399.558 839.961 399.792C839.577 400.027 839.278 400.358 839.065 400.784C838.851 401.2 838.745 401.691 838.745 402.256C838.745 402.811 838.851 403.302 839.065 403.728C839.278 404.155 839.577 404.486 839.961 404.72C840.345 404.955 840.782 405.072 841.273 405.072ZM851.41 406.272V395.072H855.202C856.088 395.072 856.813 395.222 857.378 395.52C857.944 395.819 858.36 396.219 858.626 396.72C858.904 397.211 859.042 397.771 859.042 398.4C859.042 398.998 858.904 399.552 858.626 400.064C858.349 400.566 857.922 400.971 857.346 401.28C856.781 401.579 856.05 401.728 855.154 401.728H853.01V406.272H851.41ZM857.282 406.272L854.882 401.296H856.642L859.154 406.272H857.282ZM853.01 400.512H855.09C855.88 400.512 856.461 400.32 856.834 399.936C857.208 399.542 857.394 399.04 857.394 398.432C857.394 397.814 857.213 397.323 856.85 396.96C856.488 396.598 855.896 396.416 855.074 396.416H853.01V400.512ZM863.786 406.464C863.156 406.464 862.612 406.336 862.154 406.08C861.695 405.824 861.338 405.44 861.082 404.928C860.836 404.406 860.714 403.755 860.714 402.976V398.24H862.314V402.816C862.314 403.574 862.474 404.144 862.794 404.528C863.124 404.912 863.599 405.104 864.218 405.104C864.644 405.104 865.023 405.003 865.354 404.8C865.695 404.598 865.962 404.304 866.154 403.92C866.346 403.536 866.442 403.067 866.442 402.512V398.24H868.042V406.272H866.618L866.506 404.896C866.26 405.376 865.898 405.76 865.418 406.048C864.948 406.326 864.404 406.464 863.786 406.464ZM870.041 406.272V398.24H871.481L871.577 399.616C871.833 399.136 872.195 398.758 872.665 398.48C873.134 398.192 873.678 398.048 874.297 398.048C874.926 398.048 875.47 398.176 875.929 398.432C876.387 398.688 876.745 399.078 877.001 399.6C877.257 400.112 877.385 400.758 877.385 401.536V406.272H875.785V401.696C875.785 400.95 875.619 400.384 875.289 400C874.958 399.606 874.483 399.408 873.865 399.408C873.438 399.408 873.054 399.51 872.713 399.712C872.382 399.915 872.121 400.208 871.929 400.592C871.737 400.976 871.641 401.451 871.641 402.016V406.272H870.041ZM879.255 406.272V398.24H880.695L880.791 399.616C881.047 399.136 881.41 398.758 881.879 398.48C882.349 398.192 882.893 398.048 883.511 398.048C884.141 398.048 884.685 398.176 885.143 398.432C885.602 398.688 885.959 399.078 886.215 399.6C886.471 400.112 886.599 400.758 886.599 401.536V406.272H884.999V401.696C884.999 400.95 884.834 400.384 884.503 400C884.173 399.606 883.698 399.408 883.079 399.408C882.653 399.408 882.269 399.51 881.927 399.712C881.597 399.915 881.335 400.208 881.143 400.592C880.951 400.976 880.855 401.451 880.855 402.016V406.272H879.255ZM892.134 406.464C891.355 406.464 890.667 406.294 890.07 405.952C889.473 405.6 889.003 405.11 888.662 404.48C888.331 403.851 888.166 403.115 888.166 402.272C888.166 401.43 888.331 400.694 888.662 400.064C889.003 399.435 889.473 398.944 890.07 398.592C890.667 398.23 891.361 398.048 892.15 398.048C892.939 398.048 893.617 398.224 894.182 398.576C894.747 398.918 895.185 399.382 895.494 399.968C895.803 400.544 895.958 401.184 895.958 401.888C895.958 401.995 895.958 402.112 895.958 402.24C895.958 402.358 895.947 402.486 895.926 402.624H889.334V401.504H894.358C894.326 400.843 894.102 400.326 893.686 399.952C893.27 399.568 892.753 399.376 892.134 399.376C891.707 399.376 891.307 399.472 890.934 399.664C890.571 399.856 890.278 400.144 890.054 400.528C889.841 400.902 889.734 401.376 889.734 401.952V402.4C889.734 402.998 889.841 403.499 890.054 403.904C890.278 404.31 890.571 404.619 890.934 404.832C891.297 405.035 891.691 405.136 892.118 405.136C892.63 405.136 893.051 405.024 893.382 404.8C893.723 404.566 893.974 404.256 894.134 403.872H895.734C895.585 404.374 895.345 404.822 895.014 405.216C894.694 405.6 894.289 405.904 893.798 406.128C893.318 406.352 892.763 406.464 892.134 406.464ZM897.56 406.272V398.24H899L899.144 399.76C899.325 399.398 899.554 399.094 899.832 398.848C900.12 398.592 900.456 398.395 900.84 398.256C901.234 398.118 901.677 398.048 902.168 398.048V399.728H901.64C901.298 399.728 900.978 399.771 900.68 399.856C900.381 399.942 900.114 400.08 899.88 400.272C899.656 400.464 899.48 400.726 899.352 401.056C899.224 401.387 899.16 401.798 899.16 402.288V406.272H897.56Z" fill="black" fill-opacity="0.8"/>
<rect y="357.272" width="176" height="88" rx="6" fill="#BDE3FF"/>
<path d="M64.1549 406.272V395.072H68.2989C69.0775 395.072 69.7282 395.2 70.2509 395.456C70.7735 395.702 71.1629 396.043 71.4189 396.48C71.6855 396.907 71.8189 397.392 71.8189 397.936C71.8189 398.502 71.6962 398.976 71.4509 399.36C71.2055 399.744 70.8802 400.043 70.4749 400.256C70.0695 400.459 69.6429 400.576 69.1949 400.608L69.4189 400.448C69.9095 400.459 70.3575 400.592 70.7629 400.848C71.1682 401.094 71.4882 401.424 71.7229 401.84C71.9575 402.256 72.0749 402.715 72.0749 403.216C72.0749 403.792 71.9362 404.315 71.6589 404.784C71.3815 405.243 70.9709 405.606 70.4269 405.872C69.8829 406.139 69.2162 406.272 68.4269 406.272H64.1549ZM65.7549 404.944H68.2189C68.9229 404.944 69.4669 404.784 69.8509 404.464C70.2455 404.134 70.4429 403.67 70.4429 403.072C70.4429 402.486 70.2402 402.016 69.8349 401.664C69.4402 401.312 68.8909 401.136 68.1869 401.136H65.7549V404.944ZM65.7549 399.904H68.1229C68.7949 399.904 69.3069 399.75 69.6589 399.44C70.0109 399.12 70.1869 398.683 70.1869 398.128C70.1869 397.595 70.0109 397.174 69.6589 396.864C69.3069 396.544 68.7789 396.384 68.0749 396.384H65.7549V399.904ZM76.671 406.464C76.0417 406.464 75.4977 406.336 75.039 406.08C74.5803 405.824 74.223 405.44 73.967 404.928C73.7217 404.406 73.599 403.755 73.599 402.976V398.24H75.199V402.816C75.199 403.574 75.359 404.144 75.679 404.528C76.0097 404.912 76.4843 405.104 77.103 405.104C77.5297 405.104 77.9083 405.003 78.239 404.8C78.5803 404.598 78.847 404.304 79.039 403.92C79.231 403.536 79.327 403.067 79.327 402.512V398.24H80.927V406.272H79.503L79.391 404.896C79.1457 405.376 78.783 405.76 78.303 406.048C77.8337 406.326 77.2897 406.464 76.671 406.464ZM86.046 406.464C85.374 406.464 84.7767 406.352 84.254 406.128C83.742 405.904 83.3367 405.59 83.038 405.184C82.7393 404.779 82.558 404.304 82.494 403.76H84.11C84.174 404.016 84.2807 404.251 84.43 404.464C84.59 404.678 84.8033 404.848 85.07 404.976C85.3473 405.104 85.6727 405.168 86.046 405.168C86.398 405.168 86.686 405.12 86.91 405.024C87.134 404.918 87.2993 404.779 87.406 404.608C87.5233 404.427 87.582 404.24 87.582 404.048C87.582 403.75 87.5073 403.526 87.358 403.376C87.2193 403.216 87.006 403.094 86.718 403.008C86.4407 402.912 86.0993 402.827 85.694 402.752C85.342 402.678 84.99 402.587 84.638 402.48C84.2967 402.374 83.9873 402.235 83.71 402.064C83.4327 401.894 83.214 401.68 83.054 401.424C82.894 401.158 82.814 400.838 82.814 400.464C82.814 399.995 82.9367 399.579 83.182 399.216C83.4273 398.854 83.774 398.571 84.222 398.368C84.6807 398.155 85.2193 398.048 85.838 398.048C86.7233 398.048 87.438 398.262 87.982 398.688C88.5367 399.104 88.8567 399.702 88.942 400.48H87.406C87.3527 400.128 87.1873 399.851 86.91 399.648C86.6433 399.446 86.2807 399.344 85.822 399.344C85.3633 399.344 85.0113 399.44 84.766 399.632C84.5207 399.814 84.398 400.048 84.398 400.336C84.398 400.528 84.4673 400.699 84.606 400.848C84.7553 400.998 84.9633 401.126 85.23 401.232C85.5073 401.328 85.838 401.419 86.222 401.504C86.7767 401.611 87.278 401.744 87.726 401.904C88.174 402.054 88.5313 402.283 88.798 402.592C89.0753 402.902 89.214 403.344 89.214 403.92C89.214 404.422 89.086 404.864 88.83 405.248C88.574 405.632 88.206 405.931 87.726 406.144C87.2567 406.358 86.6967 406.464 86.046 406.464ZM94.0419 406.464C93.3699 406.464 92.7725 406.352 92.2499 406.128C91.7379 405.904 91.3325 405.59 91.0339 405.184C90.7352 404.779 90.5539 404.304 90.4899 403.76H92.1059C92.1699 404.016 92.2765 404.251 92.4259 404.464C92.5859 404.678 92.7992 404.848 93.0659 404.976C93.3432 405.104 93.6685 405.168 94.0419 405.168C94.3939 405.168 94.6819 405.12 94.9059 405.024C95.1299 404.918 95.2952 404.779 95.4019 404.608C95.5192 404.427 95.5779 404.24 95.5779 404.048C95.5779 403.75 95.5032 403.526 95.3539 403.376C95.2152 403.216 95.0019 403.094 94.7139 403.008C94.4365 402.912 94.0952 402.827 93.6899 402.752C93.3379 402.678 92.9859 402.587 92.6339 402.48C92.2925 402.374 91.9832 402.235 91.7059 402.064C91.4285 401.894 91.2099 401.68 91.0499 401.424C90.8899 401.158 90.8099 400.838 90.8099 400.464C90.8099 399.995 90.9325 399.579 91.1779 399.216C91.4232 398.854 91.7699 398.571 92.2179 398.368C92.6765 398.155 93.2152 398.048 93.8339 398.048C94.7192 398.048 95.4339 398.262 95.9779 398.688C96.5325 399.104 96.8525 399.702 96.9379 400.48H95.4019C95.3485 400.128 95.1832 399.851 94.9059 399.648C94.6392 399.446 94.2765 399.344 93.8179 399.344C93.3592 399.344 93.0072 399.44 92.7619 399.632C92.5165 399.814 92.3939 400.048 92.3939 400.336C92.3939 400.528 92.4632 400.699 92.6019 400.848C92.7512 400.998 92.9592 401.126 93.2259 401.232C93.5032 401.328 93.8339 401.419 94.2179 401.504C94.7725 401.611 95.2739 401.744 95.7219 401.904C96.1699 402.054 96.5272 402.283 96.7939 402.592C97.0712 402.902 97.2099 403.344 97.2099 403.92C97.2099 404.422 97.0819 404.864 96.8259 405.248C96.5699 405.632 96.2019 405.931 95.7219 406.144C95.2525 406.358 94.6925 406.464 94.0419 406.464ZM102.582 406.464C101.803 406.464 101.115 406.294 100.518 405.952C99.9204 405.6 99.4511 405.11 99.1098 404.48C98.7791 403.851 98.6138 403.115 98.6138 402.272C98.6138 401.43 98.7791 400.694 99.1098 400.064C99.4511 399.435 99.9204 398.944 100.518 398.592C101.115 398.23 101.808 398.048 102.598 398.048C103.387 398.048 104.064 398.224 104.63 398.576C105.195 398.918 105.632 399.382 105.942 399.968C106.251 400.544 106.406 401.184 106.406 401.888C106.406 401.995 106.406 402.112 106.406 402.24C106.406 402.358 106.395 402.486 106.374 402.624H99.7818V401.504H104.806C104.774 400.843 104.55 400.326 104.134 399.952C103.718 399.568 103.2 399.376 102.582 399.376C102.155 399.376 101.755 399.472 101.382 399.664C101.019 399.856 100.726 400.144 100.502 400.528C100.288 400.902 100.182 401.376 100.182 401.952V402.4C100.182 402.998 100.288 403.499 100.502 403.904C100.726 404.31 101.019 404.619 101.382 404.832C101.744 405.035 102.139 405.136 102.566 405.136C103.078 405.136 103.499 405.024 103.83 404.8C104.171 404.566 104.422 404.256 104.582 403.872H106.182C106.032 404.374 105.792 404.822 105.462 405.216C105.142 405.6 104.736 405.904 104.246 406.128C103.766 406.352 103.211 406.464 102.582 406.464ZM108.007 406.272V398.24H109.447L109.591 399.76C109.773 399.398 110.002 399.094 110.279 398.848C110.567 398.592 110.903 398.395 111.287 398.256C111.682 398.118 112.125 398.048 112.615 398.048V399.728H112.087C111.746 399.728 111.426 399.771 111.127 399.856C110.829 399.942 110.562 400.08 110.327 400.272C110.103 400.464 109.927 400.726 109.799 401.056C109.671 401.387 109.607 401.798 109.607 402.288V406.272H108.007Z" fill="black" fill-opacity="0.8"/>
<rect x="256" y="357.272" width="176" height="88" rx="6" fill="#BDE3FF"/>
<path d="M309.325 406.464C308.514 406.464 307.799 406.32 307.181 406.032C306.562 405.734 306.082 405.318 305.741 404.784C305.399 404.251 305.229 403.627 305.229 402.912H306.909C306.909 403.318 307.005 403.691 307.197 404.032C307.389 404.363 307.661 404.63 308.013 404.832C308.375 405.024 308.813 405.12 309.325 405.12C309.783 405.12 310.173 405.046 310.493 404.896C310.813 404.747 311.058 404.544 311.229 404.288C311.41 404.022 311.501 403.718 311.501 403.376C311.501 402.982 311.41 402.656 311.229 402.4C311.047 402.144 310.802 401.936 310.493 401.776C310.183 401.606 309.831 401.456 309.437 401.328C309.042 401.2 308.621 401.062 308.173 400.912C307.298 400.614 306.642 400.24 306.205 399.792C305.778 399.334 305.565 398.736 305.565 398C305.565 397.371 305.709 396.827 305.997 396.368C306.295 395.899 306.717 395.536 307.261 395.28C307.805 395.014 308.445 394.88 309.181 394.88C309.906 394.88 310.535 395.014 311.069 395.28C311.613 395.547 312.039 395.915 312.349 396.384C312.658 396.854 312.818 397.403 312.829 398.032H311.133C311.133 397.744 311.058 397.462 310.909 397.184C310.759 396.907 310.535 396.683 310.237 396.512C309.938 396.331 309.57 396.24 309.133 396.24C308.77 396.23 308.445 396.288 308.157 396.416C307.869 396.544 307.639 396.731 307.469 396.976C307.309 397.222 307.229 397.515 307.229 397.856C307.229 398.198 307.303 398.475 307.453 398.688C307.602 398.891 307.815 399.067 308.093 399.216C308.37 399.366 308.69 399.504 309.053 399.632C309.426 399.75 309.837 399.883 310.285 400.032C310.829 400.214 311.319 400.438 311.757 400.704C312.194 400.96 312.535 401.296 312.781 401.712C313.037 402.118 313.165 402.64 313.165 403.28C313.165 403.835 313.021 404.352 312.733 404.832C312.445 405.312 312.018 405.707 311.453 406.016C310.887 406.315 310.178 406.464 309.325 406.464ZM318.491 406.464C317.734 406.464 317.051 406.294 316.443 405.952C315.846 405.6 315.371 405.11 315.019 404.48C314.678 403.84 314.507 403.099 314.507 402.256C314.507 401.414 314.683 400.678 315.035 400.048C315.387 399.408 315.867 398.918 316.475 398.576C317.083 398.224 317.761 398.048 318.507 398.048C319.275 398.048 319.958 398.224 320.555 398.576C321.163 398.918 321.638 399.403 321.979 400.032C322.331 400.662 322.507 401.403 322.507 402.256C322.507 403.099 322.331 403.84 321.979 404.48C321.627 405.11 321.147 405.6 320.539 405.952C319.942 406.294 319.259 406.464 318.491 406.464ZM318.491 405.088C318.929 405.088 319.323 404.987 319.675 404.784C320.038 404.571 320.326 404.251 320.539 403.824C320.763 403.398 320.875 402.875 320.875 402.256C320.875 401.627 320.769 401.104 320.555 400.688C320.342 400.262 320.054 399.947 319.691 399.744C319.339 399.531 318.95 399.424 318.523 399.424C318.107 399.424 317.713 399.531 317.339 399.744C316.977 399.947 316.683 400.262 316.459 400.688C316.246 401.104 316.139 401.627 316.139 402.256C316.139 402.875 316.246 403.398 316.459 403.824C316.683 404.251 316.971 404.571 317.323 404.784C317.686 404.987 318.075 405.088 318.491 405.088ZM324.198 406.272V398.24H325.638L325.75 399.36C326.006 398.955 326.347 398.635 326.774 398.4C327.2 398.166 327.68 398.048 328.214 398.048C328.619 398.048 328.987 398.102 329.318 398.208C329.659 398.315 329.958 398.48 330.214 398.704C330.47 398.928 330.678 399.211 330.838 399.552C331.115 399.072 331.494 398.704 331.974 398.448C332.464 398.182 332.987 398.048 333.542 398.048C334.192 398.048 334.752 398.176 335.222 398.432C335.691 398.688 336.048 399.078 336.294 399.6C336.539 400.123 336.662 400.774 336.662 401.552V406.272H335.078V401.712C335.078 400.955 334.923 400.384 334.614 400C334.315 399.606 333.872 399.408 333.286 399.408C332.891 399.408 332.539 399.51 332.23 399.712C331.92 399.915 331.675 400.214 331.494 400.608C331.323 400.992 331.238 401.462 331.238 402.016V406.272H329.638V401.712C329.638 400.955 329.483 400.384 329.174 400C328.864 399.606 328.422 399.408 327.846 399.408C327.462 399.408 327.115 399.51 326.806 399.712C326.496 399.915 326.251 400.214 326.07 400.608C325.888 400.992 325.798 401.462 325.798 402.016V406.272H324.198ZM338.537 406.272V398.24H339.977L340.089 399.36C340.345 398.955 340.687 398.635 341.113 398.4C341.54 398.166 342.02 398.048 342.553 398.048C342.959 398.048 343.327 398.102 343.657 398.208C343.999 398.315 344.297 398.48 344.553 398.704C344.809 398.928 345.017 399.211 345.177 399.552C345.455 399.072 345.833 398.704 346.313 398.448C346.804 398.182 347.327 398.048 347.881 398.048C348.532 398.048 349.092 398.176 349.561 398.432C350.031 398.688 350.388 399.078 350.633 399.6C350.879 400.123 351.001 400.774 351.001 401.552V406.272H349.417V401.712C349.417 400.955 349.263 400.384 348.953 400C348.655 399.606 348.212 399.408 347.625 399.408C347.231 399.408 346.879 399.51 346.569 399.712C346.26 399.915 346.015 400.214 345.833 400.608C345.663 400.992 345.577 401.462 345.577 402.016V406.272H343.977V401.712C343.977 400.955 343.823 400.384 343.513 400C343.204 399.606 342.761 399.408 342.185 399.408C341.801 399.408 341.455 399.51 341.145 399.712C340.836 399.915 340.591 400.214 340.409 400.608C340.228 400.992 340.137 401.462 340.137 402.016V406.272H338.537ZM356.541 406.464C355.762 406.464 355.074 406.294 354.477 405.952C353.88 405.6 353.41 405.11 353.069 404.48C352.738 403.851 352.573 403.115 352.573 402.272C352.573 401.43 352.738 400.694 353.069 400.064C353.41 399.435 353.88 398.944 354.477 398.592C355.074 398.23 355.768 398.048 356.557 398.048C357.346 398.048 358.024 398.224 358.589 398.576C359.154 398.918 359.592 399.382 359.901 399.968C360.21 400.544 360.365 401.184 360.365 401.888C360.365 401.995 360.365 402.112 360.365 402.24C360.365 402.358 360.354 402.486 360.333 402.624H353.741V401.504H358.765C358.733 400.843 358.509 400.326 358.093 399.952C357.677 399.568 357.16 399.376 356.541 399.376C356.114 399.376 355.714 399.472 355.341 399.664C354.978 399.856 354.685 400.144 354.461 400.528C354.248 400.902 354.141 401.376 354.141 401.952V402.4C354.141 402.998 354.248 403.499 354.461 403.904C354.685 404.31 354.978 404.619 355.341 404.832C355.704 405.035 356.098 405.136 356.525 405.136C357.037 405.136 357.458 405.024 357.789 404.8C358.13 404.566 358.381 404.256 358.541 403.872H360.141C359.992 404.374 359.752 404.822 359.421 405.216C359.101 405.6 358.696 405.904 358.205 406.128C357.725 406.352 357.17 406.464 356.541 406.464ZM361.967 406.272V394.752H363.567V406.272H361.967ZM365.684 406.272V398.24H367.284V406.272H365.684ZM366.484 396.704C366.185 396.704 365.935 396.608 365.732 396.416C365.54 396.224 365.444 395.979 365.444 395.68C365.444 395.392 365.54 395.158 365.732 394.976C365.935 394.784 366.185 394.688 366.484 394.688C366.793 394.688 367.049 394.784 367.252 394.976C367.455 395.158 367.556 395.392 367.556 395.68C367.556 395.979 367.455 396.224 367.252 396.416C367.049 396.608 366.793 396.704 366.484 396.704ZM373.06 406.464C372.281 406.464 371.593 406.294 370.996 405.952C370.399 405.6 369.929 405.11 369.588 404.48C369.257 403.851 369.092 403.115 369.092 402.272C369.092 401.43 369.257 400.694 369.588 400.064C369.929 399.435 370.399 398.944 370.996 398.592C371.593 398.23 372.287 398.048 373.076 398.048C373.865 398.048 374.543 398.224 375.108 398.576C375.673 398.918 376.111 399.382 376.42 399.968C376.729 400.544 376.884 401.184 376.884 401.888C376.884 401.995 376.884 402.112 376.884 402.24C376.884 402.358 376.873 402.486 376.852 402.624H370.26V401.504H375.284C375.252 400.843 375.028 400.326 374.612 399.952C374.196 399.568 373.679 399.376 373.06 399.376C372.633 399.376 372.233 399.472 371.86 399.664C371.497 399.856 371.204 400.144 370.98 400.528C370.767 400.902 370.66 401.376 370.66 401.952V402.4C370.66 402.998 370.767 403.499 370.98 403.904C371.204 404.31 371.497 404.619 371.86 404.832C372.223 405.035 372.617 405.136 373.044 405.136C373.556 405.136 373.977 405.024 374.308 404.8C374.649 404.566 374.9 404.256 375.06 403.872H376.66C376.511 404.374 376.271 404.822 375.94 405.216C375.62 405.6 375.215 405.904 374.724 406.128C374.244 406.352 373.689 406.464 373.06 406.464ZM378.486 406.272V398.24H379.926L380.07 399.76C380.251 399.398 380.48 399.094 380.758 398.848C381.046 398.592 381.382 398.395 381.766 398.256C382.16 398.118 382.603 398.048 383.094 398.048V399.728H382.566C382.224 399.728 381.904 399.771 381.606 399.856C381.307 399.942 381.04 400.08 380.806 400.272C380.582 400.464 380.406 400.726 380.278 401.056C380.15 401.387 380.086 401.798 380.086 402.288V406.272H378.486Z" fill="black" fill-opacity="0.8"/>
<path d="M598.939 522.333C599.525 522.919 600.475 522.919 601.061 522.333L610.607 512.787C611.192 512.201 611.192 511.252 610.607 510.666C610.021 510.08 609.071 510.08 608.485 510.666L600 519.151L591.515 510.666C590.929 510.08 589.979 510.08 589.393 510.666C588.808 511.252 588.808 512.201 589.393 512.787L598.939 522.333ZM601.061 448.212C600.475 447.626 599.525 447.626 598.939 448.212L589.393 457.758C588.808 458.344 588.808 459.293 589.393 459.879C589.979 460.465 590.929 460.465 591.515 459.879L600 451.394L608.485 459.879C609.071 460.465 610.021 460.465 610.607 459.879C611.192 459.293 611.192 458.344 610.607 457.758L601.061 448.212ZM600 521.272H601.5V449.272H600H598.5V521.272H600Z" fill="#14AE5C"/>
<path d="M601.061 448.212C600.475 447.626 599.525 447.626 598.939 448.212L589.393 457.758C588.808 458.344 588.808 459.293 589.393 459.879C589.979 460.465 590.929 460.465 591.515 459.879L600 451.394L608.485 459.879C609.071 460.465 610.021 460.465 610.607 459.879C611.192 459.293 611.192 458.344 610.607 457.758L601.061 448.212ZM598.939 522.333C599.525 522.919 600.475 522.919 601.061 522.333L610.607 512.787C611.192 512.201 611.192 511.252 610.607 510.666C610.021 510.08 609.071 510.08 608.485 510.666L600 519.151L591.515 510.666C590.929 510.08 589.979 510.08 589.393 510.666C588.808 511.252 588.808 512.201 589.393 512.787L598.939 522.333ZM600 449.272H598.5V521.272H600H601.5V449.272H600Z" fill="#14AE5C"/>
<path d="M345.061 448.212C344.475 447.626 343.525 447.626 342.939 448.212L333.393 457.758C332.808 458.344 332.808 459.293 333.393 459.879C333.979 460.465 334.929 460.465 335.515 459.879L344 451.394L352.485 459.879C353.071 460.465 354.021 460.465 354.607 459.879C355.192 459.293 355.192 458.344 354.607 457.758L345.061 448.212ZM509.061 570.333C509.646 569.747 509.646 568.798 509.061 568.212L499.515 558.666C498.929 558.08 497.979 558.08 497.393 558.666C496.808 559.252 496.808 560.201 497.393 560.787L505.879 569.272L497.393 577.758C496.808 578.344 496.808 579.293 497.393 579.879C497.979 580.465 498.929 580.465 499.515 579.879L509.061 570.333ZM344 449.272H342.5V545.272H344H345.5V449.272H344ZM368 569.272V570.772H508V569.272V567.772H368V569.272ZM344 545.272H342.5C342.5 559.356 353.917 570.772 368 570.772V569.272V567.772C355.574 567.772 345.5 557.699 345.5 545.272H344Z" fill="#14AE5C"/>
<path d="M509.061 570.333C509.646 569.747 509.646 568.798 509.061 568.212L499.515 558.666C498.929 558.08 497.979 558.08 497.393 558.666C496.808 559.252 496.808 560.201 497.393 560.787L505.879 569.272L497.393 577.758C496.808 578.344 496.808 579.293 497.393 579.879C497.979 580.465 498.929 580.465 499.515 579.879L509.061 570.333ZM345.061 448.212C344.475 447.626 343.525 447.626 342.939 448.212L333.393 457.758C332.808 458.344 332.808 459.293 333.393 459.879C333.979 460.465 334.929 460.465 335.515 459.879L344 451.394L352.485 459.879C353.071 460.465 354.021 460.465 354.607 459.879C355.192 459.293 355.192 458.344 354.607 457.758L345.061 448.212ZM508 569.272V567.772H368V569.272V570.772H508V569.272ZM344 545.272H345.5V449.272H344H342.5V545.272H344ZM368 569.272V567.772C355.574 567.772 345.5 557.699 345.5 545.272H344H342.5C342.5 559.356 353.917 570.772 368 570.772V569.272Z" fill="#14AE5C"/>
<path d="M857.061 448.212C856.475 447.626 855.525 447.626 854.939 448.212L845.393 457.758C844.808 458.344 844.808 459.293 845.393 459.879C845.979 460.465 846.929 460.465 847.515 459.879L856 451.394L864.485 459.879C865.071 460.465 866.021 460.465 866.607 459.879C867.192 459.293 867.192 458.344 866.607 457.758L857.061 448.212ZM690.939 568.212C690.354 568.798 690.354 569.747 690.939 570.333L700.485 579.879C701.071 580.465 702.021 580.465 702.607 579.879C703.192 579.293 703.192 578.344 702.607 577.758L694.121 569.272L702.607 560.787C703.192 560.201 703.192 559.252 702.607 558.666C702.021 558.08 701.071 558.08 700.485 558.666L690.939 568.212ZM856 449.272H854.5V545.272H856H857.5V449.272H856ZM832 569.272V567.772H692V569.272V570.772H832V569.272ZM856 545.272H854.5C854.5 557.699 844.426 567.772 832 567.772V569.272V570.772C846.083 570.772 857.5 559.356 857.5 545.272H856Z" fill="#14AE5C"/>
<path d="M690.939 568.212C690.354 568.798 690.354 569.747 690.939 570.333L700.485 579.879C701.071 580.465 702.021 580.465 702.607 579.879C703.192 579.293 703.192 578.344 702.607 577.758L694.121 569.272L702.607 560.787C703.192 560.201 703.192 559.252 702.607 558.666C702.021 558.08 701.071 558.08 700.485 558.666L690.939 568.212ZM857.061 448.212C856.475 447.626 855.525 447.626 854.939 448.212L845.393 457.758C844.808 458.344 844.808 459.293 845.393 459.879C845.979 460.465 846.929 460.465 847.515 459.879L856 451.394L864.485 459.879C865.071 460.465 866.021 460.465 866.607 459.879C867.192 459.293 867.192 458.344 866.607 457.758L857.061 448.212ZM692 569.272V570.772H832V569.272V567.772H692V569.272ZM856 545.272H857.5V449.272H856H854.5V545.272H856ZM832 569.272V570.772C846.083 570.772 857.5 559.356 857.5 545.272H856H854.5C854.5 557.699 844.426 567.772 832 567.772V569.272Z" fill="#14AE5C"/>
<path d="M598.939 186.061C599.525 186.646 600.475 186.646 601.061 186.061L610.607 176.515C611.192 175.929 611.192 174.979 610.607 174.393C610.021 173.808 609.071 173.808 608.485 174.393L600 182.879L591.515 174.393C590.929 173.808 589.979 173.808 589.393 174.393C588.808 174.979 588.808 175.929 589.393 176.515L598.939 186.061ZM601.061 90.9393C600.475 90.3536 599.525 90.3536 598.939 90.9393L589.393 100.485C588.808 101.071 588.808 102.021 589.393 102.607C589.979 103.192 590.929 103.192 591.515 102.607L600 94.1213L608.485 102.607C609.071 103.192 610.021 103.192 610.607 102.607C611.192 102.021 611.192 101.071 610.607 100.485L601.061 90.9393ZM600 185H601.5V92H600H598.5V185H600Z" fill="#14AE5C"/>
<path d="M342.939 354.333C343.525 354.919 344.475 354.919 345.061 354.333L354.607 344.787C355.192 344.201 355.192 343.252 354.607 342.666C354.021 342.08 353.071 342.08 352.485 342.666L344 351.151L335.515 342.666C334.929 342.08 333.979 342.08 333.393 342.666C332.808 343.252 332.808 344.201 333.393 344.787L342.939 354.333ZM509.061 234.061C509.646 233.475 509.646 232.525 509.061 231.939L499.515 222.393C498.929 221.808 497.979 221.808 497.393 222.393C496.808 222.979 496.808 223.929 497.393 224.515L505.879 233L497.393 241.485C496.808 242.071 496.808 243.021 497.393 243.607C497.979 244.192 498.929 244.192 499.515 243.607L509.061 234.061ZM344 353.272H345.5V257H344H342.5V353.272H344ZM368 233V234.5H508V233V231.5H368V233ZM344 257H345.5C345.5 244.574 355.574 234.5 368 234.5V233V231.5C353.917 231.5 342.5 242.917 342.5 257H344Z" fill="#14AE5C"/>
<path d="M690.939 231.939C690.354 232.525 690.354 233.475 690.939 234.061L700.485 243.607C701.071 244.192 702.021 244.192 702.607 243.607C703.192 243.021 703.192 242.071 702.607 241.485L694.121 233L702.607 224.515C703.192 223.929 703.192 222.979 702.607 222.393C702.021 221.808 701.071 221.808 700.485 222.393L690.939 231.939ZM1110.94 354.333C1111.53 354.919 1112.47 354.919 1113.06 354.333L1122.61 344.787C1123.19 344.201 1123.19 343.252 1122.61 342.666C1122.02 342.08 1121.07 342.08 1120.49 342.666L1112 351.151L1103.51 342.666C1102.93 342.08 1101.98 342.08 1101.39 342.666C1100.81 343.252 1100.81 344.201 1101.39 344.787L1110.94 354.333ZM692 233V234.5H1088V233V231.5H692V233ZM1112 257H1110.5V353.272H1112H1113.5V257H1112ZM1088 233V234.5C1100.43 234.5 1110.5 244.574 1110.5 257H1112H1113.5C1113.5 242.917 1102.08 231.5 1088 231.5V233Z" fill="#FCD19C"/>
<path d="M89.0607 448.212C88.4749 447.626 87.5251 447.626 86.9393 448.212L77.3934 457.758C76.8076 458.344 76.8076 459.293 77.3934 459.879C77.9792 460.465 78.9289 460.465 79.5147 459.879L88 451.394L96.4853 459.879C97.0711 460.465 98.0208 460.465 98.6066 459.879C99.1924 459.293 99.1924 458.344 98.6066 457.758L89.0607 448.212ZM509.061 570.333C509.646 569.747 509.646 568.798 509.061 568.212L499.515 558.666C498.929 558.08 497.979 558.08 497.393 558.666C496.808 559.252 496.808 560.201 497.393 560.787L505.879 569.272L497.393 577.758C496.808 578.344 496.808 579.293 497.393 579.879C497.979 580.465 498.929 580.465 499.515 579.879L509.061 570.333ZM88 449.272H86.5V545.272H88H89.5V449.272H88ZM112 569.272V570.772H508V569.272V567.772H112V569.272ZM88 545.272H86.5C86.5 559.356 97.9167 570.772 112 570.772V569.272V567.772C99.5736 567.772 89.5 557.699 89.5 545.272H88Z" fill="#14AE5C"/>
<path d="M509.061 570.333C509.646 569.747 509.646 568.798 509.061 568.212L499.515 558.666C498.929 558.08 497.979 558.08 497.393 558.666C496.808 559.252 496.808 560.201 497.393 560.787L505.879 569.272L497.393 577.758C496.808 578.344 496.808 579.293 497.393 579.879C497.979 580.465 498.929 580.465 499.515 579.879L509.061 570.333ZM89.0607 448.212C88.4749 447.626 87.5251 447.626 86.9393 448.212L77.3934 457.758C76.8076 458.344 76.8076 459.293 77.3934 459.879C77.9792 460.465 78.9289 460.465 79.5147 459.879L88 451.394L96.4853 459.879C97.0711 460.465 98.0208 460.465 98.6066 459.879C99.1924 459.293 99.1924 458.344 98.6066 457.758L89.0607 448.212ZM508 569.272V567.772H112V569.272V570.772H508V569.272ZM88 545.272H89.5V449.272H88H86.5V545.272H88ZM112 569.272V567.772C99.5736 567.772 89.5 557.699 89.5 545.272H88H86.5C86.5 559.356 97.9167 570.772 112 570.772V569.272Z" fill="#14AE5C"/>
<path d="M601.061 90.9393C600.475 90.3536 599.525 90.3536 598.939 90.9393L589.393 100.485C588.808 101.071 588.808 102.021 589.393 102.607C589.979 103.192 590.929 103.192 591.515 102.607L600 94.1213L608.485 102.607C609.071 103.192 610.021 103.192 610.607 102.607C611.192 102.021 611.192 101.071 610.607 100.485L601.061 90.9393ZM598.939 186.061C599.525 186.646 600.475 186.646 601.061 186.061L610.607 176.515C611.192 175.929 611.192 174.979 610.607 174.393C610.021 173.808 609.071 173.808 608.485 174.393L600 182.879L591.515 174.393C590.929 173.808 589.979 173.808 589.393 174.393C588.808 174.979 588.808 175.929 589.393 176.515L598.939 186.061ZM600 92H598.5V185H600H601.5V92H600Z" fill="#14AE5C"/>
<path d="M509.061 234.061C509.646 233.475 509.646 232.525 509.061 231.939L499.515 222.393C498.929 221.808 497.979 221.808 497.393 222.393C496.808 222.979 496.808 223.929 497.393 224.515L505.879 233L497.393 241.485C496.808 242.071 496.808 243.021 497.393 243.607C497.979 244.192 498.929 244.192 499.515 243.607L509.061 234.061ZM342.939 354.333C343.525 354.919 344.475 354.919 345.061 354.333L354.607 344.787C355.192 344.201 355.192 343.252 354.607 342.666C354.021 342.08 353.071 342.08 352.485 342.666L344 351.151L335.515 342.666C334.929 342.08 333.979 342.08 333.393 342.666C332.808 343.252 332.808 344.201 333.393 344.787L342.939 354.333ZM508 233V231.5H368V233V234.5H508V233ZM344 257H342.5V353.272H344H345.5V257H344ZM368 233V231.5C353.917 231.5 342.5 242.917 342.5 257H344H345.5C345.5 244.574 355.574 234.5 368 234.5V233Z" fill="#FCD19C"/>
<path d="M601.061 279.939C600.475 279.354 599.525 279.354 598.939 279.939L589.393 289.485C588.808 290.071 588.808 291.021 589.393 291.607C589.979 292.192 590.929 292.192 591.515 291.607L600 283.121L608.485 291.607C609.071 292.192 610.021 292.192 610.607 291.607C611.192 291.021 611.192 290.071 610.607 289.485L601.061 279.939ZM598.939 354.333C599.525 354.919 600.475 354.919 601.061 354.333L610.607 344.787C611.192 344.201 611.192 343.252 610.607 342.666C610.021 342.08 609.071 342.08 608.485 342.666L600 351.151L591.515 342.666C590.929 342.08 589.979 342.08 589.393 342.666C588.808 343.252 588.808 344.201 589.393 344.787L598.939 354.333ZM600 281H598.5V353.272H600H601.5V281H600Z" fill="#FCD19C"/>
<path d="M598.939 354.333C599.525 354.919 600.475 354.919 601.061 354.333L610.607 344.787C611.192 344.201 611.192 343.252 610.607 342.666C610.021 342.08 609.071 342.08 608.485 342.666L600 351.151L591.515 342.666C590.929 342.08 589.979 342.08 589.393 342.666C588.808 343.252 588.808 344.201 589.393 344.787L598.939 354.333ZM601.061 279.939C600.475 279.354 599.525 279.354 598.939 279.939L589.393 289.485C588.808 290.071 588.808 291.021 589.393 291.607C589.979 292.192 590.929 292.192 591.515 291.607L600 283.121L608.485 291.607C609.071 292.192 610.021 292.192 610.607 291.607C611.192 291.021 611.192 290.071 610.607 289.485L601.061 279.939ZM600 353.272H601.5V281H600H598.5V353.272H600Z" fill="#FCD19C"/>
<path d="M690.939 231.939C690.354 232.525 690.354 233.475 690.939 234.061L700.485 243.607C701.071 244.192 702.021 244.192 702.607 243.607C703.192 243.021 703.192 242.071 702.607 241.485L694.121 233L702.607 224.515C703.192 223.929 703.192 222.979 702.607 222.393C702.021 221.808 701.071 221.808 700.485 222.393L690.939 231.939ZM765.061 402.333C765.646 401.747 765.646 400.798 765.061 400.212L755.515 390.666C754.929 390.08 753.979 390.08 753.393 390.666C752.808 391.252 752.808 392.201 753.393 392.787L761.879 401.272L753.393 409.758C752.808 410.344 752.808 411.293 753.393 411.879C753.979 412.465 754.929 412.465 755.515 411.879L765.061 402.333ZM692 233V234.5H704V233V231.5H692V233ZM728 257H726.5V377.272H728H729.5V257H728ZM752 401.272V402.772H764V401.272V399.772H752V401.272ZM728 377.272H726.5C726.5 391.356 737.917 402.772 752 402.772V401.272V399.772C739.574 399.772 729.5 389.699 729.5 377.272H728ZM704 233V234.5C716.426 234.5 726.5 244.574 726.5 257H728H729.5C729.5 242.917 718.083 231.5 704 231.5V233Z" fill="#FCD19C"/>
<path d="M765.061 402.333C765.646 401.747 765.646 400.798 765.061 400.212L755.515 390.666C754.929 390.08 753.979 390.08 753.393 390.666C752.808 391.252 752.808 392.201 753.393 392.787L761.879 401.272L753.393 409.758C752.808 410.344 752.808 411.293 753.393 411.879C753.979 412.465 754.929 412.465 755.515 411.879L765.061 402.333ZM690.939 231.939C690.354 232.525 690.354 233.475 690.939 234.061L700.485 243.607C701.071 244.192 702.021 244.192 702.607 243.607C703.192 243.021 703.192 242.071 702.607 241.485L694.121 233L702.607 224.515C703.192 223.929 703.192 222.979 702.607 222.393C702.021 221.808 701.071 221.808 700.485 222.393L690.939 231.939ZM764 401.272V399.772H752V401.272V402.772H764V401.272ZM728 377.272H729.5V257H728H726.5V377.272H728ZM704 233V231.5H692V233V234.5H704V233ZM728 257H729.5C729.5 242.917 718.083 231.5 704 231.5V233V234.5C716.426 234.5 726.5 244.574 726.5 257H728ZM752 401.272V399.772C739.574 399.772 729.5 389.699 729.5 377.272H728H726.5C726.5 391.356 737.917 402.772 752 402.772V401.272Z" fill="#FCD19C"/>
<path d="M86.9393 354.333C87.5251 354.919 88.4749 354.919 89.0607 354.333L98.6066 344.787C99.1924 344.201 99.1924 343.252 98.6066 342.666C98.0208 342.08 97.0711 342.08 96.4853 342.666L88 351.151L79.5147 342.666C78.9289 342.08 77.9792 342.08 77.3934 342.666C76.8076 343.252 76.8076 344.201 77.3934 344.787L86.9393 354.333ZM509.061 234.061C509.646 233.475 509.646 232.525 509.061 231.939L499.515 222.393C498.929 221.808 497.979 221.808 497.393 222.393C496.808 222.979 496.808 223.929 497.393 224.515L505.879 233L497.393 241.485C496.808 242.071 496.808 243.021 497.393 243.607C497.979 244.192 498.929 244.192 499.515 243.607L509.061 234.061ZM88 353.272H89.5V257H88H86.5V353.272H88ZM112 233V234.5H508V233V231.5H112V233ZM88 257H89.5C89.5 244.574 99.5736 234.5 112 234.5V233V231.5C97.9167 231.5 86.5 242.917 86.5 257H88Z" fill="#FCD19C"/>
<path d="M509.061 234.061C509.646 233.475 509.646 232.525 509.061 231.939L499.515 222.393C498.929 221.808 497.979 221.808 497.393 222.393C496.808 222.979 496.808 223.929 497.393 224.515L505.879 233L497.393 241.485C496.808 242.071 496.808 243.021 497.393 243.607C497.979 244.192 498.929 244.192 499.515 243.607L509.061 234.061ZM86.9393 354.333C87.5251 354.919 88.4749 354.919 89.0607 354.333L98.6066 344.787C99.1924 344.201 99.1924 343.252 98.6066 342.666C98.0208 342.08 97.0711 342.08 96.4853 342.666L88 351.151L79.5147 342.666C78.9289 342.08 77.9792 342.08 77.3934 342.666C76.8076 343.252 76.8076 344.201 77.3934 344.787L86.9393 354.333ZM508 233V231.5H112V233V234.5H508V233ZM88 257H86.5V353.272H88H89.5V257H88ZM112 233V231.5C97.9167 231.5 86.5 242.917 86.5 257H88H89.5C89.5 244.574 99.5736 234.5 112 234.5V233Z" fill="#FCD19C"/>
<path d="M1110.94 354.333C1111.53 354.919 1112.47 354.919 1113.06 354.333L1122.61 344.787C1123.19 344.201 1123.19 343.252 1122.61 342.666C1122.02 342.08 1121.07 342.08 1120.49 342.666L1112 351.151L1103.51 342.666C1102.93 342.08 1101.98 342.08 1101.39 342.666C1100.81 343.252 1100.81 344.201 1101.39 344.787L1110.94 354.333ZM690.939 231.939C690.354 232.525 690.354 233.475 690.939 234.061L700.485 243.607C701.071 244.192 702.021 244.192 702.607 243.607C703.192 243.021 703.192 242.071 702.607 241.485L694.121 233L702.607 224.515C703.192 223.929 703.192 222.979 702.607 222.393C702.021 221.808 701.071 221.808 700.485 222.393L690.939 231.939ZM1112 353.272H1113.5V257H1112H1110.5V353.272H1112ZM1088 233V231.5H692V233V234.5H1088V233ZM1112 257H1113.5C1113.5 242.917 1102.08 231.5 1088 231.5V233V234.5C1100.43 234.5 1110.5 244.574 1110.5 257H1112Z" fill="#FCD19C"/>
</svg>
